<svg xmlns="http://www.w3.org/2000/svg" xmlns:xlink="http://www.w3.org/1999/xlink" width="52" zoomAndPan="magnify" viewBox="0 0 39 38.999999" height="52" preserveAspectRatio="xMidYMid meet" version="1.0"><defs><clipPath id="a99cdfa8a4"><path d="M 11.25 0 L 27.75 0 C 33.964844 0 39 5.035156 39 11.25 L 39 27.75 C 39 33.964844 33.964844 39 27.75 39 L 11.25 39 C 5.035156 39 0 33.964844 0 27.75 L 0 11.25 C 0 5.035156 5.035156 0 11.25 0 Z M 11.25 0 " clip-rule="nonzero"/></clipPath><clipPath id="25732d7ff9"><path d="M 2.101562 2.101562 L 36.601562 2.101562 L 36.601562 36.601562 L 2.101562 36.601562 Z M 2.101562 2.101562 " clip-rule="nonzero"/></clipPath></defs><g clip-path="url(#a99cdfa8a4)"><rect x="-3.9" width="46.8" fill="#c0bebe" y="-3.9" height="46.799999" fill-opacity="1"/></g><path fill="#000000" d="M 19.351562 9.195312 C 16.09375 9.195312 13.4375 11.839844 13.4375 15.09375 C 13.4375 18.359375 16.09375 21.003906 19.351562 21.003906 C 22.605469 21.003906 25.261719 18.359375 25.261719 15.09375 C 25.261719 11.839844 22.605469 9.195312 19.351562 9.195312 Z M 19.351562 9.195312 " fill-opacity="1" fill-rule="nonzero"/><g clip-path="url(#25732d7ff9)"><path fill="#000000" d="M 19.339844 2.113281 C 9.839844 2.113281 2.101562 9.839844 2.101562 19.351562 C 2.101562 24.640625 4.503906 29.378906 8.265625 32.539062 C 8.265625 32.539062 8.265625 32.539062 8.265625 32.550781 C 11.265625 35.070312 15.128906 36.589844 19.339844 36.589844 C 25.339844 36.589844 30.816406 33.550781 33.988281 28.457031 C 35.703125 25.722656 36.601562 22.582031 36.601562 19.351562 C 36.601562 16.117188 35.703125 12.96875 33.988281 10.242188 C 30.816406 5.148438 25.339844 2.113281 19.339844 2.113281 Z M 32.046875 27.238281 C 31.492188 28.125 30.851562 28.90625 30.148438 29.640625 C 28.398438 26.054688 24.6875 23.664062 20.582031 23.664062 L 18.121094 23.664062 C 15.265625 23.664062 12.585938 24.777344 10.574219 26.789062 C 9.734375 27.617188 9.070312 28.597656 8.550781 29.652344 C 5.988281 26.972656 4.398438 23.351562 4.398438 19.351562 C 4.398438 11.117188 11.105469 4.410156 19.339844 4.410156 C 24.546875 4.410156 29.285156 7.042969 32.046875 11.460938 C 33.519531 13.828125 34.300781 16.554688 34.300781 19.351562 C 34.300781 22.144531 33.519531 24.871094 32.046875 27.238281 Z M 32.046875 27.238281 " fill-opacity="1" fill-rule="nonzero"/></g></svg>