<svg xmlns="http://www.w3.org/2000/svg" xmlns:xlink="http://www.w3.org/1999/xlink" width="500" zoomAndPan="magnify" viewBox="0 0 375 374.999991" height="500" preserveAspectRatio="xMidYMid meet" version="1.0"><defs><clipPath id="41eaa32054"><path d="M 15.121094 15.335938 L 360 15.335938 L 360 359.585938 L 15.121094 359.585938 Z M 15.121094 15.335938 " clip-rule="nonzero"/></clipPath></defs><path fill="#ffffff" d="M 187.640625 357.730469 C 281.496094 357.730469 358.046875 281.25 358.046875 187.480469 C 358.046875 93.707031 281.496094 17.230469 187.640625 17.230469 C 93.785156 17.230469 17.234375 93.707031 17.234375 187.480469 C 17.234375 281.25 93.785156 357.730469 187.640625 357.730469 " fill-opacity="1" fill-rule="evenodd"/><path fill="#212121" d="M 131.039062 83.476562 L 244.238281 83.476562 C 248.816406 83.476562 252.558594 87.21875 252.558594 91.792969 L 252.558594 283.167969 C 252.558594 287.738281 248.8125 291.484375 244.238281 291.484375 L 131.039062 291.484375 C 126.464844 291.484375 122.714844 287.742188 122.714844 283.167969 L 122.714844 91.792969 C 122.714844 87.21875 126.460938 83.476562 131.039062 83.476562 " fill-opacity="1" fill-rule="evenodd"/><path fill="#efebe9" d="M 179.300781 92.800781 C 177.363281 92.800781 175.800781 94.367188 175.800781 96.296875 C 175.800781 98.226562 177.367188 99.792969 179.300781 99.792969 L 195.980469 99.792969 C 197.910156 99.792969 199.476562 98.226562 199.476562 96.296875 C 199.476562 94.367188 197.910156 92.800781 195.980469 92.800781 L 179.300781 92.800781 " fill-opacity="1" fill-rule="evenodd"/><path fill="#b3e5fc" d="M 133.910156 110.664062 L 241.367188 110.664062 L 241.367188 254.929688 L 133.910156 254.929688 L 133.910156 110.664062 " fill-opacity="1" fill-rule="evenodd"/><path fill="#efebe9" d="M 187.640625 264.875 C 191.902344 264.875 195.359375 268.332031 195.359375 272.589844 C 195.359375 276.851562 191.902344 280.300781 187.640625 280.300781 C 183.378906 280.300781 179.921875 276.851562 179.921875 272.589844 C 179.921875 268.332031 183.378906 264.875 187.640625 264.875 " fill-opacity="1" fill-rule="evenodd"/><g clip-path="url(#41eaa32054)"><path fill="#ef5350" d="M 187.640625 15.335938 C 233.488281 15.335938 277.0625 33.371094 309.472656 65.757812 C 341.886719 98.140625 359.941406 141.671875 359.941406 187.480469 C 359.941406 233.285156 341.886719 276.820312 309.472656 309.203125 C 277.0625 341.585938 233.488281 359.625 187.640625 359.625 C 141.789062 359.625 98.21875 341.585938 65.804688 309.203125 C 33.390625 276.820312 15.335938 233.285156 15.335938 187.480469 C 15.335938 141.671875 33.390625 98.140625 65.804688 65.757812 C 98.21875 33.371094 141.789062 15.335938 187.640625 15.335938 Z M 289.980469 85.230469 C 262.746094 58.019531 226.164062 42.878906 187.640625 42.878906 C 149.117188 42.878906 112.535156 58.019531 85.296875 85.230469 C 58.0625 112.445312 42.90625 148.992188 42.90625 187.480469 C 42.90625 225.96875 58.0625 262.515625 85.296875 289.726562 C 112.535156 316.941406 149.117188 332.082031 187.640625 332.082031 C 226.164062 332.082031 262.746094 316.941406 289.980469 289.726562 C 317.21875 262.515625 332.371094 225.96875 332.371094 187.480469 C 332.371094 148.992188 317.21875 112.445312 289.980469 85.230469 " fill-opacity="1" fill-rule="evenodd"/></g><path fill="#ef5350" d="M 314.089844 80.621094 L 80.683594 313.8125 L 61.191406 294.339844 L 294.597656 61.148438 L 314.089844 80.621094 " fill-opacity="1" fill-rule="evenodd"/></svg>