<svg xmlns="http://www.w3.org/2000/svg" xmlns:xlink="http://www.w3.org/1999/xlink" width="938" zoomAndPan="magnify" viewBox="0 0 703.5 1406.249941" height="1875" preserveAspectRatio="xMidYMid meet" version="1.0"><defs><g/><clipPath id="e45fcfde01"><path d="M 222 79.246094 L 481 79.246094 L 481 338 L 222 338 Z M 222 79.246094 " clip-rule="nonzero"/></clipPath></defs><path fill="#ffffff" d="M 657.335938 540.992188 L 633.160156 534.742188 L 633.160156 466.394531 C 633.160156 453.949219 623.054688 443.84375 610.59375 443.84375 L 519.375 443.84375 C 491.851562 398.902344 472.328125 369.546875 434.578125 369.546875 L 268.777344 369.546875 C 231.023438 369.546875 211.238281 398.902344 183.703125 443.84375 L 92.609375 443.84375 C 80.148438 443.84375 70.058594 453.949219 70.058594 466.394531 L 70.058594 534.6875 L 45.726562 540.992188 C 17.253906 548.34375 0.0429688 577.671875 7.671875 606.421875 C 14.761719 633.984375 42.464844 650.78125 70.058594 645.191406 L 70.058594 890.105469 C 70.058594 902.550781 80.148438 912.660156 92.609375 912.660156 L 215.453125 912.660156 L 172.054688 1256.097656 C 167.828125 1289.941406 191.796875 1320.949219 225.625 1325.464844 C 228.449219 1325.738281 230.996094 1325.738281 233.53125 1325.738281 C 264.550781 1325.738281 291.054688 1302.910156 295.003906 1271.601562 L 340.632812 912.660156 L 362.980469 912.660156 L 408.070312 1271.601562 C 412.023438 1302.910156 438.804688 1325.738281 469.546875 1325.738281 C 472.082031 1325.738281 474.902344 1325.738281 477.4375 1325.464844 C 511.554688 1320.949219 535.527344 1289.941406 531.300781 1256.097656 L 487.640625 912.660156 L 610.59375 912.660156 C 623.054688 912.660156 633.160156 902.550781 633.160156 890.105469 L 633.160156 645.136719 C 636.710938 645.824219 640.261719 646.460938 643.800781 646.460938 C 667.773438 646.460938 689.484375 630.378906 695.695312 606.421875 C 703.019531 577.671875 686.097656 548.34375 657.335938 540.992188 Z M 588.039062 867.554688 L 115.164062 867.554688 L 115.164062 488.949219 L 588.039062 488.949219 Z M 588.039062 867.554688 " fill-opacity="1" fill-rule="nonzero"/><g clip-path="url(#e45fcfde01)"><path fill="#ffffff" d="M 351.609375 337.027344 C 422.652344 337.027344 480.261719 279.449219 480.261719 208.375 C 480.261719 137.328125 422.652344 79.75 351.609375 79.75 C 280.550781 79.75 222.957031 137.328125 222.957031 208.375 C 222.957031 279.449219 280.550781 337.027344 351.609375 337.027344 Z M 351.609375 337.027344 " fill-opacity="1" fill-rule="nonzero"/></g><path fill="#ffffff" d="M 351.636719 802.347656 C 420.175781 802.347656 475.746094 746.804688 475.746094 678.238281 C 475.746094 609.726562 420.175781 554.15625 351.636719 554.15625 C 283.097656 554.15625 227.527344 609.726562 227.527344 678.238281 C 227.527344 746.804688 283.097656 802.347656 351.636719 802.347656 Z M 295.984375 644.695312 C 294.539062 643.265625 294.539062 640.925781 295.984375 639.492188 L 312.863281 622.585938 C 314.308594 621.152344 316.648438 621.152344 318.082031 622.585938 L 351.636719 656.152344 L 385.1875 622.585938 C 386.636719 621.152344 388.976562 621.152344 390.40625 622.585938 L 407.289062 639.492188 C 408.734375 640.925781 408.734375 643.265625 407.289062 644.695312 L 373.746094 678.238281 L 407.289062 711.804688 C 408.734375 713.238281 408.734375 715.578125 407.289062 717.007812 L 390.40625 733.890625 C 388.976562 735.347656 386.636719 735.347656 385.1875 733.890625 L 351.636719 700.347656 L 318.082031 733.890625 C 316.636719 735.347656 314.308594 735.347656 312.863281 733.890625 L 295.984375 717.007812 C 294.539062 715.578125 294.539062 713.238281 295.984375 711.804688 L 329.523438 678.238281 Z M 295.984375 644.695312 " fill-opacity="1" fill-rule="nonzero"/><g fill="#000000" fill-opacity="1"><g transform="translate(329.716106, 295.004231)"><g/></g></g><g fill="#ffffff" fill-opacity="1"><g transform="translate(350.490402, 295.004231)"><g><path d="M 4.5625 -5.578125 C 4.5625 -7.765625 5.144531 -9.414062 6.3125 -10.53125 C 7.488281 -11.65625 9.195312 -12.21875 11.4375 -12.21875 C 13.59375 -12.21875 15.265625 -11.644531 16.453125 -10.5 C 17.640625 -9.351562 18.234375 -7.710938 18.234375 -5.578125 C 18.234375 -3.523438 17.632812 -1.90625 16.4375 -0.71875 C 15.238281 0.457031 13.570312 1.046875 11.4375 1.046875 C 9.25 1.046875 7.554688 0.46875 6.359375 -0.6875 C 5.160156 -1.84375 4.5625 -3.472656 4.5625 -5.578125 Z M 4.5625 -5.578125 "/></g></g></g></svg>