<svg xmlns="http://www.w3.org/2000/svg" xmlns:xlink="http://www.w3.org/1999/xlink" width="1029" zoomAndPan="magnify" viewBox="0 0 771.75 619.499986" height="826" preserveAspectRatio="xMidYMid meet" version="1.0"><defs><clipPath id="8123185aa1"><path d="M 128 376 L 315 376 L 315 587.941406 L 128 587.941406 Z M 128 376 " clip-rule="nonzero"/></clipPath><clipPath id="4db5967936"><path d="M 401 531 L 771.3125 531 L 771.3125 552 L 401 552 Z M 401 531 " clip-rule="nonzero"/></clipPath></defs><path fill="#000000" d="M 198.421875 113.75 C 197.535156 121.183594 196.648438 128.71875 197.667969 136.140625 C 197.992188 138.519531 198.53125 140.914062 199.746094 142.988281 C 200.960938 145.058594 202.941406 146.78125 205.304688 147.222656 C 207.488281 145.152344 210.511719 142.6875 211.828125 139.976562 C 213.519531 136.5 213.519531 132.449219 213.109375 128.601562 C 212.683594 124.621094 211.804688 120.554688 209.496094 117.28125 C 207.1875 114.011719 202.371094 113.085938 198.421875 113.75 Z M 198.421875 113.75 " fill-opacity="1" fill-rule="nonzero"/><g clip-path="url(#8123185aa1)"><path fill="#007785" d="M 314.023438 553.859375 C 313.824219 524.589844 310.914062 492.035156 310.300781 473.847656 C 307.328125 385.363281 302.550781 376.046875 302.550781 376.046875 L 213.898438 384.5 L 142.773438 393.175781 L 128.785156 587.386719 L 222.921875 587.664062 L 229.144531 533.03125 L 230.109375 587.683594 L 313.929688 587.933594 Z M 314.023438 553.859375 " fill-opacity="1" fill-rule="nonzero"/></g><path fill="#000000" d="M 229.144531 533.675781 C 228.894531 533.675781 228.660156 533.53125 228.554688 533.285156 C 228.414062 532.960938 228.5625 532.582031 228.890625 532.441406 L 266.652344 516.195312 C 266.980469 516.054688 267.359375 516.207031 267.5 516.535156 C 267.640625 516.859375 267.492188 517.238281 267.164062 517.378906 L 229.402344 533.625 C 229.316406 533.660156 229.230469 533.675781 229.144531 533.675781 Z M 229.144531 533.675781 " fill-opacity="1" fill-rule="nonzero"/><g clip-path="url(#4db5967936)"><path fill="#ffffff" d="M 401.707031 531.765625 L 771.167969 531.765625 L 771.167969 551.71875 L 401.707031 551.71875 Z M 401.707031 531.765625 " fill-opacity="1" fill-rule="nonzero"/><path fill="#000000" d="M 401.707031 531.765625 L 771.167969 531.765625 L 771.167969 551.71875 L 401.707031 551.71875 Z M 401.707031 531.765625 " fill-opacity="0.2667" fill-rule="nonzero"/></g><path fill="#000000" d="M 595.789062 252.410156 L 573.429688 378.207031 L 679.21875 388.351562 L 675.414062 273.492188 Z M 595.789062 252.410156 " fill-opacity="1" fill-rule="nonzero"/><path fill="#f8b498" d="M 633.304688 296.6875 L 638.554688 374.730469 L 600.371094 375.507812 L 601.199219 324.054688 Z M 633.304688 296.6875 " fill-opacity="1" fill-rule="nonzero"/><path fill="#ff3e4d" d="M 588.117188 367.105469 L 583.617188 367.648438 C 572.726562 368.964844 559.609375 379.222656 555.707031 389.472656 L 526.324219 458.363281 L 538.605469 407.214844 L 502.015625 399.84375 L 487.316406 469.996094 C 484.34375 480.484375 483.816406 491.515625 485.792969 502.238281 C 487.917969 513.789062 497.886719 522.242188 509.636719 522.453125 C 522.9375 522.699219 535.378906 515.890625 542.335938 504.554688 L 565.90625 466.171875 L 592.386719 530.390625 L 728.613281 540.351562 C 743.757812 541.460938 757.445312 531.355469 760.839844 516.566406 C 763.796875 503.695312 761.972656 490.1875 755.699219 478.566406 L 714.347656 395.800781 C 712.46875 392.046875 709.976562 388.429688 707.03125 385.09375 C 696.203125 372.8125 680.308594 366.199219 663.929688 366.132812 L 642.886719 366.050781 Z M 588.117188 367.105469 " fill-opacity="1" fill-rule="nonzero"/><path fill="#000000" d="M 580.441406 262.675781 C 580.441406 262.675781 553.582031 241.683594 581.0625 224.46875 C 599.832031 212.710938 631.851562 228.296875 631.851562 228.296875 Z M 580.441406 262.675781 " fill-opacity="1" fill-rule="nonzero"/><path fill="#000000" d="M 633.355469 228.613281 C 635.015625 228.957031 636.660156 229.367188 638.28125 229.84375 C 639.90625 230.320312 641.503906 230.859375 643.074219 231.46875 C 644.648438 232.074219 646.183594 232.746094 647.691406 233.476562 C 649.195312 234.207031 650.660156 234.996094 652.082031 235.847656 C 653.507812 236.695312 654.882812 237.597656 656.210938 238.558594 C 657.539062 239.515625 658.8125 240.523438 660.035156 241.582031 C 661.253906 242.640625 662.414062 243.742188 663.515625 244.890625 C 664.617188 246.039062 665.652344 247.226562 666.621094 248.453125 C 667.59375 249.679688 668.492188 250.9375 669.324219 252.234375 C 670.15625 253.527344 670.914062 254.847656 671.59375 256.195312 C 672.277344 257.542969 672.886719 258.914062 673.414062 260.300781 C 673.941406 261.691406 674.394531 263.09375 674.761719 264.511719 C 675.132812 265.929688 675.421875 267.355469 675.628906 268.789062 C 675.835938 270.222656 675.960938 271.652344 676 273.085938 C 676.042969 274.519531 676.003906 275.945312 675.878906 277.367188 C 675.757812 278.785156 675.550781 280.191406 675.265625 281.585938 C 674.976562 282.976562 674.609375 284.351562 674.160156 285.703125 C 673.710938 287.054688 673.183594 288.382812 672.578125 289.683594 C 671.972656 290.980469 671.292969 292.25 670.535156 293.484375 C 669.78125 294.714844 668.949219 295.910156 668.050781 297.066406 C 667.148438 298.222656 666.183594 299.335938 665.144531 300.402344 C 664.109375 301.46875 663.011719 302.488281 661.851562 303.457031 C 660.691406 304.425781 659.472656 305.339844 658.199219 306.199219 C 656.921875 307.058594 655.597656 307.859375 654.21875 308.605469 C 652.84375 309.347656 651.421875 310.03125 649.957031 310.648438 C 648.492188 311.269531 646.988281 311.824219 645.449219 312.3125 C 643.910156 312.800781 642.339844 313.226562 640.742188 313.582031 C 639.144531 313.9375 637.523438 314.222656 635.878906 314.4375 C 634.234375 314.65625 632.578125 314.804688 630.90625 314.882812 C 629.234375 314.957031 627.558594 314.964844 625.871094 314.902344 C 624.1875 314.839844 622.507812 314.703125 620.828125 314.5 C 619.148438 314.296875 617.476562 314.023438 615.816406 313.683594 C 614.15625 313.339844 612.515625 312.933594 610.894531 312.457031 C 609.269531 311.980469 607.671875 311.4375 606.101562 310.832031 C 604.527344 310.222656 602.988281 309.554688 601.484375 308.824219 C 599.980469 308.089844 598.515625 307.300781 597.09375 306.453125 C 595.667969 305.601562 594.292969 304.699219 592.964844 303.742188 C 591.636719 302.785156 590.363281 301.777344 589.140625 300.71875 C 587.921875 299.660156 586.761719 298.554688 585.660156 297.40625 C 584.558594 296.261719 583.523438 295.074219 582.550781 293.847656 C 581.582031 292.621094 580.679688 291.359375 579.851562 290.066406 C 579.019531 288.773438 578.261719 287.449219 577.578125 286.101562 C 576.894531 284.753906 576.289062 283.386719 575.761719 281.996094 C 575.230469 280.605469 574.78125 279.203125 574.414062 277.785156 C 574.042969 276.367188 573.753906 274.941406 573.546875 273.507812 C 573.339844 272.078125 573.214844 270.644531 573.171875 269.210938 C 573.132812 267.777344 573.171875 266.351562 573.296875 264.933594 C 573.417969 263.511719 573.625 262.105469 573.910156 260.714844 C 574.199219 259.320312 574.566406 257.949219 575.015625 256.59375 C 575.464844 255.242188 575.988281 253.914062 576.59375 252.617188 C 577.199219 251.316406 577.882812 250.050781 578.640625 248.816406 C 579.394531 247.582031 580.222656 246.386719 581.125 245.230469 C 582.023438 244.074219 582.992188 242.960938 584.027344 241.894531 C 585.0625 240.828125 586.164062 239.808594 587.324219 238.839844 C 588.484375 237.871094 589.703125 236.957031 590.976562 236.097656 C 592.253906 235.238281 593.578125 234.4375 594.953125 233.695312 C 596.332031 232.949219 597.753906 232.269531 599.21875 231.648438 C 600.683594 231.03125 602.183594 230.476562 603.726562 229.984375 C 605.265625 229.496094 606.832031 229.074219 608.433594 228.71875 C 610.03125 228.363281 611.652344 228.078125 613.296875 227.859375 C 614.941406 227.640625 616.597656 227.496094 618.269531 227.417969 C 619.941406 227.339844 621.617188 227.332031 623.300781 227.394531 C 624.984375 227.460938 626.667969 227.59375 628.347656 227.796875 C 630.027344 228 631.699219 228.273438 633.355469 228.613281 Z M 633.355469 228.613281 " fill-opacity="1" fill-rule="nonzero"/><path fill="#000000" d="M 601.199219 324.054688 L 629.335938 320.644531 L 600.761719 351.1875 Z M 601.199219 324.054688 " fill-opacity="1" fill-rule="nonzero"/><path fill="#f8b498" d="M 642.132812 300.457031 C 629.320312 334.054688 601.285156 331.167969 601.285156 331.167969 C 577.472656 330.804688 565.84375 315.511719 563.617188 296.859375 C 561.90625 282.515625 571.464844 261.265625 576.601562 249.140625 C 578.335938 245.050781 581.273438 241.535156 585.191406 239.40625 C 618.726562 221.160156 662.550781 246.921875 642.132812 300.457031 Z M 642.132812 300.457031 " fill-opacity="1" fill-rule="nonzero"/><path fill="#000000" d="M 580.460938 294.613281 L 577.261719 293.3125 C 576.203125 292.777344 575.75 291.511719 576.285156 290.328125 L 579.582031 285.015625 C 579.816406 284.636719 580.316406 284.523438 580.699219 284.753906 C 581.078125 284.988281 581.195312 285.488281 580.960938 285.871094 L 577.714844 291.082031 C 577.585938 291.375 577.707031 291.71875 577.9375 291.835938 L 581.074219 293.113281 C 581.488281 293.28125 581.6875 293.753906 581.519531 294.167969 C 581.390625 294.480469 581.089844 294.671875 580.769531 294.671875 C 580.664062 294.671875 580.558594 294.652344 580.460938 294.613281 Z M 580.460938 294.613281 " fill-opacity="1" fill-rule="nonzero"/><path fill="#000000" d="M 602.304688 282.605469 C 602.304688 283.042969 602.21875 283.460938 602.054688 283.867188 C 601.886719 284.269531 601.648438 284.625 601.339844 284.933594 C 601.03125 285.242188 600.671875 285.480469 600.269531 285.648438 C 599.867188 285.8125 599.445312 285.898438 599.011719 285.898438 C 598.574219 285.898438 598.152344 285.8125 597.75 285.648438 C 597.347656 285.480469 596.988281 285.242188 596.679688 284.933594 C 596.371094 284.625 596.132812 284.269531 595.96875 283.867188 C 595.800781 283.460938 595.714844 283.042969 595.714844 282.605469 C 595.714844 282.167969 595.800781 281.75 595.96875 281.347656 C 596.132812 280.941406 596.371094 280.585938 596.679688 280.277344 C 596.988281 279.96875 597.347656 279.730469 597.75 279.566406 C 598.152344 279.398438 598.574219 279.3125 599.011719 279.3125 C 599.445312 279.3125 599.867188 279.398438 600.269531 279.566406 C 600.671875 279.730469 601.03125 279.96875 601.339844 280.277344 C 601.648438 280.585938 601.886719 280.941406 602.054688 281.347656 C 602.21875 281.75 602.304688 282.167969 602.304688 282.605469 Z M 602.304688 282.605469 " fill-opacity="1" fill-rule="nonzero"/><path fill="#000000" d="M 573.914062 274.140625 C 572.25 273.863281 570.679688 274.984375 570.398438 276.644531 C 570.117188 278.308594 571.238281 279.882812 572.902344 280.164062 C 574.566406 280.441406 576.140625 279.320312 576.421875 277.65625 C 576.699219 275.996094 575.578125 274.421875 573.914062 274.140625 Z M 573.914062 274.140625 " fill-opacity="1" fill-rule="nonzero"/><path fill="#000000" d="M 575.796875 301.644531 C 575.421875 301.398438 575.320312 300.898438 575.5625 300.523438 C 575.808594 300.152344 576.308594 300.050781 576.683594 300.292969 C 576.769531 300.347656 585.527344 305.957031 594.28125 300.867188 C 594.671875 300.644531 595.164062 300.777344 595.386719 301.160156 C 595.609375 301.546875 595.480469 302.042969 595.09375 302.265625 C 592.039062 304.042969 589.015625 304.65625 586.304688 304.65625 C 580.46875 304.652344 576.0625 301.816406 575.796875 301.644531 Z M 575.796875 301.644531 " fill-opacity="1" fill-rule="nonzero"/><path fill="#000000" d="M 574.917969 256.695312 C 570.601562 256.738281 567.886719 258.882812 566.542969 260.335938 C 565.878906 261.050781 565.722656 262.09375 566.113281 262.988281 C 566.601562 264.09375 567.816406 264.695312 568.992188 264.402344 C 571.066406 263.890625 573.3125 263.953125 576.859375 263.96875 C 581.53125 263.984375 580.933594 260.132812 580.933594 260.132812 C 580.933594 260.132812 580.464844 256.640625 574.917969 256.695312 Z M 574.917969 256.695312 " fill-opacity="1" fill-rule="nonzero"/><path fill="#000000" d="M 605.363281 261.820312 C 610.664062 263.378906 615.550781 268.210938 616.722656 270.0625 C 617.304688 270.972656 617.152344 272.019531 616.371094 272.726562 C 615.40625 273.601562 613.714844 273.746094 612.363281 273.054688 C 609.980469 271.839844 604.941406 269.269531 600.570312 268.035156 C 594.820312 266.410156 596.828125 262.964844 596.828125 262.964844 C 596.828125 262.964844 598.554688 259.820312 605.363281 261.820312 Z M 605.363281 261.820312 " fill-opacity="1" fill-rule="nonzero"/><path fill="#000000" d="M 657.753906 267.078125 C 587.417969 259.242188 597.605469 231.289062 597.605469 231.289062 C 668.605469 227.445312 657.753906 267.082031 657.753906 267.078125 Z M 657.753906 267.078125 " fill-opacity="1" fill-rule="nonzero"/><path fill="#000000" d="M 671.601562 277.765625 L 633.96875 300.1875 L 637.125 257.546875 Z M 671.601562 277.765625 " fill-opacity="1" fill-rule="nonzero"/><path fill="#f8b498" d="M 652.492188 289.832031 C 644.980469 285.757812 635.582031 288.539062 631.5 296.046875 C 627.421875 303.554688 630.207031 312.949219 637.71875 317.023438 C 645.230469 321.097656 654.628906 318.316406 658.710938 310.808594 C 662.789062 303.300781 660.003906 293.910156 652.492188 289.832031 Z M 652.492188 289.832031 " fill-opacity="1" fill-rule="nonzero"/><path fill="#f8b498" d="M 638.890625 305.789062 C 643.289062 294.871094 652.859375 300.410156 652.859375 300.410156 " fill-opacity="1" fill-rule="nonzero"/><path fill="#f8b498" d="M 606.496094 386.660156 C 576.828125 386.660156 588.121094 367.105469 588.121094 367.105469 L 598.632812 365.429688 L 649.609375 365.921875 C 648.921875 369.023438 636.164062 386.660156 606.496094 386.660156 Z M 606.496094 386.660156 " fill-opacity="1" fill-rule="nonzero"/><path fill="#f8b498" d="M 627.984375 499.621094 L 589.75 504.894531 L 590.445312 523.988281 L 628.816406 531.875 C 628.816406 531.875 628.144531 506.199219 627.984375 499.621094 Z M 627.984375 499.621094 " fill-opacity="1" fill-rule="nonzero"/><path fill="#000000" d="M 565.144531 466.445312 C 565.085938 466.289062 559.542969 450.585938 562.621094 433.054688 C 565.671875 415.675781 568.253906 407.84375 568.28125 407.765625 C 568.421875 407.34375 568.878906 407.113281 569.304688 407.257812 C 569.726562 407.398438 569.957031 407.855469 569.816406 408.28125 C 569.789062 408.355469 567.246094 416.09375 564.21875 433.335938 C 561.214844 450.433594 566.613281 465.746094 566.667969 465.898438 C 566.820312 466.320312 566.601562 466.785156 566.179688 466.933594 C 566.089844 466.964844 565.996094 466.984375 565.90625 466.984375 C 565.570312 466.984375 565.261719 466.777344 565.144531 466.445312 Z M 565.144531 466.445312 " fill-opacity="1" fill-rule="nonzero"/><path fill="#000000" d="M 579.9375 462.210938 L 583.003906 456.179688 L 589.617188 459.390625 L 586.683594 465.4375 Z M 579.9375 462.210938 " fill-opacity="1" fill-rule="nonzero"/><path fill="#000000" d="M 547.871094 536.320312 L 546.867188 540.089844 C 546.648438 540.894531 547.246094 541.140625 547.726562 540.441406 L 549.984375 537.167969 C 549.636719 536.238281 548.8125 535.863281 547.871094 536.320312 Z M 547.871094 536.320312 " fill-opacity="1" fill-rule="nonzero"/><path fill="#007785" d="M 580.199219 461.640625 L 583.582031 463.265625 L 586.957031 464.867188 L 558.488281 525.46875 L 558.335938 525.789062 L 558.28125 525.761719 L 549.773438 537.601562 C 549.402344 536.730469 548.582031 536.367188 547.667969 536.738281 L 551.070312 522.804688 L 550.976562 522.761719 L 551.183594 522.328125 Z M 580.199219 461.640625 " fill-opacity="1" fill-rule="nonzero"/><path fill="#f8b498" d="M 582.726562 456.765625 L 583.5 455.234375 C 584.574219 453.109375 586.902344 452.117188 588.703125 453.015625 C 590.445312 453.886719 591.0625 456.21875 590.101562 458.308594 L 589.347656 459.953125 Z M 582.726562 456.765625 " fill-opacity="1" fill-rule="nonzero"/><path fill="#f8b498" d="M 530.933594 534.367188 C 532.496094 534.960938 534.234375 534.640625 535.464844 533.542969 L 546.277344 523.867188 C 551.277344 519.390625 559.199219 516.269531 565.601562 519.523438 C 567.582031 520.53125 569.1875 522.1875 570.976562 523.484375 C 575.519531 526.773438 581.003906 526.441406 586.238281 525.238281 C 589.933594 524.394531 593.46875 522.871094 596.648438 520.8125 C 597.609375 520.1875 598.542969 519.515625 599.429688 518.777344 C 599.566406 518.664062 600.359375 518.148438 600.367188 517.945312 C 600.367188 517.941406 600.949219 504.265625 600.949219 504.265625 L 560.902344 503.667969 C 553.453125 503.554688 546.386719 506.726562 541.527344 512.371094 L 528.984375 526.925781 C 526.898438 529.355469 527.910156 533.21875 530.933594 534.367188 Z M 530.933594 534.367188 " fill-opacity="1" fill-rule="nonzero"/><path fill="#000000" d="M 628.332031 499.558594 C 628.253906 499.121094 628.542969 498.699219 628.984375 498.621094 L 700.167969 485.640625 L 678.488281 439.757812 C 678.296875 439.351562 678.46875 438.871094 678.875 438.679688 C 679.28125 438.492188 679.761719 438.664062 679.953125 439.066406 L 702.082031 485.902344 C 702.191406 486.132812 702.183594 486.394531 702.070312 486.621094 C 701.953125 486.84375 701.742188 487 701.496094 487.046875 L 629.277344 500.210938 C 629.226562 500.222656 629.179688 500.226562 629.128906 500.226562 C 628.746094 500.222656 628.402344 499.949219 628.332031 499.558594 Z M 628.332031 499.558594 " fill-opacity="1" fill-rule="nonzero"/><path fill="#007785" d="M 393.714844 397.308594 L 571.871094 397.308594 L 613.832031 528 L 435.871094 528 Z M 393.714844 397.308594 " fill-opacity="1" fill-rule="nonzero"/><path fill="#007785" d="M 435.871094 524.839844 L 671.601562 524.839844 L 671.601562 541.519531 L 435.871094 541.519531 Z M 435.871094 524.839844 " fill-opacity="1" fill-rule="nonzero"/><path fill="#ffffff" d="M 506.789062 477.925781 C 506.789062 478.6875 506.714844 479.445312 506.566406 480.195312 C 506.414062 480.945312 506.195312 481.675781 505.902344 482.382812 C 505.609375 483.085938 505.25 483.757812 504.824219 484.394531 C 504.398438 485.03125 503.917969 485.617188 503.375 486.160156 C 502.835938 486.699219 502.246094 487.183594 501.609375 487.609375 C 500.972656 488.03125 500.300781 488.390625 499.59375 488.683594 C 498.886719 488.976562 498.160156 489.199219 497.410156 489.347656 C 496.660156 489.496094 495.902344 489.570312 495.136719 489.570312 C 494.371094 489.570312 493.613281 489.496094 492.863281 489.347656 C 492.113281 489.199219 491.382812 488.976562 490.675781 488.683594 C 489.96875 488.390625 489.296875 488.03125 488.660156 487.609375 C 488.023438 487.183594 487.4375 486.699219 486.894531 486.160156 C 486.355469 485.617188 485.871094 485.03125 485.445312 484.394531 C 485.019531 483.757812 484.660156 483.085938 484.367188 482.382812 C 484.078125 481.675781 483.855469 480.945312 483.707031 480.195312 C 483.554688 479.445312 483.480469 478.6875 483.480469 477.925781 C 483.480469 477.160156 483.554688 476.402344 483.707031 475.652344 C 483.855469 474.902344 484.078125 474.171875 484.367188 473.46875 C 484.660156 472.761719 485.019531 472.089844 485.445312 471.453125 C 485.871094 470.816406 486.355469 470.230469 486.894531 469.6875 C 487.4375 469.148438 488.023438 468.664062 488.660156 468.242188 C 489.296875 467.816406 489.96875 467.457031 490.675781 467.164062 C 491.382812 466.871094 492.113281 466.652344 492.863281 466.5 C 493.613281 466.351562 494.371094 466.277344 495.136719 466.277344 C 495.902344 466.277344 496.660156 466.351562 497.410156 466.5 C 498.160156 466.652344 498.886719 466.871094 499.59375 467.164062 C 500.300781 467.457031 500.972656 467.816406 501.609375 468.242188 C 502.246094 468.664062 502.835938 469.148438 503.375 469.6875 C 503.917969 470.230469 504.398438 470.816406 504.824219 471.453125 C 505.25 472.089844 505.609375 472.761719 505.902344 473.46875 C 506.195312 474.171875 506.414062 474.902344 506.566406 475.652344 C 506.714844 476.402344 506.789062 477.160156 506.789062 477.925781 Z M 506.789062 477.925781 " fill-opacity="1" fill-rule="nonzero"/><path fill="#f8b498" d="M 152.777344 263.4375 C 152.777344 263.4375 64.0625 381.777344 64.0625 381.777344 C 44.363281 409.097656 0.800781 379.726562 19.023438 351.230469 L 71.128906 273.382812 Z M 152.777344 263.4375 " fill-opacity="1" fill-rule="nonzero"/><path fill="#ff3e4d" d="M 123.535156 339.582031 L 44.113281 287.339844 C 63.914062 256.730469 114.039062 171.914062 146.9375 182.726562 C 236.367188 217.816406 138.257812 315.410156 123.535156 339.582031 Z M 123.535156 339.582031 " fill-opacity="1" fill-rule="nonzero"/><path fill="#ff3e4d" d="M 297.960938 278.164062 L 337.03125 269.160156 C 334.742188 185.5 277.824219 181.78125 277.824219 181.78125 Z M 297.960938 278.164062 " fill-opacity="1" fill-rule="nonzero"/><path fill="#ff3e4d" d="M 117.820312 236.003906 L 140.421875 399.84375 L 280.859375 399.84375 C 293.550781 344.507812 339.332031 198.617188 285.265625 183.289062 C 237.503906 169.75 202.304688 169.746094 138.6875 181.433594 C 118.785156 182.648438 123.65625 222.835938 117.820312 236.003906 Z M 117.820312 236.003906 " fill-opacity="1" fill-rule="nonzero"/><path fill="#000000" d="M 135.5625 330.648438 L 120.414062 266.667969 C 120.328125 266.300781 120.558594 265.929688 120.921875 265.84375 C 121.296875 265.757812 121.660156 265.984375 121.746094 266.351562 L 136.894531 330.332031 C 136.976562 330.699219 136.75 331.070312 136.386719 331.15625 C 136.332031 331.167969 136.28125 331.171875 136.226562 331.171875 C 135.917969 331.171875 135.640625 330.960938 135.5625 330.648438 Z M 135.5625 330.648438 " fill-opacity="1" fill-rule="nonzero"/><path fill="#000000" d="M 299.402344 309.277344 C 299.03125 309.222656 298.769531 308.875 298.824219 308.503906 L 307.941406 244.523438 C 307.996094 244.152344 308.316406 243.882812 308.71875 243.945312 C 309.089844 244 309.351562 244.347656 309.296875 244.71875 L 300.175781 308.699219 C 300.128906 309.039062 299.835938 309.285156 299.5 309.285156 C 299.46875 309.285156 299.4375 309.285156 299.402344 309.277344 Z M 299.402344 309.277344 " fill-opacity="1" fill-rule="nonzero"/><path fill="#f8b498" d="M 204.703125 336.914062 L 255.363281 338.644531 L 277.820312 290.910156 C 219.886719 267.789062 197.789062 306.902344 197.789062 306.902344 Z M 204.703125 336.914062 " fill-opacity="1" fill-rule="nonzero"/><path fill="#f8b498" d="M 207.195312 336.027344 L 51.242188 391.589844 L 42.140625 333.578125 L 201.320312 306.296875 Z M 207.195312 336.027344 " fill-opacity="1" fill-rule="nonzero"/><path fill="#000000" d="M 59.496094 330.605469 C 59.429688 330.230469 59.683594 329.878906 60.054688 329.816406 L 98.097656 323.296875 C 98.492188 323.234375 98.824219 323.484375 98.882812 323.855469 C 98.945312 324.226562 98.695312 324.578125 98.324219 324.644531 L 60.28125 331.164062 C 60.242188 331.171875 60.203125 331.171875 60.167969 331.171875 C 59.839844 331.171875 59.546875 330.9375 59.496094 330.605469 Z M 59.496094 330.605469 " fill-opacity="1" fill-rule="nonzero"/><path fill="#ffffff" d="M 424.429688 265.753906 C 377.390625 249.8125 262.378906 269.160156 262.378906 269.160156 L 198.285156 419.570312 L 208.835938 431.289062 Z M 424.429688 265.753906 " fill-opacity="1" fill-rule="nonzero"/><path fill="#000000" d="M 356.238281 396.9375 C 346.578125 415.675781 320.035156 415.796875 320.035156 415.796875 L 393.550781 269.957031 L 424.425781 265.75 Z M 356.238281 396.9375 " fill-opacity="1" fill-rule="nonzero"/><path fill="#007785" d="M 324.988281 415.113281 L 208.835938 431.289062 L 271.367188 280.523438 L 399.425781 269.160156 Z M 324.988281 415.113281 " fill-opacity="1" fill-rule="nonzero"/><path fill="#000000" d="M 324.988281 415.113281 L 208.835938 431.289062 L 271.367188 280.523438 L 399.425781 269.160156 Z M 324.988281 415.113281 " fill-opacity="0.4588" fill-rule="nonzero"/><path fill="#ffffff" d="M 365.960938 262.171875 L 394.597656 196.445312 L 409.359375 196.445312 L 424.425781 265.75 Z M 365.960938 262.171875 " fill-opacity="1" fill-rule="nonzero"/><path fill="#f8b498" d="M 373.675781 363.117188 L 342.050781 340.011719 C 340.191406 338.652344 339.605469 336.132812 340.6875 334.09375 C 341.851562 331.894531 344.546875 331.003906 346.792969 332.074219 L 370.246094 343.261719 L 342.757812 323.257812 C 341.046875 322.011719 340.484375 319.71875 341.425781 317.828125 C 342.503906 315.65625 345.152344 314.792969 347.304688 315.90625 L 374.304688 329.890625 L 344.253906 306.378906 C 342.191406 304.765625 341.652344 301.867188 343 299.621094 C 344.519531 297.082031 347.847656 296.324219 350.320312 297.949219 L 382.742188 319.273438 L 361.289062 298.675781 C 359.71875 297.167969 359.714844 294.65625 361.28125 293.144531 C 362.605469 291.863281 364.65625 291.703125 366.164062 292.761719 L 402.3125 318.183594 C 402.3125 318.183594 416.296875 329.859375 401.863281 351.863281 C 387.429688 373.867188 370.390625 369.707031 370.390625 369.707031 Z M 373.675781 363.117188 " fill-opacity="1" fill-rule="nonzero"/><path fill="#000000" d="M 280.511719 98.589844 C 313.265625 67.121094 277.910156 54.222656 277.910156 54.222656 Z M 280.511719 98.589844 " fill-opacity="1" fill-rule="nonzero"/><path fill="#f8b498" d="M 215.199219 105.851562 L 195.039062 185.011719 L 242.164062 186.546875 L 249.773438 143.023438 Z M 215.199219 105.851562 " fill-opacity="1" fill-rule="nonzero"/><path fill="#000000" d="M 248.972656 147.882812 L 212.425781 129.128906 C 211.34375 158.636719 245.121094 169.566406 245.121094 169.566406 Z M 248.972656 147.882812 " fill-opacity="1" fill-rule="nonzero"/><path fill="#f8b498" d="M 203.085938 102.769531 C 201.613281 144.910156 226.117188 150.40625 226.117188 150.40625 C 247.53125 160.140625 263.984375 152.574219 273.75 136.683594 C 281.425781 124.191406 283.226562 93.347656 283.644531 80.71875 C 283.773438 76.9375 280.382812 65.730469 278.226562 62.621094 C 256.242188 30.9375 205.277344 39.957031 203.085938 102.769531 Z M 203.085938 102.769531 " fill-opacity="1" fill-rule="nonzero"/><path fill="#000000" d="M 271.242188 110.328125 C 272.921875 110.289062 274.316406 111.621094 274.355469 113.300781 C 274.390625 114.980469 273.058594 116.375 271.378906 116.410156 C 269.699219 116.449219 268.304688 115.117188 268.269531 113.4375 C 268.230469 111.757812 269.5625 110.367188 271.242188 110.328125 Z M 271.242188 110.328125 " fill-opacity="1" fill-rule="nonzero"/><path fill="#000000" d="M 244.878906 104.660156 C 246.558594 104.621094 247.953125 105.953125 247.992188 107.632812 C 248.027344 109.3125 246.695312 110.703125 245.019531 110.742188 C 243.339844 110.777344 241.941406 109.449219 241.90625 107.769531 C 241.867188 106.089844 243.195312 104.699219 244.878906 104.660156 Z M 244.878906 104.660156 " fill-opacity="1" fill-rule="nonzero"/><path fill="#000000" d="M 256.078125 125.277344 C 256.066406 124.789062 256.449219 124.382812 256.9375 124.371094 L 261.054688 124.253906 L 260.273438 114.414062 C 260.234375 113.929688 260.597656 113.503906 261.082031 113.464844 C 261.5625 113.390625 261.988281 113.789062 262.03125 114.273438 L 262.882812 125.039062 C 262.898438 125.277344 262.816406 125.515625 262.660156 125.695312 C 262.5 125.875 262.269531 125.984375 262.027344 125.988281 L 256.980469 126.132812 C 256.972656 126.132812 256.964844 126.132812 256.957031 126.132812 C 256.476562 126.128906 256.085938 125.75 256.078125 125.277344 Z M 256.078125 125.277344 " fill-opacity="1" fill-rule="nonzero"/><path fill="#000000" d="M 250.648438 86.597656 C 241.953125 84.625 236.492188 87.15625 233.019531 88.910156 C 231.324219 89.761719 230.265625 91.480469 230.785156 93.304688 C 231.324219 95.210938 233.277344 96.285156 235.207031 95.820312 C 240.382812 94.574219 245.863281 94.636719 249.601562 94.921875 C 252.078125 95.109375 254.167969 93.125 254.109375 90.640625 C 254.066406 88.640625 252.597656 87.039062 250.648438 86.597656 Z M 250.648438 86.597656 " fill-opacity="1" fill-rule="nonzero"/><path fill="#000000" d="M 270.410156 91.066406 C 276.253906 91.855469 278.882812 95.890625 280.515625 98.59375 C 281.3125 99.910156 281.484375 101.84375 280.664062 103.402344 C 279.8125 105.027344 278.324219 105.445312 277.277344 104.421875 C 274.46875 101.675781 271.113281 100.070312 268.753906 99.203125 C 267.191406 98.625 266.46875 96.128906 267.1875 93.8125 C 267.761719 91.949219 269.097656 90.890625 270.410156 91.066406 Z M 270.410156 91.066406 " fill-opacity="1" fill-rule="nonzero"/><path fill="#000000" d="M 192.332031 74.433594 C 194.410156 63.203125 200.910156 53.105469 211.808594 46.867188 C 225.773438 38.871094 243.914062 36.972656 260.140625 38.890625 C 273.71875 40.496094 285.195312 47.222656 288.578125 59.496094 C 293.621094 77.796875 277.574219 83.550781 269.492188 83.128906 C 265.441406 82.917969 261.609375 81.609375 258.121094 79.773438 C 245.566406 73.160156 227.21875 70.171875 227.21875 70.171875 C 224.640625 98.976562 202.839844 112.691406 202.839844 112.691406 C 202.839844 112.691406 189.824219 87.96875 192.332031 74.433594 Z M 192.332031 74.433594 " fill-opacity="1" fill-rule="nonzero"/><path fill="#f8b498" d="M 201.03125 86.433594 C 209.226562 85.941406 216.265625 92.179688 216.757812 100.371094 C 217.25 108.558594 211.007812 115.59375 202.8125 116.085938 C 194.617188 116.578125 187.578125 110.339844 187.085938 102.148438 C 186.59375 93.960938 192.839844 86.921875 201.03125 86.433594 Z M 201.03125 86.433594 " fill-opacity="1" fill-rule="nonzero"/><path fill="#000000" d="M 206.890625 107.296875 C 206.882812 103.738281 205.882812 100.984375 203.921875 99.109375 C 200.890625 96.210938 196.46875 96.363281 196.449219 96.359375 C 196.023438 96.386719 195.550781 96.007812 195.53125 95.519531 C 195.507812 95.035156 195.886719 94.625 196.371094 94.601562 C 196.574219 94.585938 201.542969 94.417969 205.125 97.828125 C 207.453125 100.046875 208.640625 103.230469 208.652344 107.296875 C 208.652344 107.78125 208.257812 108.179688 207.769531 108.179688 C 207.289062 108.179688 206.894531 107.785156 206.890625 107.296875 Z M 206.890625 107.296875 " fill-opacity="1" fill-rule="nonzero"/><path fill="#f8b498" d="M 265.832031 181.535156 C 265.832031 181.535156 253.785156 209.964844 222.40625 208.554688 C 191.027344 207.144531 178.9375 175.207031 178.9375 175.207031 C 227.339844 167.269531 265.832031 181.535156 265.832031 181.535156 Z M 265.832031 181.535156 " fill-opacity="1" fill-rule="nonzero"/><path fill="#000000" d="M 241.140625 132.632812 C 240.894531 132.214844 241.035156 131.675781 241.457031 131.429688 C 241.878906 131.183594 242.414062 131.324219 242.660156 131.742188 C 247.226562 139.53125 259.128906 136.488281 259.25 136.457031 C 259.699219 136.328125 260.199219 136.613281 260.328125 137.082031 C 260.453125 137.550781 260.171875 138.035156 259.703125 138.160156 C 259.46875 138.222656 256.976562 138.863281 253.792969 138.863281 C 249.570312 138.863281 244.132812 137.738281 241.140625 132.632812 Z M 241.140625 132.632812 " fill-opacity="1" fill-rule="nonzero"/><path fill="#ffffff" d="M 198.28125 172.273438 L 223.605469 199.121094 L 244.285156 174.410156 L 268.558594 177.828125 L 254.113281 232.921875 L 223.863281 211.46875 L 192.011719 227.21875 L 174.246094 175.78125 Z M 198.28125 172.273438 " fill-opacity="1" fill-rule="nonzero"/><path fill="#000000" d="M 223.863281 287.0625 C 223.476562 287.0625 223.164062 286.75 223.164062 286.367188 L 223.164062 213.03125 C 223.164062 212.644531 223.476562 212.332031 223.863281 212.332031 C 224.246094 212.332031 224.558594 212.644531 224.558594 213.03125 L 224.558594 286.367188 C 224.558594 286.75 224.246094 287.0625 223.863281 287.0625 Z M 223.863281 287.0625 " fill-opacity="1" fill-rule="nonzero"/><path fill="#ff3e4d" d="M 577.953125 303.652344 C 578.832031 304.921875 580.285156 305.464844 581.675781 305.769531 C 584.746094 306.445312 588.097656 306.222656 590.757812 304.34375 C 591.363281 303.914062 591.96875 303.324219 592.066406 302.519531 C 592.160156 301.734375 591.71875 300.964844 591.132812 300.542969 C 590.546875 300.125 589.84375 299.992188 589.152344 299.914062 C 586.292969 299.601562 583.429688 300.128906 580.570312 299.953125 C 579.617188 299.894531 578.339844 299.238281 577.664062 300.121094 C 576.972656 301.027344 577.378906 302.828125 577.953125 303.652344 Z M 577.953125 303.652344 " fill-opacity="0.5569" fill-rule="nonzero"/></svg>