<svg xmlns="http://www.w3.org/2000/svg" xmlns:xlink="http://www.w3.org/1999/xlink" width="1029" zoomAndPan="magnify" viewBox="0 0 771.75 619.499986" height="826" preserveAspectRatio="xMidYMid meet" version="1.0"><defs><clipPath id="ffc49c2387"><path d="M 0.1875 569 L 354 569 L 354 594.617188 L 0.1875 594.617188 Z M 0.1875 569 " clip-rule="nonzero"/></clipPath></defs><path fill="#000000" d="M 58.050781 360.121094 C 58.050781 360.917969 58.011719 361.714844 57.933594 362.507812 C 57.855469 363.304688 57.738281 364.089844 57.582031 364.875 C 57.429688 365.65625 57.234375 366.429688 57.003906 367.191406 C 56.773438 367.957031 56.503906 368.707031 56.199219 369.445312 C 55.894531 370.179688 55.550781 370.902344 55.175781 371.605469 C 54.800781 372.308594 54.390625 372.992188 53.949219 373.65625 C 53.503906 374.320312 53.03125 374.960938 52.523438 375.578125 C 52.019531 376.195312 51.484375 376.785156 50.917969 377.347656 C 50.355469 377.914062 49.765625 378.449219 49.148438 378.953125 C 48.53125 379.460938 47.894531 379.933594 47.230469 380.378906 C 46.566406 380.820312 45.882812 381.230469 45.179688 381.609375 C 44.476562 381.984375 43.757812 382.324219 43.019531 382.628906 C 42.28125 382.933594 41.53125 383.203125 40.769531 383.433594 C 40.007812 383.667969 39.234375 383.859375 38.453125 384.015625 C 37.667969 384.171875 36.882812 384.289062 36.089844 384.367188 C 35.292969 384.445312 34.5 384.484375 33.703125 384.484375 C 32.902344 384.484375 32.109375 384.445312 31.316406 384.367188 C 30.519531 384.289062 29.734375 384.171875 28.949219 384.015625 C 28.167969 383.859375 27.394531 383.667969 26.632812 383.433594 C 25.871094 383.203125 25.121094 382.933594 24.382812 382.628906 C 23.644531 382.324219 22.925781 381.984375 22.222656 381.609375 C 21.519531 381.230469 20.835938 380.820312 20.171875 380.378906 C 19.511719 379.933594 18.871094 379.460938 18.253906 378.953125 C 17.636719 378.449219 17.046875 377.914062 16.484375 377.347656 C 15.917969 376.785156 15.382812 376.195312 14.878906 375.578125 C 14.371094 374.960938 13.898438 374.320312 13.457031 373.65625 C 13.011719 372.992188 12.601562 372.308594 12.226562 371.605469 C 11.851562 370.902344 11.511719 370.179688 11.207031 369.445312 C 10.898438 368.707031 10.632812 367.957031 10.398438 367.191406 C 10.167969 366.429688 9.976562 365.65625 9.820312 364.875 C 9.664062 364.089844 9.546875 363.304688 9.46875 362.507812 C 9.390625 361.714844 9.351562 360.917969 9.351562 360.121094 C 9.351562 359.324219 9.390625 358.527344 9.46875 357.734375 C 9.546875 356.9375 9.664062 356.152344 9.820312 355.367188 C 9.976562 354.585938 10.167969 353.8125 10.398438 353.046875 C 10.632812 352.285156 10.898438 351.535156 11.207031 350.796875 C 11.511719 350.058594 11.851562 349.339844 12.226562 348.636719 C 12.601562 347.933594 13.011719 347.25 13.457031 346.585938 C 13.898438 345.921875 14.371094 345.28125 14.878906 344.664062 C 15.382812 344.046875 15.917969 343.457031 16.484375 342.894531 C 17.046875 342.328125 17.636719 341.792969 18.253906 341.289062 C 18.871094 340.78125 19.511719 340.308594 20.171875 339.863281 C 20.835938 339.421875 21.519531 339.011719 22.222656 338.632812 C 22.925781 338.257812 23.644531 337.917969 24.382812 337.613281 C 25.121094 337.308594 25.871094 337.039062 26.632812 336.804688 C 27.394531 336.574219 28.167969 336.382812 28.949219 336.226562 C 29.734375 336.070312 30.519531 335.953125 31.316406 335.875 C 32.109375 335.796875 32.902344 335.757812 33.703125 335.757812 C 34.5 335.757812 35.292969 335.796875 36.089844 335.875 C 36.882812 335.953125 37.667969 336.070312 38.453125 336.226562 C 39.234375 336.382812 40.007812 336.574219 40.769531 336.804688 C 41.53125 337.039062 42.28125 337.308594 43.019531 337.613281 C 43.757812 337.917969 44.476562 338.257812 45.179688 338.632812 C 45.882812 339.011719 46.566406 339.421875 47.230469 339.863281 C 47.894531 340.308594 48.53125 340.78125 49.148438 341.289062 C 49.765625 341.792969 50.355469 342.328125 50.917969 342.894531 C 51.484375 343.457031 52.019531 344.046875 52.523438 344.664062 C 53.03125 345.28125 53.503906 345.921875 53.949219 346.585938 C 54.390625 347.25 54.800781 347.933594 55.175781 348.636719 C 55.550781 349.339844 55.894531 350.058594 56.199219 350.796875 C 56.503906 351.535156 56.773438 352.285156 57.003906 353.046875 C 57.234375 353.8125 57.429688 354.585938 57.582031 355.367188 C 57.738281 356.152344 57.855469 356.9375 57.933594 357.734375 C 58.011719 358.527344 58.050781 359.324219 58.050781 360.121094 Z M 58.050781 360.121094 " fill-opacity="1" fill-rule="nonzero"/><path fill="#ff652f" d="M 148.421875 427.585938 L 170.90625 437.875 C 179.257812 441.695312 184.902344 449.730469 185.664062 458.890625 L 190.765625 520.296875 L 185.5 583.9375 L 89.355469 583.9375 L 61.78125 500.851562 C 60.550781 497.148438 59.71875 493.324219 59.300781 489.441406 L 56.730469 465.75 C 54.5625 445.753906 69.160156 427.847656 89.171875 425.953125 Z M 148.421875 427.585938 " fill-opacity="1" fill-rule="nonzero"/><path fill="#ff652f" d="M 69.460938 360.503906 C 69.460938 361.355469 69.378906 362.199219 69.210938 363.03125 C 69.046875 363.867188 68.800781 364.675781 68.476562 365.460938 C 68.148438 366.246094 67.75 366.992188 67.28125 367.699219 C 66.808594 368.40625 66.269531 369.0625 65.667969 369.664062 C 65.070312 370.265625 64.414062 370.800781 63.707031 371.273438 C 63 371.746094 62.253906 372.144531 61.46875 372.472656 C 60.683594 372.796875 59.875 373.042969 59.042969 373.207031 C 58.207031 373.375 57.367188 373.457031 56.515625 373.457031 C 55.667969 373.457031 54.824219 373.375 53.992188 373.207031 C 53.15625 373.042969 52.347656 372.796875 51.5625 372.472656 C 50.777344 372.144531 50.03125 371.746094 49.324219 371.273438 C 48.617188 370.800781 47.964844 370.265625 47.363281 369.664062 C 46.761719 369.0625 46.226562 368.40625 45.753906 367.699219 C 45.28125 366.992188 44.882812 366.246094 44.558594 365.460938 C 44.230469 364.675781 43.988281 363.867188 43.820312 363.03125 C 43.65625 362.199219 43.570312 361.355469 43.570312 360.503906 C 43.570312 359.65625 43.65625 358.8125 43.820312 357.980469 C 43.988281 357.144531 44.230469 356.335938 44.558594 355.550781 C 44.882812 354.761719 45.28125 354.015625 45.753906 353.308594 C 46.226562 352.601562 46.761719 351.949219 47.363281 351.347656 C 47.964844 350.746094 48.617188 350.207031 49.324219 349.738281 C 50.03125 349.265625 50.777344 348.863281 51.5625 348.539062 C 52.347656 348.214844 53.15625 347.96875 53.992188 347.800781 C 54.824219 347.636719 55.667969 347.554688 56.515625 347.554688 C 57.367188 347.554688 58.207031 347.636719 59.042969 347.800781 C 59.875 347.96875 60.683594 348.214844 61.46875 348.539062 C 62.253906 348.863281 63 349.265625 63.707031 349.738281 C 64.414062 350.207031 65.070312 350.746094 65.667969 351.347656 C 66.269531 351.949219 66.808594 352.601562 67.28125 353.308594 C 67.75 354.015625 68.148438 354.761719 68.476562 355.550781 C 68.800781 356.335938 69.046875 357.144531 69.210938 357.980469 C 69.378906 358.8125 69.460938 359.65625 69.460938 360.503906 Z M 69.460938 360.503906 " fill-opacity="1" fill-rule="nonzero"/><path fill="#000000" d="M 115.296875 294.175781 C 115.296875 294.972656 115.257812 295.769531 115.179688 296.5625 C 115.101562 297.355469 114.984375 298.144531 114.828125 298.929688 C 114.671875 299.710938 114.480469 300.484375 114.246094 301.246094 C 114.015625 302.011719 113.746094 302.761719 113.441406 303.5 C 113.136719 304.234375 112.796875 304.957031 112.421875 305.660156 C 112.042969 306.363281 111.636719 307.046875 111.191406 307.710938 C 110.75 308.375 110.273438 309.015625 109.769531 309.628906 C 109.261719 310.246094 108.726562 310.839844 108.164062 311.402344 C 107.601562 311.964844 107.007812 312.5 106.394531 313.007812 C 105.777344 313.515625 105.136719 313.988281 104.472656 314.433594 C 103.8125 314.875 103.128906 315.285156 102.425781 315.660156 C 101.722656 316.039062 101 316.378906 100.265625 316.683594 C 99.527344 316.988281 98.777344 317.257812 98.015625 317.488281 C 97.25 317.722656 96.476562 317.914062 95.695312 318.070312 C 94.914062 318.226562 94.125 318.34375 93.332031 318.421875 C 92.539062 318.5 91.742188 318.539062 90.945312 318.539062 C 90.148438 318.539062 89.351562 318.5 88.558594 318.421875 C 87.765625 318.34375 86.976562 318.226562 86.195312 318.070312 C 85.414062 317.914062 84.640625 317.722656 83.878906 317.488281 C 83.113281 317.257812 82.363281 316.988281 81.628906 316.683594 C 80.890625 316.378906 80.171875 316.039062 79.46875 315.660156 C 78.765625 315.285156 78.082031 314.875 77.417969 314.433594 C 76.753906 313.988281 76.113281 313.515625 75.5 313.007812 C 74.882812 312.5 74.292969 311.964844 73.726562 311.402344 C 73.164062 310.839844 72.628906 310.246094 72.121094 309.632812 C 71.617188 309.015625 71.140625 308.375 70.699219 307.710938 C 70.257812 307.046875 69.847656 306.363281 69.472656 305.660156 C 69.09375 304.957031 68.753906 304.234375 68.449219 303.5 C 68.144531 302.761719 67.875 302.011719 67.644531 301.246094 C 67.414062 300.484375 67.21875 299.710938 67.0625 298.929688 C 66.90625 298.144531 66.792969 297.355469 66.714844 296.5625 C 66.632812 295.769531 66.59375 294.972656 66.59375 294.175781 C 66.59375 293.375 66.632812 292.582031 66.714844 291.785156 C 66.792969 290.992188 66.90625 290.203125 67.0625 289.421875 C 67.21875 288.640625 67.414062 287.867188 67.644531 287.101562 C 67.875 286.339844 68.144531 285.589844 68.449219 284.851562 C 68.753906 284.113281 69.09375 283.394531 69.472656 282.691406 C 69.847656 281.984375 70.257812 281.300781 70.699219 280.640625 C 71.140625 279.976562 71.617188 279.335938 72.121094 278.71875 C 72.628906 278.101562 73.164062 277.511719 73.726562 276.945312 C 74.292969 276.382812 74.882812 275.847656 75.5 275.339844 C 76.113281 274.835938 76.753906 274.359375 77.417969 273.917969 C 78.082031 273.472656 78.765625 273.0625 79.46875 272.6875 C 80.171875 272.3125 80.890625 271.972656 81.628906 271.664062 C 82.363281 271.359375 83.113281 271.09375 83.878906 270.859375 C 84.640625 270.628906 85.414062 270.433594 86.195312 270.28125 C 86.976562 270.125 87.765625 270.007812 88.558594 269.929688 C 89.351562 269.851562 90.148438 269.8125 90.945312 269.8125 C 91.742188 269.8125 92.539062 269.851562 93.332031 269.929688 C 94.125 270.007812 94.914062 270.125 95.695312 270.28125 C 96.476562 270.433594 97.25 270.628906 98.015625 270.859375 C 98.777344 271.09375 99.527344 271.359375 100.265625 271.664062 C 101 271.972656 101.722656 272.3125 102.425781 272.6875 C 103.128906 273.0625 103.8125 273.472656 104.472656 273.917969 C 105.136719 274.359375 105.777344 274.835938 106.394531 275.339844 C 107.007812 275.847656 107.601562 276.382812 108.164062 276.945312 C 108.726562 277.511719 109.261719 278.101562 109.769531 278.71875 C 110.273438 279.335938 110.75 279.976562 111.191406 280.640625 C 111.636719 281.300781 112.042969 281.984375 112.421875 282.691406 C 112.796875 283.394531 113.136719 284.113281 113.441406 284.851562 C 113.746094 285.589844 114.015625 286.339844 114.246094 287.101562 C 114.480469 287.867188 114.671875 288.640625 114.828125 289.421875 C 114.984375 290.203125 115.101562 290.992188 115.179688 291.785156 C 115.257812 292.582031 115.296875 293.375 115.296875 294.175781 Z M 115.296875 294.175781 " fill-opacity="1" fill-rule="nonzero"/><path fill="#ff652f" d="M 105.640625 316.9375 C 105.640625 317.789062 105.558594 318.632812 105.390625 319.464844 C 105.226562 320.300781 104.980469 321.109375 104.65625 321.894531 C 104.328125 322.679688 103.929688 323.425781 103.457031 324.132812 C 102.988281 324.839844 102.449219 325.496094 101.847656 326.097656 C 101.246094 326.699219 100.59375 327.234375 99.886719 327.707031 C 99.179688 328.179688 98.433594 328.578125 97.648438 328.90625 C 96.863281 329.230469 96.054688 329.476562 95.222656 329.640625 C 94.386719 329.808594 93.546875 329.890625 92.695312 329.890625 C 91.847656 329.890625 91.003906 329.808594 90.171875 329.640625 C 89.335938 329.476562 88.527344 329.230469 87.742188 328.90625 C 86.957031 328.578125 86.210938 328.179688 85.503906 327.707031 C 84.796875 327.234375 84.144531 326.699219 83.542969 326.097656 C 82.941406 325.496094 82.40625 324.839844 81.933594 324.132812 C 81.460938 323.425781 81.0625 322.679688 80.738281 321.894531 C 80.410156 321.109375 80.164062 320.300781 80 319.464844 C 79.835938 318.632812 79.75 317.789062 79.75 316.9375 C 79.75 316.089844 79.835938 315.246094 80 314.410156 C 80.164062 313.578125 80.410156 312.769531 80.738281 311.980469 C 81.0625 311.195312 81.460938 310.449219 81.933594 309.742188 C 82.40625 309.035156 82.941406 308.382812 83.542969 307.78125 C 84.144531 307.179688 84.796875 306.640625 85.503906 306.167969 C 86.210938 305.695312 86.957031 305.296875 87.742188 304.972656 C 88.527344 304.648438 89.335938 304.402344 90.171875 304.234375 C 91.003906 304.070312 91.847656 303.988281 92.695312 303.988281 C 93.546875 303.988281 94.386719 304.070312 95.222656 304.234375 C 96.054688 304.402344 96.863281 304.648438 97.648438 304.972656 C 98.433594 305.296875 99.179688 305.695312 99.886719 306.167969 C 100.59375 306.640625 101.246094 307.179688 101.847656 307.78125 C 102.449219 308.382812 102.988281 309.035156 103.457031 309.742188 C 103.929688 310.449219 104.328125 311.195312 104.65625 311.980469 C 104.980469 312.769531 105.226562 313.578125 105.390625 314.410156 C 105.558594 315.246094 105.640625 316.089844 105.640625 316.9375 Z M 105.640625 316.9375 " fill-opacity="1" fill-rule="nonzero"/><path fill="#000000" d="M 145.9375 339.019531 C 145.9375 339.019531 171.492188 315.398438 142.097656 300.171875 C 122.027344 289.777344 90.773438 308.324219 90.773438 308.324219 Z M 145.9375 339.019531 " fill-opacity="1" fill-rule="nonzero"/><path fill="#000000" d="M 154.207031 342.6875 C 154.675781 344.285156 155.0625 345.902344 155.363281 347.539062 C 155.667969 349.179688 155.886719 350.828125 156.019531 352.492188 C 156.152344 354.152344 156.199219 355.820312 156.160156 357.492188 C 156.125 359.164062 156.003906 360.832031 155.796875 362.496094 C 155.589844 364.160156 155.296875 365.808594 154.921875 367.449219 C 154.546875 369.089844 154.089844 370.710938 153.546875 372.3125 C 153.007812 373.914062 152.390625 375.488281 151.691406 377.035156 C 150.992188 378.582031 150.214844 380.09375 149.363281 381.570312 C 148.511719 383.046875 147.589844 384.480469 146.59375 385.875 C 145.597656 387.265625 144.535156 388.613281 143.402344 389.90625 C 142.273438 391.203125 141.082031 392.445312 139.828125 393.628906 C 138.574219 394.816406 137.261719 395.941406 135.894531 397.007812 C 134.53125 398.074219 133.113281 399.070312 131.648438 400.003906 C 130.183594 400.941406 128.679688 401.804688 127.128906 402.597656 C 125.578125 403.390625 123.996094 404.109375 122.375 404.753906 C 120.757812 405.398438 119.113281 405.96875 117.4375 406.460938 C 115.765625 406.949219 114.074219 407.363281 112.363281 407.695312 C 110.652344 408.027344 108.933594 408.277344 107.199219 408.449219 C 105.46875 408.617188 103.734375 408.707031 101.996094 408.714844 C 100.261719 408.71875 98.527344 408.644531 96.804688 408.488281 C 95.078125 408.328125 93.367188 408.089844 91.671875 407.769531 C 89.976562 407.449219 88.304688 407.050781 86.652344 406.574219 C 85 406.09375 83.378906 405.535156 81.789062 404.902344 C 80.199219 404.269531 78.648438 403.5625 77.132812 402.78125 C 75.617188 401.996094 74.148438 401.144531 72.726562 400.222656 C 71.304688 399.296875 69.933594 398.308594 68.613281 397.253906 C 67.292969 396.199219 66.035156 395.082031 64.832031 393.90625 C 63.628906 392.726562 62.492188 391.496094 61.417969 390.207031 C 60.347656 388.917969 59.34375 387.582031 58.410156 386.195312 C 57.476562 384.808594 56.617188 383.382812 55.828125 381.910156 C 55.042969 380.441406 54.335938 378.933594 53.707031 377.390625 C 53.074219 375.851562 52.527344 374.28125 52.058594 372.683594 C 51.589844 371.085938 51.203125 369.46875 50.902344 367.832031 C 50.597656 366.191406 50.378906 364.542969 50.246094 362.878906 C 50.113281 361.21875 50.066406 359.550781 50.105469 357.878906 C 50.140625 356.207031 50.261719 354.542969 50.46875 352.878906 C 50.675781 351.214844 50.96875 349.5625 51.34375 347.921875 C 51.71875 346.28125 52.175781 344.660156 52.71875 343.058594 C 53.257812 341.457031 53.875 339.882812 54.574219 338.339844 C 55.273438 336.792969 56.050781 335.28125 56.902344 333.804688 C 57.753906 332.324219 58.675781 330.890625 59.671875 329.5 C 60.667969 328.105469 61.730469 326.761719 62.863281 325.464844 C 63.992188 324.167969 65.183594 322.925781 66.4375 321.742188 C 67.695312 320.554688 69.003906 319.429688 70.371094 318.363281 C 71.734375 317.300781 73.152344 316.300781 74.617188 315.367188 C 76.082031 314.433594 77.589844 313.570312 79.136719 312.777344 C 80.6875 311.980469 82.269531 311.261719 83.890625 310.617188 C 85.507812 309.972656 87.152344 309.402344 88.828125 308.914062 C 90.5 308.421875 92.191406 308.007812 93.902344 307.675781 C 95.613281 307.34375 97.332031 307.09375 99.066406 306.921875 C 100.796875 306.753906 102.53125 306.664062 104.269531 306.660156 C 106.007812 306.652344 107.738281 306.726562 109.460938 306.886719 C 111.1875 307.042969 112.898438 307.28125 114.59375 307.601562 C 116.289062 307.921875 117.960938 308.320312 119.613281 308.800781 C 121.265625 309.277344 122.886719 309.835938 124.476562 310.46875 C 126.066406 311.101562 127.617188 311.808594 129.132812 312.59375 C 130.648438 313.375 132.117188 314.226562 133.539062 315.152344 C 134.960938 316.074219 136.332031 317.0625 137.652344 318.117188 C 138.972656 319.171875 140.230469 320.289062 141.433594 321.46875 C 142.636719 322.644531 143.773438 323.875 144.847656 325.164062 C 145.917969 326.453125 146.921875 327.789062 147.855469 329.175781 C 148.789062 330.5625 149.648438 331.988281 150.4375 333.460938 C 151.222656 334.933594 151.929688 336.4375 152.558594 337.980469 C 153.191406 339.519531 153.738281 341.089844 154.207031 342.6875 Z M 154.207031 342.6875 " fill-opacity="1" fill-rule="nonzero"/><path fill="#ffc3aa" d="M 170.066406 361.949219 C 170.066406 362.855469 169.976562 363.75 169.800781 364.640625 C 169.625 365.527344 169.363281 366.390625 169.019531 367.226562 C 168.671875 368.0625 168.246094 368.855469 167.746094 369.609375 C 167.242188 370.359375 166.671875 371.058594 166.03125 371.695312 C 165.390625 372.335938 164.695312 372.910156 163.945312 373.410156 C 163.191406 373.914062 162.398438 374.339844 161.5625 374.683594 C 160.726562 375.03125 159.863281 375.292969 158.976562 375.46875 C 158.089844 375.644531 157.195312 375.734375 156.289062 375.734375 C 155.386719 375.734375 154.488281 375.644531 153.601562 375.46875 C 152.714844 375.292969 151.851562 375.03125 151.015625 374.683594 C 150.183594 374.339844 149.386719 373.914062 148.636719 373.410156 C 147.882812 372.910156 147.1875 372.335938 146.546875 371.695312 C 145.910156 371.058594 145.335938 370.359375 144.835938 369.609375 C 144.332031 368.855469 143.90625 368.0625 143.5625 367.226562 C 143.214844 366.390625 142.953125 365.527344 142.777344 364.640625 C 142.601562 363.75 142.511719 362.855469 142.511719 361.949219 C 142.511719 361.042969 142.601562 360.148438 142.777344 359.261719 C 142.953125 358.371094 143.214844 357.511719 143.5625 356.675781 C 143.90625 355.839844 144.332031 355.042969 144.835938 354.292969 C 145.335938 353.539062 145.910156 352.84375 146.546875 352.203125 C 147.1875 351.5625 147.882812 350.992188 148.636719 350.488281 C 149.386719 349.984375 150.183594 349.5625 151.015625 349.214844 C 151.851562 348.867188 152.714844 348.605469 153.601562 348.429688 C 154.488281 348.253906 155.386719 348.164062 156.289062 348.164062 C 157.195312 348.164062 158.089844 348.253906 158.976562 348.429688 C 159.863281 348.605469 160.726562 348.867188 161.5625 349.214844 C 162.398438 349.5625 163.191406 349.984375 163.945312 350.488281 C 164.695312 350.992188 165.390625 351.5625 166.03125 352.203125 C 166.671875 352.84375 167.242188 353.539062 167.746094 354.292969 C 168.246094 355.042969 168.671875 355.839844 169.019531 356.675781 C 169.363281 357.511719 169.625 358.371094 169.800781 359.261719 C 169.976562 360.148438 170.066406 361.042969 170.066406 361.949219 Z M 170.066406 361.949219 " fill-opacity="1" fill-rule="nonzero"/><path fill="#ffc3aa" d="M 94.648438 381.691406 L 105.441406 440.246094 L 142.234375 432.804688 L 133.277344 400.726562 Z M 94.648438 381.691406 " fill-opacity="1" fill-rule="nonzero"/><path fill="#000000" d="M 133.277344 400.726562 L 104.59375 404.421875 L 140.53125 427.476562 Z M 133.277344 400.726562 " fill-opacity="1" fill-rule="nonzero"/><path fill="#ffc3aa" d="M 86.363281 382.648438 C 102.210938 415.78125 130.472656 410.492188 130.472656 410.492188 C 154.664062 408.125 165.203125 391.582031 165.90625 372.40625 C 166.449219 357.554688 154.769531 336.519531 148.5625 324.652344 C 146.609375 320.914062 143.597656 317.753906 139.765625 316 C 104.007812 299.625 60.972656 329.558594 86.363281 382.648438 Z M 86.363281 382.648438 " fill-opacity="1" fill-rule="nonzero"/><path fill="#000000" d="M 147.488281 371.167969 C 147.28125 370.761719 147.445312 370.265625 147.851562 370.058594 L 150.878906 368.53125 C 151.15625 368.355469 151.253906 368 151.15625 367.804688 L 147.359375 362.671875 C 147.085938 362.304688 147.164062 361.785156 147.53125 361.515625 C 147.898438 361.246094 148.414062 361.316406 148.683594 361.6875 L 152.542969 366.917969 C 153.125 367.980469 152.769531 369.308594 151.679688 369.976562 L 148.59375 371.535156 C 148.472656 371.597656 148.34375 371.625 148.21875 371.625 C 147.921875 371.625 147.632812 371.460938 147.488281 371.167969 Z M 147.488281 371.167969 " fill-opacity="1" fill-rule="nonzero"/><path fill="#000000" d="M 132.066406 360.882812 C 132.066406 361.328125 131.980469 361.757812 131.808594 362.167969 C 131.640625 362.578125 131.398438 362.941406 131.082031 363.257812 C 130.765625 363.570312 130.402344 363.816406 129.992188 363.984375 C 129.582031 364.15625 129.152344 364.242188 128.707031 364.242188 C 128.261719 364.242188 127.835938 364.15625 127.421875 363.984375 C 127.011719 363.816406 126.648438 363.570312 126.335938 363.257812 C 126.019531 362.941406 125.777344 362.578125 125.605469 362.167969 C 125.4375 361.757812 125.351562 361.328125 125.351562 360.882812 C 125.351562 360.4375 125.4375 360.007812 125.605469 359.597656 C 125.777344 359.183594 126.019531 358.820312 126.335938 358.507812 C 126.648438 358.191406 127.011719 357.949219 127.421875 357.777344 C 127.835938 357.609375 128.261719 357.523438 128.707031 357.523438 C 129.152344 357.523438 129.582031 357.609375 129.992188 357.777344 C 130.402344 357.949219 130.765625 358.191406 131.082031 358.507812 C 131.398438 358.820312 131.640625 359.183594 131.808594 359.597656 C 131.980469 360.007812 132.066406 360.4375 132.066406 360.882812 Z M 132.066406 360.882812 " fill-opacity="1" fill-rule="nonzero"/><path fill="#000000" d="M 153.535156 350.144531 C 155.203125 349.71875 156.898438 350.730469 157.324219 352.398438 C 157.746094 354.070312 156.734375 355.765625 155.070312 356.191406 C 153.398438 356.613281 151.703125 355.601562 151.28125 353.933594 C 150.855469 352.269531 151.867188 350.570312 153.535156 350.144531 Z M 153.535156 350.144531 " fill-opacity="1" fill-rule="nonzero"/><path fill="#000000" d="M 134.351562 380.554688 C 133.941406 380.355469 133.769531 379.863281 133.960938 379.453125 C 134.160156 379.042969 134.648438 378.863281 135.0625 379.0625 C 144.386719 383.507812 152.828125 377.066406 152.910156 377 C 153.265625 376.71875 153.785156 376.78125 154.070312 377.140625 C 154.347656 377.5 154.285156 378.015625 153.929688 378.300781 C 153.652344 378.519531 148.714844 382.308594 142.011719 382.308594 C 139.632812 382.308594 137.039062 381.832031 134.351562 380.554688 Z M 134.351562 380.554688 " fill-opacity="1" fill-rule="nonzero"/><path fill="#000000" d="M 151.046875 332.464844 C 155.445312 332.144531 158.378906 334.105469 159.871094 335.46875 C 160.605469 336.144531 160.851562 337.1875 160.527344 338.132812 C 160.128906 339.300781 158.941406 340.011719 157.722656 339.816406 C 155.570312 339.472656 153.300781 339.722656 149.6875 340.03125 C 144.941406 340.441406 145.226562 336.472656 145.226562 336.472656 C 145.226562 336.472656 145.40625 332.875 151.046875 332.464844 Z M 151.046875 332.464844 " fill-opacity="1" fill-rule="nonzero"/><path fill="#000000" d="M 120.523438 340.234375 C 115.265625 342.265625 110.703125 347.59375 109.664062 349.574219 C 109.152344 350.554688 109.390625 351.605469 110.242188 352.261719 C 111.292969 353.078125 113.027344 353.078125 114.34375 352.261719 C 116.664062 350.828125 121.570312 347.785156 125.914062 346.160156 C 131.628906 344.027344 129.296875 340.6875 129.296875 340.6875 C 129.296875 340.6875 127.277344 337.628906 120.523438 340.234375 Z M 120.523438 340.234375 " fill-opacity="1" fill-rule="nonzero"/><path fill="#000000" d="M 67.683594 349.984375 C 138.554688 336.109375 125.851562 308.503906 125.851562 308.503906 C 53.324219 310.542969 67.683594 349.984375 67.683594 349.984375 Z M 67.683594 349.984375 " fill-opacity="1" fill-rule="nonzero"/><path fill="#000000" d="M 54.503906 362.027344 L 94.648438 381.691406 L 87.867188 338.546875 Z M 54.503906 362.027344 " fill-opacity="1" fill-rule="nonzero"/><path fill="#ffc3aa" d="M 72.960938 374.230469 C 81 367.019531 93.542969 369.640625 98.019531 379.480469 C 100.804688 385.609375 99.234375 393.136719 94.222656 397.628906 C 86.183594 404.84375 73.640625 402.21875 69.167969 392.382812 C 66.378906 386.253906 67.953125 378.726562 72.960938 374.230469 Z M 72.960938 374.230469 " fill-opacity="1" fill-rule="nonzero"/><path fill="#000000" d="M 89.375 388.179688 C 87.84375 385.121094 85.851562 383.261719 83.453125 382.644531 C 79.625 381.664062 75.964844 384.160156 75.929688 384.183594 C 75.5625 384.441406 75.046875 384.347656 74.785156 383.972656 C 74.523438 383.601562 74.617188 383.089844 74.992188 382.828125 C 75.164062 382.707031 79.304688 379.878906 83.851562 381.042969 C 86.742188 381.777344 89.097656 383.929688 90.863281 387.441406 C 91.066406 387.847656 90.898438 388.34375 90.492188 388.550781 C 90.371094 388.609375 90.246094 388.636719 90.121094 388.636719 C 89.8125 388.636719 89.523438 388.472656 89.375 388.179688 Z M 89.375 388.179688 " fill-opacity="1" fill-rule="nonzero"/><path fill="#ffc3aa" d="M 130.53125 446.648438 C 159.417969 446.648438 148.421875 427.585938 148.421875 427.585938 L 138.1875 425.953125 L 89.167969 425.953125 C 89.839844 428.972656 101.652344 446.648438 130.53125 446.648438 Z M 130.53125 446.648438 " fill-opacity="1" fill-rule="nonzero"/><path fill="#ffffff" d="M 223.316406 25.058594 L 761.160156 25.058594 L 761.160156 448.582031 L 223.316406 448.582031 Z M 223.316406 25.058594 " fill-opacity="1" fill-rule="nonzero"/><path fill="#000000" d="M 637.976562 147.199219 C 637.976562 147.199219 637.28125 125.210938 610.191406 123.125 C 592.84375 121.792969 592.839844 130.371094 575.371094 129.496094 C 559.484375 128.695312 544.417969 139.621094 548.523438 158.429688 C 551.964844 174.199219 576.265625 182.71875 576.265625 182.71875 Z M 637.976562 147.199219 " fill-opacity="1" fill-rule="nonzero"/><path fill="#ffc3aa" d="M 578.375 194.15625 C 578.375 194.910156 578.304688 195.65625 578.15625 196.394531 C 578.007812 197.132812 577.792969 197.847656 577.503906 198.546875 C 577.214844 199.242188 576.863281 199.902344 576.445312 200.527344 C 576.027344 201.15625 575.550781 201.734375 575.019531 202.269531 C 574.484375 202.800781 573.90625 203.277344 573.28125 203.695312 C 572.65625 204.113281 571.992188 204.464844 571.296875 204.753906 C 570.601562 205.042969 569.886719 205.261719 569.148438 205.40625 C 568.410156 205.554688 567.664062 205.628906 566.910156 205.628906 C 566.15625 205.628906 565.410156 205.554688 564.671875 205.40625 C 563.933594 205.261719 563.21875 205.042969 562.519531 204.753906 C 561.824219 204.464844 561.164062 204.113281 560.539062 203.695312 C 559.914062 203.277344 559.332031 202.800781 558.800781 202.269531 C 558.269531 201.734375 557.792969 201.15625 557.375 200.527344 C 556.957031 199.902344 556.605469 199.242188 556.316406 198.546875 C 556.027344 197.847656 555.808594 197.132812 555.664062 196.394531 C 555.515625 195.65625 555.441406 194.910156 555.441406 194.15625 C 555.441406 193.402344 555.515625 192.65625 555.664062 191.917969 C 555.808594 191.175781 556.027344 190.460938 556.316406 189.765625 C 556.605469 189.066406 556.957031 188.40625 557.375 187.78125 C 557.792969 187.152344 558.269531 186.574219 558.800781 186.042969 C 559.332031 185.507812 559.914062 185.035156 560.539062 184.613281 C 561.164062 184.195312 561.824219 183.84375 562.519531 183.554688 C 563.21875 183.265625 563.933594 183.046875 564.671875 182.902344 C 565.410156 182.753906 566.15625 182.679688 566.910156 182.679688 C 567.664062 182.679688 568.410156 182.753906 569.148438 182.902344 C 569.886719 183.050781 570.601562 183.265625 571.296875 183.554688 C 571.992188 183.84375 572.65625 184.195312 573.28125 184.613281 C 573.90625 185.035156 574.484375 185.507812 575.019531 186.042969 C 575.550781 186.574219 576.027344 187.152344 576.445312 187.78125 C 576.863281 188.40625 577.214844 189.066406 577.503906 189.765625 C 577.792969 190.460938 578.007812 191.175781 578.15625 191.917969 C 578.304688 192.65625 578.375 193.402344 578.375 194.15625 Z M 578.375 194.15625 " fill-opacity="1" fill-rule="nonzero"/><path fill="#ffc3aa" d="M 584.597656 219.007812 L 586 266.664062 L 627.414062 251.328125 L 618.683594 191.515625 Z M 584.597656 219.007812 " fill-opacity="1" fill-rule="nonzero"/><path fill="#ffc3aa" d="M 570.238281 146.8125 C 568.015625 149.203125 564.171875 153.628906 563.382812 161.601562 C 562.308594 172.453125 559.914062 199.011719 564.921875 210.632812 C 571.292969 225.410156 584.398438 233.902344 603.871094 228.226562 C 603.871094 228.226562 621.726562 225.953125 629.394531 190.378906 C 641.082031 136.1875 592.902344 122.460938 570.238281 146.8125 Z M 570.238281 146.8125 " fill-opacity="1" fill-rule="nonzero"/><path fill="#000000" d="M 572.515625 188.210938 C 572.238281 189.636719 570.859375 190.5625 569.441406 190.289062 C 568.015625 190.011719 567.089844 188.632812 567.363281 187.210938 C 567.640625 185.785156 569.019531 184.859375 570.4375 185.132812 C 571.863281 185.410156 572.792969 186.789062 572.515625 188.210938 Z M 572.515625 188.210938 " fill-opacity="1" fill-rule="nonzero"/><path fill="#000000" d="M 595.742188 187.21875 C 595.46875 188.640625 594.089844 189.570312 592.667969 189.296875 C 591.246094 189.019531 590.320312 187.640625 590.59375 186.214844 C 590.871094 184.792969 592.246094 183.863281 593.667969 184.136719 C 595.089844 184.417969 596.019531 185.796875 595.742188 187.21875 Z M 595.742188 187.21875 " fill-opacity="1" fill-rule="nonzero"/><path fill="#000000" d="M 579.078125 199.835938 C 579.054688 199.835938 579.035156 199.835938 579.015625 199.835938 L 575.148438 199.507812 C 574.925781 199.488281 574.722656 199.371094 574.589844 199.1875 C 574.464844 199.003906 574.421875 198.769531 574.480469 198.554688 L 576.382812 191.476562 C 576.492188 191.074219 576.902344 190.832031 577.3125 190.9375 C 577.71875 191.050781 577.957031 191.464844 577.851562 191.871094 L 576.183594 198.070312 L 579.144531 198.320312 C 579.5625 198.355469 579.871094 198.722656 579.835938 199.140625 C 579.800781 199.539062 579.46875 199.835938 579.078125 199.835938 Z M 579.078125 199.835938 " fill-opacity="1" fill-rule="nonzero"/><path fill="#000000" d="M 587.25 172.164062 C 587.023438 174.296875 588.675781 176.152344 590.816406 176.167969 C 594.050781 176.191406 598.765625 176.527344 603.125 177.972656 C 604.746094 178.507812 606.503906 177.722656 607.101562 176.121094 C 607.679688 174.585938 606.890625 173.039062 605.496094 172.183594 C 602.640625 170.425781 598.128906 167.859375 590.515625 168.933594 C 588.808594 169.175781 587.429688 170.445312 587.25 172.164062 Z M 587.25 172.164062 " fill-opacity="1" fill-rule="nonzero"/><path fill="#000000" d="M 575.101562 172.429688 C 574.984375 174.519531 573.640625 176.320312 572.207031 176.3125 C 570.042969 176.304688 566.84375 176.585938 563.746094 177.953125 C 562.589844 178.460938 561.515625 177.675781 561.320312 176.101562 C 561.132812 174.597656 561.851562 173.085938 562.894531 172.261719 C 565.03125 170.574219 568.378906 168.105469 573.328125 169.234375 C 574.441406 169.492188 575.199219 170.75 575.101562 172.429688 Z M 575.101562 172.429688 " fill-opacity="1" fill-rule="nonzero"/><path fill="#000000" d="M 563.710938 207.042969 L 570.015625 208.003906 L 571.574219 204.84375 C 572.210938 203.554688 573.535156 202.746094 574.976562 202.769531 L 589.417969 203.023438 C 590.785156 203.046875 592.023438 203.8125 592.652344 205.019531 L 595.871094 208.101562 C 595.871094 208.101562 612.824219 211.761719 615.769531 187.945312 L 620.601562 186.609375 C 620.601562 186.609375 615.8125 197.328125 622.894531 209.171875 C 622.894531 209.171875 616.003906 233.421875 587.441406 229.621094 C 587.441406 229.628906 569.675781 228.027344 563.710938 207.042969 Z M 563.710938 207.042969 " fill-opacity="1" fill-rule="nonzero"/><path fill="#ffffff" d="M 582 210.273438 C 579.125 210.273438 576.96875 209.179688 576.828125 209.109375 C 576.460938 208.917969 576.3125 208.460938 576.507812 208.089844 C 576.699219 207.71875 577.160156 207.574219 577.523438 207.765625 C 577.570312 207.789062 581.957031 209.988281 586.207031 207.730469 C 586.574219 207.539062 587.035156 207.679688 587.230469 208.046875 C 587.425781 208.417969 587.285156 208.875 586.917969 209.070312 C 585.207031 209.972656 583.507812 210.273438 582 210.273438 Z M 582 210.273438 " fill-opacity="1" fill-rule="nonzero"/><path fill="#000000" d="M 630.871094 191.019531 L 615.769531 187.953125 L 618.089844 168.695312 C 618.339844 166.601562 617.054688 164.636719 615.089844 164.160156 C 611.730469 163.355469 607.148438 161.09375 607.027344 154.757812 C 606.839844 144.722656 612.277344 138.847656 612.277344 138.847656 C 612.277344 138.847656 642.878906 133.667969 647.367188 156.117188 C 650.503906 171.800781 641.984375 201.777344 620.808594 213.996094 Z M 630.871094 191.019531 " fill-opacity="1" fill-rule="nonzero"/><path fill="#ffc3aa" d="M 644.648438 194.84375 C 643.21875 201.777344 636.441406 206.238281 629.511719 204.808594 C 622.578125 203.378906 618.121094 196.597656 619.546875 189.664062 C 620.976562 182.726562 627.753906 178.265625 634.6875 179.695312 C 641.617188 181.128906 646.078125 187.90625 644.648438 194.84375 Z M 644.648438 194.84375 " fill-opacity="1" fill-rule="nonzero"/><path fill="#000000" d="M 626.363281 197.449219 C 626.328125 197.449219 626.289062 197.445312 626.253906 197.441406 C 625.839844 197.378906 625.550781 196.992188 625.613281 196.578125 C 626.125 193.105469 627.53125 190.53125 629.789062 188.921875 C 633.273438 186.445312 637.484375 187.214844 637.65625 187.25 C 638.066406 187.328125 638.335938 187.726562 638.257812 188.136719 C 638.183594 188.546875 637.796875 188.820312 637.375 188.742188 C 637.335938 188.734375 633.605469 188.066406 630.660156 190.171875 C 628.757812 191.527344 627.566406 193.757812 627.117188 196.796875 C 627.0625 197.175781 626.734375 197.449219 626.363281 197.449219 Z M 626.363281 197.449219 " fill-opacity="1" fill-rule="nonzero"/><path fill="#000000" d="M 614.8125 142.707031 C 614.8125 142.707031 605.78125 151.144531 590.40625 150.167969 C 575.03125 149.191406 572.078125 145.148438 566.433594 151.511719 C 566.433594 151.511719 567.75 130.144531 595.574219 129.003906 C 623.394531 127.871094 621.414062 145.949219 621.414062 145.949219 Z M 614.8125 142.707031 " fill-opacity="1" fill-rule="nonzero"/><path fill="#000000" d="M 223.316406 25.058594 L 761.160156 25.058594 L 761.160156 53.417969 L 223.316406 53.417969 Z M 223.316406 25.058594 " fill-opacity="0.2667" fill-rule="nonzero"/><path fill="#000000" d="M 258.550781 39.484375 C 258.550781 39.949219 258.503906 40.40625 258.414062 40.859375 C 258.324219 41.316406 258.191406 41.753906 258.011719 42.183594 C 257.835938 42.609375 257.621094 43.015625 257.363281 43.402344 C 257.105469 43.785156 256.8125 44.144531 256.484375 44.46875 C 256.160156 44.796875 255.804688 45.089844 255.417969 45.347656 C 255.035156 45.605469 254.628906 45.820312 254.199219 46 C 253.773438 46.175781 253.332031 46.308594 252.878906 46.398438 C 252.425781 46.492188 251.964844 46.535156 251.503906 46.535156 C 251.039062 46.535156 250.582031 46.492188 250.128906 46.398438 C 249.675781 46.308594 249.234375 46.175781 248.804688 46 C 248.378906 45.820312 247.972656 45.605469 247.589844 45.347656 C 247.203125 45.089844 246.847656 44.796875 246.519531 44.46875 C 246.191406 44.144531 245.902344 43.785156 245.644531 43.402344 C 245.386719 43.015625 245.167969 42.609375 244.992188 42.183594 C 244.816406 41.753906 244.683594 41.316406 244.59375 40.859375 C 244.5 40.40625 244.457031 39.949219 244.457031 39.484375 C 244.457031 39.023438 244.5 38.5625 244.59375 38.109375 C 244.683594 37.65625 244.816406 37.214844 244.992188 36.785156 C 245.167969 36.359375 245.386719 35.953125 245.644531 35.566406 C 245.902344 35.183594 246.191406 34.828125 246.519531 34.5 C 246.847656 34.171875 247.203125 33.878906 247.589844 33.621094 C 247.972656 33.367188 248.378906 33.148438 248.804688 32.972656 C 249.234375 32.792969 249.675781 32.660156 250.128906 32.570312 C 250.582031 32.480469 251.039062 32.433594 251.503906 32.433594 C 251.964844 32.433594 252.425781 32.480469 252.878906 32.570312 C 253.332031 32.660156 253.773438 32.792969 254.199219 32.972656 C 254.628906 33.148438 255.035156 33.367188 255.417969 33.621094 C 255.804688 33.878906 256.160156 34.171875 256.484375 34.5 C 256.8125 34.828125 257.105469 35.183594 257.363281 35.566406 C 257.621094 35.953125 257.835938 36.359375 258.011719 36.785156 C 258.191406 37.214844 258.324219 37.65625 258.414062 38.109375 C 258.503906 38.5625 258.550781 39.023438 258.550781 39.484375 Z M 258.550781 39.484375 " fill-opacity="0.5686" fill-rule="nonzero"/><path fill="#000000" d="M 285.042969 39.484375 C 285.042969 39.949219 284.996094 40.40625 284.90625 40.859375 C 284.816406 41.316406 284.683594 41.753906 284.507812 42.183594 C 284.328125 42.609375 284.113281 43.015625 283.855469 43.402344 C 283.597656 43.785156 283.304688 44.144531 282.976562 44.46875 C 282.652344 44.796875 282.296875 45.089844 281.910156 45.347656 C 281.527344 45.605469 281.121094 45.820312 280.691406 46 C 280.265625 46.175781 279.824219 46.308594 279.371094 46.398438 C 278.917969 46.492188 278.457031 46.535156 277.996094 46.535156 C 277.53125 46.535156 277.074219 46.492188 276.621094 46.398438 C 276.167969 46.308594 275.726562 46.175781 275.300781 46 C 274.871094 45.820312 274.464844 45.605469 274.082031 45.347656 C 273.695312 45.089844 273.339844 44.796875 273.011719 44.46875 C 272.6875 44.144531 272.394531 43.785156 272.136719 43.402344 C 271.878906 43.015625 271.664062 42.609375 271.484375 42.183594 C 271.308594 41.753906 271.175781 41.316406 271.085938 40.859375 C 270.992188 40.40625 270.949219 39.949219 270.949219 39.484375 C 270.949219 39.023438 270.992188 38.5625 271.085938 38.109375 C 271.175781 37.65625 271.308594 37.214844 271.484375 36.785156 C 271.664062 36.359375 271.878906 35.953125 272.136719 35.566406 C 272.394531 35.183594 272.6875 34.828125 273.011719 34.5 C 273.339844 34.171875 273.695312 33.878906 274.082031 33.621094 C 274.464844 33.367188 274.871094 33.148438 275.300781 32.972656 C 275.726562 32.792969 276.167969 32.660156 276.621094 32.570312 C 277.074219 32.480469 277.53125 32.433594 277.996094 32.433594 C 278.457031 32.433594 278.917969 32.480469 279.371094 32.570312 C 279.824219 32.660156 280.265625 32.792969 280.691406 32.972656 C 281.121094 33.148438 281.527344 33.367188 281.910156 33.621094 C 282.296875 33.878906 282.652344 34.171875 282.976562 34.5 C 283.304688 34.828125 283.597656 35.183594 283.855469 35.566406 C 284.113281 35.953125 284.328125 36.359375 284.507812 36.785156 C 284.683594 37.214844 284.816406 37.65625 284.90625 38.109375 C 284.996094 38.5625 285.042969 39.023438 285.042969 39.484375 Z M 285.042969 39.484375 " fill-opacity="0.5686" fill-rule="nonzero"/><path fill="#000000" d="M 311.394531 39.484375 C 311.394531 39.949219 311.351562 40.40625 311.261719 40.859375 C 311.167969 41.316406 311.035156 41.753906 310.859375 42.183594 C 310.683594 42.609375 310.464844 43.015625 310.207031 43.402344 C 309.949219 43.785156 309.660156 44.144531 309.332031 44.46875 C 309.003906 44.796875 308.648438 45.089844 308.261719 45.347656 C 307.878906 45.605469 307.472656 45.820312 307.046875 46 C 306.617188 46.175781 306.175781 46.308594 305.722656 46.398438 C 305.269531 46.492188 304.8125 46.535156 304.347656 46.535156 C 303.886719 46.535156 303.429688 46.492188 302.972656 46.398438 C 302.519531 46.308594 302.078125 46.175781 301.652344 46 C 301.222656 45.820312 300.820312 45.605469 300.433594 45.347656 C 300.050781 45.089844 299.691406 44.796875 299.367188 44.46875 C 299.039062 44.144531 298.746094 43.785156 298.488281 43.402344 C 298.234375 43.015625 298.015625 42.609375 297.839844 42.183594 C 297.660156 41.753906 297.527344 41.316406 297.4375 40.859375 C 297.347656 40.40625 297.300781 39.949219 297.300781 39.484375 C 297.300781 39.023438 297.347656 38.5625 297.4375 38.109375 C 297.527344 37.65625 297.660156 37.214844 297.839844 36.785156 C 298.015625 36.359375 298.234375 35.953125 298.488281 35.566406 C 298.746094 35.183594 299.039062 34.828125 299.367188 34.5 C 299.691406 34.171875 300.050781 33.878906 300.433594 33.621094 C 300.820312 33.367188 301.222656 33.148438 301.652344 32.972656 C 302.078125 32.792969 302.519531 32.660156 302.972656 32.570312 C 303.429688 32.480469 303.886719 32.433594 304.347656 32.433594 C 304.8125 32.433594 305.269531 32.480469 305.722656 32.570312 C 306.175781 32.660156 306.617188 32.792969 307.046875 32.972656 C 307.472656 33.148438 307.878906 33.367188 308.261719 33.621094 C 308.648438 33.878906 309.003906 34.171875 309.332031 34.5 C 309.660156 34.828125 309.949219 35.183594 310.207031 35.566406 C 310.464844 35.953125 310.683594 36.359375 310.859375 36.785156 C 311.035156 37.214844 311.167969 37.65625 311.261719 38.109375 C 311.351562 38.5625 311.394531 39.023438 311.394531 39.484375 Z M 311.394531 39.484375 " fill-opacity="0.5686" fill-rule="nonzero"/><g clip-path="url(#ffc49c2387)"><path fill="#ffffff" d="M 0.1875 569.960938 L 353.210938 569.960938 L 353.210938 594.488281 L 0.1875 594.488281 Z M 0.1875 569.960938 " fill-opacity="1" fill-rule="nonzero"/><path fill="#000000" d="M 0.1875 569.960938 L 353.210938 569.960938 L 353.210938 594.488281 L 0.1875 594.488281 Z M 0.1875 569.960938 " fill-opacity="0.2667" fill-rule="nonzero"/></g><path fill="#008cf0" d="M 687.167969 400.515625 L 685.558594 448.582031 L 545.089844 448.582031 L 543.105469 408.84375 C 543.105469 408.84375 534.691406 302.671875 526.90625 270.824219 L 568.824219 259.652344 L 657.015625 262.214844 L 693.507812 270.824219 L 687.167969 400.515625 L 674.402344 398.957031 L 674.40625 398.957031 Z M 687.167969 400.515625 " fill-opacity="1" fill-rule="nonzero"/><path fill="#ffc3aa" d="M 614.074219 242.589844 L 657.023438 262.226562 C 657.023438 262.226562 654.601562 287.9375 610.207031 288.011719 C 572.386719 288.074219 568.839844 259.660156 568.839844 259.660156 Z M 614.074219 242.589844 " fill-opacity="1" fill-rule="nonzero"/><path fill="#008cf0" d="M 547.039062 268.996094 C 547.039062 268.996094 518.167969 259.722656 499.386719 301.453125 C 480.601562 343.1875 465.183594 392.542969 465.183594 392.542969 L 506.496094 394.214844 L 552.34375 317.15625 Z M 547.039062 268.996094 " fill-opacity="1" fill-rule="nonzero"/><path fill="#ffc3aa" d="M 456.597656 247.910156 L 436.058594 251.71875 L 444.898438 297.859375 C 454.160156 294.289062 463.292969 290.488281 472.339844 286.375 Z M 456.597656 247.910156 " fill-opacity="1" fill-rule="nonzero"/><path fill="#008cf0" d="M 507.875 373.191406 L 472.339844 286.375 C 463.292969 290.492188 454.15625 294.292969 444.898438 297.859375 L 462.03125 387.277344 C 465.21875 402.433594 481.667969 410.6875 495.714844 404.175781 C 507.394531 398.757812 512.75 385.109375 507.875 373.191406 Z M 507.875 373.191406 " fill-opacity="1" fill-rule="nonzero"/><path fill="#ffc3aa" d="M 451.351562 261.847656 C 455.839844 259.816406 459.660156 256.566406 462.382812 252.460938 L 465.03125 248.472656 C 468.585938 243.113281 470.832031 236.996094 471.589844 230.609375 L 472.925781 219.363281 C 473.242188 216.691406 471.082031 214.375 468.394531 214.507812 C 466.125 214.617188 464.152344 216.097656 463.410156 218.242188 L 459.472656 229.597656 L 451.753906 188.898438 C 451.429688 186.894531 449.417969 185.632812 447.472656 186.214844 L 446.167969 186.601562 C 444.632812 187.058594 443.632812 188.535156 443.777344 190.132812 L 447.988281 217.695312 L 438.777344 186.703125 C 438.320312 184.730469 436.246094 183.605469 434.34375 184.296875 L 433.402344 184.640625 C 431.804688 185.222656 430.894531 186.90625 431.277344 188.5625 L 437.875 216.417969 L 428.222656 196.375 C 427.347656 194.40625 424.882812 193.753906 423.152344 195.03125 L 422.804688 195.289062 C 421.613281 196.164062 421.132812 197.710938 421.617188 199.105469 L 430.164062 220.640625 L 423.21875 210.582031 C 422.113281 208.359375 419.066406 208.058594 417.542969 210.019531 C 416.820312 210.957031 416.636719 212.199219 417.066406 213.300781 L 439.300781 267.308594 Z M 451.351562 261.847656 " fill-opacity="1" fill-rule="nonzero"/><path fill="#008cf0" d="M 749.050781 370.289062 L 655.667969 361.855469 C 655.152344 371.785156 654.316406 381.648438 653.21875 391.515625 L 740.429688 417.488281 C 755.34375 421.640625 770.242188 410.832031 770.9375 395.359375 C 771.511719 382.488281 761.867188 371.445312 749.050781 370.289062 Z M 749.050781 370.289062 " fill-opacity="1" fill-rule="nonzero"/><path fill="#008cf0" d="M 678.539062 270.757812 C 678.539062 270.757812 707.410156 261.484375 726.191406 303.21875 C 744.976562 344.949219 769.519531 384.367188 769.519531 384.367188 L 729.15625 402.011719 L 670.480469 318.921875 Z M 678.539062 270.757812 " fill-opacity="1" fill-rule="nonzero"/><path fill="#008cf0" d="M 649.382812 258.730469 L 657.023438 262.226562 L 666.503906 265.300781 L 615.546875 368.300781 L 561.902344 261.5 L 568.839844 259.660156 L 612.929688 305.246094 Z M 649.382812 258.730469 " fill-opacity="1" fill-rule="nonzero"/><path fill="#ffffff" d="M 585.605469 253.332031 L 610.210938 288.011719 L 627.414062 248.6875 L 649.382812 258.730469 L 615.152344 356.550781 L 568.839844 259.660156 Z M 585.605469 253.332031 " fill-opacity="1" fill-rule="nonzero"/><path fill="#000000" d="M 614.203125 391.640625 C 614.015625 391.640625 613.828125 391.5625 613.691406 391.414062 L 571.921875 346.835938 C 571.792969 346.699219 571.726562 346.515625 571.730469 346.328125 C 571.742188 346.140625 571.820312 345.964844 571.960938 345.839844 L 588.386719 330.703125 L 563.910156 316.03125 C 563.726562 315.921875 563.605469 315.738281 563.574219 315.53125 L 556.039062 262.980469 C 555.984375 262.59375 556.253906 262.238281 556.636719 262.183594 C 557.042969 262.125 557.375 262.398438 557.429688 262.78125 L 564.917969 315.003906 L 589.914062 329.984375 C 590.105469 330.097656 590.230469 330.292969 590.253906 330.515625 C 590.277344 330.738281 590.195312 330.953125 590.03125 331.105469 L 573.429688 346.394531 L 614.242188 389.957031 L 655.121094 352.902344 L 639.601562 326.457031 C 639.410156 326.128906 639.511719 325.707031 639.835938 325.503906 L 663.320312 310.722656 L 665.804688 265.265625 C 665.824219 264.878906 666.15625 264.597656 666.542969 264.605469 C 666.929688 264.625 667.226562 264.957031 667.203125 265.34375 L 664.703125 311.164062 C 664.691406 311.390625 664.570312 311.597656 664.375 311.71875 L 641.15625 326.332031 L 656.617188 352.683594 C 656.785156 352.96875 656.730469 353.335938 656.484375 353.558594 L 614.675781 391.460938 C 614.539062 391.578125 614.375 391.640625 614.203125 391.640625 Z M 614.203125 391.640625 " fill-opacity="1" fill-rule="nonzero"/><path fill="#000000" d="M 614.203125 449.285156 C 614.203125 449.285156 614.199219 449.285156 614.195312 449.285156 C 613.808594 449.28125 613.5 448.964844 613.5 448.574219 L 614.449219 356.542969 C 614.457031 356.160156 614.765625 355.847656 615.152344 355.847656 C 615.15625 355.847656 615.160156 355.847656 615.160156 355.847656 C 615.550781 355.855469 615.859375 356.171875 615.855469 356.558594 L 614.90625 448.59375 C 614.902344 448.976562 614.589844 449.285156 614.203125 449.285156 Z M 614.203125 449.285156 " fill-opacity="1" fill-rule="nonzero"/><path fill="#ffc3aa" d="M 614.292969 358.117188 L 608.210938 378.113281 L 653.214844 391.515625 C 654.316406 381.648438 655.148438 371.789062 655.667969 361.855469 Z M 614.292969 358.117188 " fill-opacity="1" fill-rule="nonzero"/><path fill="#ffc3aa" d="M 631.433594 369.453125 C 631.382812 363.863281 629.757812 358.402344 626.742188 353.695312 L 623.816406 349.121094 C 619.878906 342.972656 614.558594 337.835938 608.277344 334.125 L 597.21875 327.59375 C 594.589844 326.042969 591.195312 327.226562 590.105469 330.074219 C 589.183594 332.480469 589.8125 335.210938 591.703125 336.964844 L 601.683594 346.25 L 555.910156 335.644531 C 553.683594 335.066406 551.453125 336.582031 551.164062 338.863281 L 550.972656 340.398438 C 550.742188 342.203125 551.820312 343.917969 553.542969 344.5 L 584.074219 352.742188 L 547.695312 348.128906 C 545.441406 347.703125 543.320312 349.34375 543.171875 351.632812 L 543.09375 352.765625 C 542.96875 354.695312 544.296875 356.414062 546.191406 356.773438 L 578.125 362.660156 L 552.902344 363.519531 C 550.460938 363.527344 548.652344 365.792969 549.1875 368.175781 L 549.292969 368.65625 C 549.65625 370.292969 551.039062 371.496094 552.707031 371.632812 L 578.972656 372.613281 L 565.351562 375.222656 C 562.539062 375.359375 560.832031 378.386719 562.171875 380.863281 C 562.8125 382.042969 564.019531 382.800781 565.359375 382.859375 L 631.582031 384.472656 Z M 631.433594 369.453125 " fill-opacity="1" fill-rule="nonzero"/><path fill="#000000" d="M 749.269531 371 C 749.175781 371.027344 749.082031 371.039062 748.980469 371.03125 L 675.964844 364.4375 C 675.554688 364.398438 675.253906 364.035156 675.289062 363.625 C 675.328125 363.214844 675.691406 362.917969 676.101562 362.949219 L 749.117188 369.542969 C 749.527344 369.582031 749.828125 369.941406 749.789062 370.355469 C 749.765625 370.664062 749.550781 370.914062 749.269531 371 Z M 749.269531 371 " fill-opacity="1" fill-rule="nonzero"/><path fill="#000000" d="M 291.875 569.960938 L 155.15625 569.960938 C 152.347656 569.960938 150.175781 567.503906 150.511719 564.71875 L 160.125 485.84375 L 160.429688 483.351562 C 160.714844 481.003906 162.707031 479.238281 165.070312 479.238281 L 302.519531 479.238281 C 305.34375 479.238281 307.523438 481.722656 307.15625 484.523438 L 296.507812 565.894531 C 296.203125 568.21875 294.222656 569.960938 291.875 569.960938 Z M 291.875 569.960938 " fill-opacity="1" fill-rule="nonzero"/><path fill="#ffffff" d="M 156.402344 569.960938 L 165.34375 494.652344 C 165.847656 490.40625 169.445312 487.207031 173.71875 487.207031 L 307.199219 487.207031 L 297.324219 564.65625 C 296.941406 567.6875 294.359375 569.957031 291.304688 569.957031 L 156.402344 569.957031 Z M 156.402344 569.960938 " fill-opacity="0.5098" fill-rule="nonzero"/><path fill="#ffc3aa" d="M 71.667969 575.140625 L 149.492188 575.363281 L 148.121094 555.261719 L 59.667969 537.28125 Z M 71.667969 575.140625 " fill-opacity="1" fill-rule="nonzero"/><path fill="#ffc3aa" d="M 187.46875 527.273438 C 188.578125 529.316406 187.773438 531.734375 185.808594 532.660156 L 181.890625 535.03125 L 185.917969 533.753906 C 187.671875 533.199219 189.714844 533.9375 190.554688 535.625 C 191.523438 537.578125 190.652344 539.820312 188.734375 540.566406 L 186.164062 541.664062 C 188.515625 541.195312 190.628906 541.980469 191.195312 543.609375 C 191.878906 545.417969 191.03125 547.386719 189.273438 548.066406 L 185.628906 549.21875 C 189.273438 548.066406 190.488281 549.554688 190.925781 550.804688 C 191.527344 552.523438 190.703125 554.367188 189.042969 555.011719 L 172.960938 563.832031 C 172.492188 564.089844 172.011719 564.308594 171.53125 564.542969 C 169.902344 568.988281 164.742188 574.382812 149.492188 575.367188 L 147.125 555.300781 L 149.71875 528.542969 C 149.925781 526.613281 151.4375 525.128906 153.371094 524.96875 C 155.242188 524.808594 157.039062 525.925781 157.753906 527.695312 L 159.714844 532.5625 L 182.523438 525.371094 C 184.367188 524.785156 186.523438 525.523438 187.46875 527.273438 Z M 187.46875 527.273438 " fill-opacity="1" fill-rule="nonzero"/><path fill="#000000" d="M 169.535156 539.339844 C 169.464844 539.125 169.574219 538.886719 169.792969 538.8125 L 182.9375 534.226562 C 183.160156 534.148438 183.394531 534.261719 183.46875 534.484375 C 183.542969 534.699219 183.429688 534.933594 183.210938 535.011719 L 170.066406 539.597656 C 169.9375 539.640625 169.800781 539.617188 169.695312 539.542969 C 169.625 539.496094 169.570312 539.425781 169.535156 539.339844 Z M 169.535156 539.339844 " fill-opacity="1" fill-rule="nonzero"/><path fill="#000000" d="M 173.066406 546.941406 C 172.980469 546.730469 173.082031 546.484375 173.292969 546.398438 L 185.472656 541.492188 C 185.6875 541.40625 185.925781 541.511719 186.015625 541.722656 C 186.101562 541.933594 185.996094 542.175781 185.785156 542.261719 L 173.605469 547.171875 C 173.46875 547.226562 173.324219 547.207031 173.210938 547.128906 C 173.148438 547.082031 173.097656 547.023438 173.066406 546.941406 Z M 173.066406 546.941406 " fill-opacity="1" fill-rule="nonzero"/><path fill="#000000" d="M 176.207031 553.226562 C 176.117188 553.015625 176.214844 552.769531 176.425781 552.683594 L 186.578125 548.359375 C 186.789062 548.265625 187.035156 548.367188 187.121094 548.578125 C 187.207031 548.792969 187.113281 549.035156 186.902344 549.125 L 176.75 553.445312 C 176.613281 553.503906 176.464844 553.484375 176.347656 553.40625 C 176.285156 553.359375 176.238281 553.300781 176.207031 553.226562 Z M 176.207031 553.226562 " fill-opacity="1" fill-rule="nonzero"/><path fill="#ffc3aa" d="M 70.691406 452.949219 C 60.019531 453.976562 54.59375 463.414062 55.417969 474.175781 L 54.136719 558.183594 C 54.957031 568.898438 65.027344 576.765625 75.503906 574.871094 C 83.8125 573.371094 89.652344 566.121094 89.410156 557.617188 L 93.652344 473.308594 C 93.304688 461.269531 82.621094 451.800781 70.691406 452.949219 Z M 70.691406 452.949219 " fill-opacity="1" fill-rule="nonzero"/><path fill="#ff652f" d="M 105.25 467.144531 L 98.074219 517.621094 L 53.582031 511.355469 C 47.972656 461.679688 63.265625 440.855469 63.265625 440.855469 Z M 105.25 467.144531 " fill-opacity="1" fill-rule="nonzero"/><path fill="#008cf0" d="M 48.21875 511.101562 L 50.199219 497.378906 L 99.816406 505.113281 L 97.90625 518.574219 Z M 48.21875 511.101562 " fill-opacity="1" fill-rule="nonzero"/><path fill="#000000" d="M 99.871094 500.394531 L 104.039062 471.117188 C 104.085938 470.765625 104.410156 470.523438 104.761719 470.570312 C 105.101562 470.628906 105.351562 470.941406 105.300781 471.296875 L 101.136719 500.570312 C 101.089844 500.925781 100.765625 501.164062 100.414062 501.117188 C 100.3125 501.101562 100.222656 501.066406 100.140625 501.007812 C 99.949219 500.875 99.835938 500.640625 99.871094 500.394531 Z M 99.871094 500.394531 " fill-opacity="1" fill-rule="nonzero"/><path fill="#ffffff" d="M 248.488281 527.449219 C 248.488281 528.09375 248.421875 528.734375 248.296875 529.367188 C 248.171875 530 247.984375 530.613281 247.738281 531.210938 C 247.492188 531.808594 247.1875 532.375 246.832031 532.910156 C 246.472656 533.449219 246.066406 533.945312 245.609375 534.402344 C 245.152344 534.855469 244.65625 535.265625 244.121094 535.621094 C 243.582031 535.980469 243.019531 536.285156 242.421875 536.53125 C 241.824219 536.777344 241.210938 536.964844 240.578125 537.089844 C 239.945312 537.214844 239.308594 537.28125 238.664062 537.28125 C 238.015625 537.28125 237.378906 537.214844 236.746094 537.089844 C 236.113281 536.964844 235.5 536.777344 234.902344 536.53125 C 234.304688 536.285156 233.742188 535.980469 233.203125 535.621094 C 232.667969 535.265625 232.171875 534.855469 231.714844 534.402344 C 231.257812 533.945312 230.851562 533.449219 230.492188 532.910156 C 230.136719 532.375 229.832031 531.808594 229.585938 531.210938 C 229.339844 530.613281 229.152344 530 229.027344 529.367188 C 228.902344 528.734375 228.835938 528.09375 228.835938 527.449219 C 228.835938 526.804688 228.902344 526.164062 229.027344 525.53125 C 229.152344 524.898438 229.339844 524.285156 229.585938 523.6875 C 229.832031 523.089844 230.136719 522.523438 230.492188 521.988281 C 230.851562 521.453125 231.257812 520.957031 231.714844 520.5 C 232.171875 520.042969 232.667969 519.636719 233.203125 519.277344 C 233.742188 518.917969 234.304688 518.613281 234.902344 518.367188 C 235.5 518.121094 236.113281 517.933594 236.746094 517.808594 C 237.378906 517.683594 238.015625 517.621094 238.664062 517.621094 C 239.308594 517.621094 239.945312 517.683594 240.578125 517.808594 C 241.210938 517.933594 241.824219 518.121094 242.421875 518.367188 C 243.019531 518.613281 243.582031 518.917969 244.121094 519.277344 C 244.65625 519.636719 245.152344 520.042969 245.609375 520.5 C 246.066406 520.957031 246.472656 521.453125 246.832031 521.988281 C 247.1875 522.523438 247.492188 523.089844 247.738281 523.6875 C 247.984375 524.285156 248.171875 524.898438 248.296875 525.53125 C 248.421875 526.164062 248.488281 526.804688 248.488281 527.449219 Z M 248.488281 527.449219 " fill-opacity="1" fill-rule="nonzero"/><path fill="#ffffff" d="M 387.277344 483.96875 C 387.277344 484.851562 387.191406 485.722656 387.019531 486.585938 C 386.851562 487.449219 386.59375 488.289062 386.257812 489.101562 C 385.921875 489.914062 385.507812 490.6875 385.019531 491.417969 C 384.53125 492.152344 383.976562 492.828125 383.355469 493.453125 C 382.730469 494.074219 382.054688 494.628906 381.324219 495.117188 C 380.589844 495.609375 379.820312 496.019531 379.007812 496.359375 C 378.195312 496.695312 377.355469 496.949219 376.492188 497.121094 C 375.628906 497.292969 374.757812 497.378906 373.878906 497.378906 C 373 497.378906 372.125 497.292969 371.265625 497.121094 C 370.402344 496.949219 369.5625 496.695312 368.75 496.359375 C 367.9375 496.019531 367.164062 495.609375 366.433594 495.117188 C 365.703125 494.628906 365.023438 494.074219 364.402344 493.453125 C 363.78125 492.828125 363.226562 492.152344 362.734375 491.417969 C 362.246094 490.6875 361.835938 489.914062 361.496094 489.101562 C 361.160156 488.289062 360.90625 487.449219 360.734375 486.585938 C 360.5625 485.722656 360.476562 484.851562 360.476562 483.96875 C 360.476562 483.089844 360.5625 482.21875 360.734375 481.355469 C 360.90625 480.492188 361.160156 479.652344 361.496094 478.839844 C 361.835938 478.027344 362.246094 477.253906 362.734375 476.519531 C 363.226562 475.789062 363.78125 475.113281 364.402344 474.488281 C 365.023438 473.867188 365.703125 473.3125 366.433594 472.820312 C 367.164062 472.332031 367.9375 471.921875 368.75 471.582031 C 369.5625 471.246094 370.402344 470.992188 371.265625 470.820312 C 372.125 470.648438 373 470.5625 373.878906 470.5625 C 374.757812 470.5625 375.628906 470.648438 376.492188 470.820312 C 377.355469 470.992188 378.195312 471.246094 379.007812 471.582031 C 379.820312 471.921875 380.589844 472.332031 381.324219 472.820312 C 382.054688 473.3125 382.730469 473.867188 383.355469 474.488281 C 383.976562 475.113281 384.53125 475.789062 385.019531 476.519531 C 385.507812 477.253906 385.921875 478.027344 386.257812 478.839844 C 386.59375 479.652344 386.851562 480.492188 387.019531 481.355469 C 387.191406 482.21875 387.277344 483.089844 387.277344 483.96875 Z M 387.277344 483.96875 " fill-opacity="1" fill-rule="nonzero"/><path fill="#ffffff" d="M 338.789062 508.660156 C 338.789062 509.15625 338.742188 509.644531 338.644531 510.132812 C 338.546875 510.617188 338.40625 511.085938 338.214844 511.542969 C 338.027344 512.003906 337.796875 512.4375 337.519531 512.847656 C 337.246094 513.257812 336.933594 513.640625 336.582031 513.988281 C 336.234375 514.339844 335.851562 514.652344 335.441406 514.925781 C 335.03125 515.203125 334.597656 515.433594 334.140625 515.625 C 333.683594 515.8125 333.210938 515.957031 332.726562 516.050781 C 332.242188 516.148438 331.75 516.199219 331.257812 516.199219 C 330.761719 516.199219 330.273438 516.148438 329.789062 516.050781 C 329.300781 515.957031 328.832031 515.8125 328.375 515.625 C 327.917969 515.433594 327.484375 515.203125 327.074219 514.925781 C 326.660156 514.652344 326.28125 514.339844 325.929688 513.988281 C 325.582031 513.640625 325.269531 513.257812 324.996094 512.847656 C 324.71875 512.4375 324.488281 512.003906 324.296875 511.542969 C 324.109375 511.085938 323.964844 510.617188 323.871094 510.132812 C 323.773438 509.644531 323.726562 509.15625 323.726562 508.660156 C 323.726562 508.164062 323.773438 507.675781 323.871094 507.191406 C 323.964844 506.703125 324.109375 506.234375 324.296875 505.777344 C 324.488281 505.320312 324.71875 504.886719 324.996094 504.472656 C 325.269531 504.0625 325.582031 503.679688 325.929688 503.332031 C 326.28125 502.980469 326.660156 502.667969 327.074219 502.394531 C 327.484375 502.121094 327.917969 501.886719 328.375 501.699219 C 328.832031 501.507812 329.300781 501.367188 329.789062 501.269531 C 330.273438 501.171875 330.761719 501.125 331.257812 501.125 C 331.75 501.125 332.242188 501.171875 332.726562 501.269531 C 333.210938 501.367188 333.683594 501.507812 334.140625 501.699219 C 334.597656 501.886719 335.03125 502.121094 335.441406 502.394531 C 335.851562 502.667969 336.234375 502.980469 336.582031 503.332031 C 336.933594 503.679688 337.246094 504.0625 337.519531 504.472656 C 337.796875 504.886719 338.027344 505.320312 338.214844 505.777344 C 338.40625 506.234375 338.546875 506.703125 338.644531 507.191406 C 338.742188 507.675781 338.789062 508.164062 338.789062 508.660156 Z M 338.789062 508.660156 " fill-opacity="1" fill-rule="nonzero"/><path fill="#000000" d="M 290.046875 181.074219 C 289.109375 181.074219 288.292969 179.871094 287.601562 177.464844 C 287.335938 176.550781 287.003906 174.945312 286.609375 172.648438 C 285.570312 172.792969 284.207031 173.046875 282.53125 173.414062 L 278.464844 174.253906 C 277.957031 175.589844 277.085938 177.539062 275.851562 180.105469 C 275.527344 180.679688 275.085938 180.964844 274.523438 180.964844 C 274.117188 180.964844 273.753906 180.816406 273.433594 180.523438 C 273.113281 180.226562 272.953125 179.859375 272.953125 179.421875 C 272.953125 178.929688 273.71875 177.070312 275.257812 173.839844 C 275.085938 173.574219 275 173.269531 275 172.921875 C 275 172.097656 275.5 171.566406 276.496094 171.332031 C 277.65625 169.152344 279.125 166.644531 280.898438 163.8125 C 283.308594 159.949219 284.8125 158.019531 285.40625 158.019531 C 286.210938 158.019531 286.757812 158.578125 287.054688 159.699219 L 288.015625 164.839844 L 290.296875 175.464844 L 291.164062 177.878906 C 291.460938 178.703125 291.609375 179.253906 291.609375 179.53125 C 291.609375 179.96875 291.453125 180.335938 291.136719 180.632812 C 290.816406 180.925781 290.453125 181.074219 290.046875 181.074219 Z M 284.652344 163.601562 L 280.285156 170.648438 C 281.515625 170.332031 283.386719 169.949219 285.890625 169.5 Z M 284.652344 163.601562 " fill-opacity="1" fill-rule="nonzero"/><path fill="#000000" d="M 329.238281 180.003906 C 326.945312 180.898438 324.015625 181.347656 320.453125 181.347656 C 320.015625 181.347656 319.601562 181.140625 319.207031 180.730469 C 318.816406 180.316406 318.621094 179.890625 318.621094 179.453125 L 318.621094 175.003906 C 318.621094 173.546875 318.714844 171.46875 318.894531 168.765625 C 319.101562 165.851562 319.210938 163.742188 319.234375 162.4375 C 319.222656 161.5 319.277344 160.101562 319.398438 158.25 C 319.472656 157.738281 319.640625 157.402344 319.902344 157.238281 C 321.289062 156.808594 322.863281 156.597656 324.625 156.597656 C 326.417969 156.597656 328.140625 157.207031 329.789062 158.429688 C 331.695312 159.839844 332.648438 161.574219 332.648438 163.644531 C 332.648438 166.261719 331.628906 168.328125 329.59375 169.835938 C 331.121094 170.488281 332.261719 171.210938 333.023438 172.007812 C 333.78125 172.800781 334.160156 173.667969 334.160156 174.605469 C 334.160156 175.839844 333.492188 177.03125 332.160156 178.179688 C 331.230469 179 330.257812 179.605469 329.238281 180.003906 Z M 326.335938 171.964844 L 324.714844 171.703125 C 324.582031 171.703125 324.382812 171.710938 324.113281 171.726562 C 323.84375 171.742188 323.636719 171.75 323.492188 171.75 C 322.945312 171.75 322.359375 171.703125 321.738281 171.613281 C 321.675781 172.898438 321.644531 174.042969 321.644531 175.054688 L 321.644531 178.214844 C 324.3125 178.125 326.488281 177.75 328.167969 177.085938 C 328.882812 176.808594 329.566406 176.382812 330.214844 175.800781 C 330.835938 175.269531 331.148438 174.875 331.148438 174.605469 C 331.148438 174.128906 330.496094 173.589844 329.191406 172.988281 C 328.214844 172.527344 327.261719 172.1875 326.335938 171.964844 Z M 324.625 159.71875 C 323.515625 159.71875 322.734375 159.753906 322.289062 159.824219 L 322.257812 162.5 L 321.949219 168.417969 C 323.398438 168.539062 324.171875 168.597656 324.273438 168.585938 C 325.8125 168.460938 327.070312 167.984375 328.046875 167.148438 C 329.097656 166.242188 329.621094 165.074219 329.621094 163.648438 C 329.621094 162.679688 329.085938 161.78125 328.019531 160.957031 C 326.949219 160.128906 325.816406 159.71875 324.625 159.71875 Z M 324.625 159.71875 " fill-opacity="1" fill-rule="nonzero"/><path fill="#000000" d="M 374.160156 163.464844 C 373.507812 163.464844 373.019531 163.082031 372.695312 162.320312 C 372.40625 161.664062 372.144531 161.269531 371.902344 161.125 C 371.6875 161.011719 371.15625 160.957031 370.308594 160.957031 C 368.835938 160.957031 367.195312 162.089844 365.390625 164.351562 C 362.945312 167.390625 361.722656 170.265625 361.722656 172.988281 C 361.722656 174.304688 362.144531 175.433594 362.992188 176.382812 C 363.859375 177.363281 364.902344 177.851562 366.125 177.851562 C 367.171875 177.851562 368.226562 177.582031 369.285156 177.042969 C 369.878906 176.734375 370.785156 176.132812 372.007812 175.234375 C 372.585938 174.808594 373.023438 174.59375 373.320312 174.59375 C 373.757812 174.59375 374.125 174.761719 374.417969 175.09375 C 374.714844 175.425781 374.863281 175.792969 374.863281 176.199219 C 374.863281 176.660156 374.667969 177.0625 374.28125 177.40625 C 371.59375 179.792969 368.875 180.984375 366.125 180.984375 C 364.015625 180.984375 362.230469 180.171875 360.777344 178.554688 C 359.371094 176.984375 358.667969 175.128906 358.667969 172.988281 C 358.667969 169.535156 360.117188 165.996094 363.007812 162.363281 C 365.417969 159.335938 367.855469 157.824219 370.308594 157.824219 C 370.808594 157.824219 371.257812 157.847656 371.652344 157.890625 C 372.050781 157.9375 372.402344 158.011719 372.707031 158.113281 C 373.0625 157.59375 373.527344 157.332031 374.097656 157.332031 C 374.800781 157.332031 375.242188 157.796875 375.425781 158.722656 C 375.589844 159.550781 375.671875 160.5625 375.671875 161.765625 C 375.671875 162.183594 375.558594 162.550781 375.332031 162.867188 C 375.0625 163.265625 374.667969 163.464844 374.160156 163.464844 Z M 374.160156 163.464844 " fill-opacity="1" fill-rule="nonzero"/><path fill="#000000" d="M 414.449219 180.507812 C 412.871094 181.585938 410.605469 182.128906 407.652344 182.128906 C 406.910156 182.128906 406.058594 182.011719 405.101562 181.773438 C 403.949219 181.5 403.085938 181.144531 402.503906 180.703125 L 402.351562 180.703125 C 401.910156 180.703125 401.546875 180.550781 401.25 180.246094 C 400.953125 179.941406 400.808594 179.570312 400.808594 179.132812 C 400.808594 178.0625 400.855469 176.457031 400.953125 174.320312 C 401.046875 172.1875 401.09375 170.585938 401.09375 169.515625 C 401.09375 168.320312 401.070312 166.542969 401.027344 164.171875 C 400.980469 161.800781 400.957031 160.019531 400.957031 158.828125 C 400.957031 158.410156 401.171875 157.972656 401.597656 157.511719 C 402.027344 157.054688 402.457031 156.824219 402.882812 156.824219 C 403.128906 156.824219 403.941406 157.167969 405.332031 157.851562 C 406.898438 158.613281 407.804688 159.039062 408.046875 159.117188 C 410.941406 160.109375 413.40625 161.625 415.445312 163.675781 C 417.835938 166.089844 419.035156 168.746094 419.035156 171.640625 C 419.035156 173.382812 418.625 175.054688 417.804688 176.65625 C 416.984375 178.257812 415.867188 179.539062 414.449219 180.507812 Z M 411.242188 164.335938 C 410.203125 163.652344 407.804688 162.480469 404.046875 160.816406 L 404.125 165.21875 L 404.167969 169.605469 L 403.925781 177.953125 C 403.996094 177.984375 404.101562 178.050781 404.246094 178.152344 C 405.140625 178.753906 406.273438 179.054688 407.636719 179.054688 C 409.957031 179.054688 411.652344 178.699219 412.710938 177.984375 C 413.699219 177.3125 414.484375 176.40625 415.070312 175.273438 C 415.65625 174.136719 415.949219 172.949219 415.949219 171.71875 C 415.949219 168.84375 414.378906 166.382812 411.242188 164.335938 Z M 411.242188 164.335938 " fill-opacity="1" fill-rule="nonzero"/><path fill="#000000" d="M 459.496094 160.039062 C 459.351562 160.039062 459.195312 160.011719 459.023438 159.964844 C 457.300781 159.472656 455.640625 159.226562 454.042969 159.226562 C 453.207031 159.226562 452.292969 159.304688 451.304688 159.457031 C 450.320312 159.609375 449.253906 159.84375 448.113281 160.160156 C 448.203125 160.824219 448.25 161.355469 448.25 161.75 C 448.25 163.167969 448.164062 165.113281 447.988281 167.589844 L 454.679688 166.949219 C 456.648438 166.746094 457.855469 166.644531 458.300781 166.644531 C 458.75 166.644531 459.125 166.785156 459.429688 167.070312 C 459.738281 167.355469 459.886719 167.738281 459.886719 168.21875 C 459.886719 169.144531 459.421875 169.664062 458.484375 169.777344 L 454.847656 170.097656 L 447.789062 170.738281 C 447.746094 171.460938 447.714844 172.148438 447.6875 172.796875 C 447.664062 173.441406 447.648438 174.046875 447.648438 174.605469 C 447.648438 176.859375 447.8125 178.183594 448.136719 178.582031 C 448.382812 178.867188 449.183594 179.007812 450.539062 179.007812 C 451.167969 179.007812 452.117188 178.992188 453.386719 178.957031 C 454.65625 178.921875 455.609375 178.902344 456.25 178.902344 C 456.457031 178.902344 456.753906 178.867188 457.152344 178.800781 C 457.550781 178.738281 457.84375 178.703125 458.035156 178.703125 C 459.117188 178.703125 459.65625 179.234375 459.65625 180.292969 C 459.65625 181.148438 459.222656 181.664062 458.355469 181.835938 C 457.402344 182.03125 455.328125 182.128906 452.140625 182.128906 C 448.984375 182.128906 446.957031 181.710938 446.058594 180.875 C 445.082031 179.96875 444.59375 177.878906 444.59375 174.605469 C 444.59375 173.957031 444.609375 173.238281 444.636719 172.46875 C 444.667969 171.691406 444.707031 170.855469 444.757812 169.960938 C 444.648438 169.726562 444.59375 169.476562 444.59375 169.210938 C 444.59375 168.863281 444.691406 168.554688 444.882812 168.277344 C 445.089844 165.335938 445.1875 163.160156 445.1875 161.753906 C 445.1875 161.375 445.136719 160.820312 445.035156 160.09375 C 444.933594 159.363281 444.882812 158.8125 444.882812 158.433594 C 444.882812 157.222656 445.394531 156.613281 446.414062 156.613281 C 446.839844 156.613281 447.207031 156.761719 447.511719 157.058594 C 448.734375 156.730469 449.890625 156.488281 450.972656 156.324219 C 452.058594 156.164062 453.078125 156.082031 454.035156 156.082031 C 456.511719 156.082031 458.488281 156.375 459.964844 156.96875 C 460.648438 157.242188 460.988281 157.730469 460.988281 158.433594 C 460.988281 158.84375 460.859375 159.203125 460.59375 159.519531 C 460.300781 159.867188 459.933594 160.039062 459.496094 160.039062 Z M 459.496094 160.039062 " fill-opacity="1" fill-rule="nonzero"/><path fill="#000000" d="M 299.140625 278.832031 L 296.625 278.832031 L 294.121094 278.820312 C 293.53125 278.820312 293.121094 278.78125 292.882812 278.707031 C 292.453125 278.554688 292.238281 278.234375 292.238281 277.746094 C 292.238281 276.894531 292.898438 276.46875 294.222656 276.46875 L 294.832031 276.480469 L 295.347656 276.507812 C 295.347656 276.101562 295.3125 275.503906 295.242188 274.710938 C 295.167969 273.917969 295.132812 273.324219 295.132812 272.929688 C 295.132812 271.859375 295.230469 270.230469 295.425781 268.046875 C 295.609375 265.898438 295.699219 264.265625 295.6875 263.152344 C 294.558594 264.03125 293.839844 264.46875 293.527344 264.46875 C 293.191406 264.46875 292.898438 264.34375 292.652344 264.089844 C 292.402344 263.835938 292.277344 263.546875 292.277344 263.21875 C 292.277344 262.820312 292.640625 262.339844 293.367188 261.773438 C 293.820312 261.453125 294.464844 260.941406 295.296875 260.234375 C 296.042969 259.484375 296.75 259.105469 297.421875 259.105469 C 297.988281 259.105469 298.269531 259.429688 298.269531 260.082031 C 298.269531 260.273438 298.242188 260.5625 298.191406 260.949219 C 298.140625 261.332031 298.117188 261.621094 298.117188 261.8125 C 298.117188 262.09375 298.128906 262.511719 298.160156 263.078125 C 298.191406 263.644531 298.203125 264.066406 298.203125 264.34375 C 298.203125 265.304688 298.101562 266.738281 297.902344 268.644531 C 297.699219 270.546875 297.597656 271.980469 297.597656 272.929688 C 297.597656 273.421875 297.632812 274.015625 297.699219 274.714844 C 297.769531 275.414062 297.804688 275.988281 297.8125 276.433594 L 299.140625 276.40625 C 299.496094 276.40625 299.789062 276.523438 300.019531 276.753906 C 300.25 276.988281 300.367188 277.277344 300.367188 277.621094 C 300.367188 277.976562 300.25 278.265625 300.019531 278.492188 C 299.785156 278.71875 299.496094 278.832031 299.140625 278.832031 Z M 299.140625 278.832031 " fill-opacity="1" fill-rule="nonzero"/><path fill="#000000" d="M 319.8125 278.847656 C 319.601562 278.847656 319.304688 278.78125 318.921875 278.648438 C 318.539062 278.519531 318.246094 278.453125 318.042969 278.453125 C 317.613281 278.453125 316.96875 278.480469 316.109375 278.53125 C 315.253906 278.578125 314.601562 278.605469 314.164062 278.605469 C 313.835938 278.605469 313.347656 278.648438 312.703125 278.730469 C 312.058594 278.816406 311.574219 278.855469 311.242188 278.855469 C 311.152344 278.855469 311.015625 278.839844 310.839844 278.804688 C 310.664062 278.773438 310.527344 278.757812 310.4375 278.757812 C 309.855469 278.757812 309.476562 278.472656 309.296875 277.910156 C 309.195312 277.613281 309.148438 277.109375 309.148438 276.390625 C 309.148438 274.425781 309.683594 272.847656 310.753906 271.648438 C 311.242188 271.101562 312.558594 270.089844 314.707031 268.617188 C 315.914062 267.789062 316.71875 267.144531 317.121094 266.679688 C 317.847656 265.871094 318.210938 264.925781 318.210938 263.835938 C 318.210938 263.296875 317.859375 262.816406 317.160156 262.394531 C 316.542969 262.015625 315.941406 261.824219 315.351562 261.824219 C 314.578125 261.824219 313.839844 262.046875 313.140625 262.492188 L 311.332031 263.910156 C 310.96875 264.195312 310.679688 264.339844 310.460938 264.339844 C 309.589844 264.339844 309.15625 263.996094 309.15625 263.300781 C 309.15625 262.90625 309.320312 262.566406 309.636719 262.277344 C 310.621094 261.351562 311.480469 260.679688 312.203125 260.269531 C 313.222656 259.6875 314.273438 259.394531 315.351562 259.394531 C 316.71875 259.394531 317.933594 259.765625 319.003906 260.507812 C 320.199219 261.34375 320.796875 262.417969 320.796875 263.722656 C 320.796875 264.582031 320.675781 265.375 320.429688 266.097656 C 320.1875 266.820312 319.816406 267.484375 319.316406 268.085938 C 318.6875 268.84375 317.617188 269.691406 316.109375 270.625 C 314.527344 271.621094 313.484375 272.375 312.988281 272.890625 C 312.050781 273.859375 311.59375 275.035156 311.609375 276.417969 L 314.214844 276.175781 C 316 276.074219 317.273438 276.023438 318.042969 276.023438 C 318.683594 276.023438 319.289062 276.136719 319.863281 276.355469 C 320.621094 276.648438 321 277.058594 321 277.582031 C 321 277.910156 320.886719 278.203125 320.660156 278.460938 C 320.429688 278.71875 320.152344 278.847656 319.8125 278.847656 Z M 319.8125 278.847656 " fill-opacity="1" fill-rule="nonzero"/><path fill="#000000" d="M 339.589844 270.6875 C 339.589844 271 339.484375 271.273438 339.277344 271.503906 C 339.070312 271.734375 338.8125 271.851562 338.5 271.851562 C 338.398438 271.851562 338.25 271.835938 338.046875 271.800781 C 337.84375 271.769531 337.6875 271.75 337.578125 271.75 L 336.3125 271.777344 C 335.800781 271.792969 335.378906 271.792969 335.046875 271.777344 L 335.046875 274.75 C 335.046875 275.507812 334.675781 275.886719 333.921875 275.886719 C 333.554688 275.886719 333.273438 275.792969 333.082031 275.601562 C 332.894531 275.410156 332.796875 275.128906 332.796875 274.75 L 332.785156 273.292969 L 332.773438 271.828125 C 331.753906 271.886719 331.035156 271.914062 330.613281 271.914062 C 329.308594 271.914062 328.65625 271.527344 328.65625 270.75 C 328.65625 270.203125 328.886719 269.863281 329.351562 269.726562 C 329.511719 269.6875 329.929688 269.664062 330.613281 269.664062 C 331.035156 269.664062 331.753906 269.632812 332.773438 269.578125 L 332.761719 268.097656 C 332.761719 267.328125 332.800781 266.796875 332.875 266.503906 C 332.960938 266.199219 333.089844 265.96875 333.269531 265.820312 C 333.445312 265.667969 333.671875 265.589844 333.953125 265.589844 C 334.273438 265.589844 334.542969 265.695312 334.769531 265.902344 C 334.992188 266.109375 335.101562 266.371094 335.101562 266.691406 C 335.101562 266.835938 335.089844 267.0625 335.058594 267.375 C 335.027344 267.6875 335.015625 267.921875 335.015625 268.082031 L 335.027344 269.523438 L 335.972656 269.5625 C 336.140625 269.5625 336.402344 269.550781 336.746094 269.53125 C 337.089844 269.507812 337.347656 269.5 337.515625 269.5 C 338.898438 269.5 339.589844 269.894531 339.589844 270.6875 Z M 339.589844 270.6875 " fill-opacity="1" fill-rule="nonzero"/><path fill="#000000" d="M 354.558594 278.832031 L 352.046875 278.832031 L 349.542969 278.820312 C 348.953125 278.820312 348.539062 278.78125 348.304688 278.707031 C 347.875 278.554688 347.660156 278.234375 347.660156 277.746094 C 347.660156 276.894531 348.320312 276.46875 349.644531 276.46875 L 350.25 276.480469 L 350.769531 276.507812 C 350.769531 276.101562 350.734375 275.503906 350.660156 274.710938 C 350.589844 273.917969 350.554688 273.324219 350.554688 272.929688 C 350.554688 271.859375 350.652344 270.230469 350.84375 268.046875 C 351.03125 265.898438 351.121094 264.265625 351.109375 263.152344 C 349.980469 264.03125 349.257812 264.46875 348.949219 264.46875 C 348.613281 264.46875 348.320312 264.34375 348.070312 264.089844 C 347.820312 263.835938 347.699219 263.546875 347.699219 263.21875 C 347.699219 262.820312 348.0625 262.339844 348.785156 261.773438 C 349.242188 261.453125 349.882812 260.941406 350.71875 260.234375 C 351.460938 259.484375 352.167969 259.105469 352.839844 259.105469 C 353.40625 259.105469 353.6875 259.429688 353.6875 260.082031 C 353.6875 260.273438 353.660156 260.5625 353.613281 260.949219 C 353.5625 261.332031 353.535156 261.621094 353.535156 261.8125 C 353.535156 262.09375 353.550781 262.511719 353.582031 263.078125 C 353.609375 263.644531 353.625 264.066406 353.625 264.34375 C 353.625 265.304688 353.523438 266.738281 353.320312 268.644531 C 353.121094 270.546875 353.019531 271.980469 353.019531 272.929688 C 353.019531 273.421875 353.050781 274.015625 353.121094 274.714844 C 353.1875 275.414062 353.226562 275.988281 353.234375 276.433594 L 354.5625 276.40625 C 354.917969 276.40625 355.210938 276.523438 355.441406 276.753906 C 355.671875 276.988281 355.785156 277.277344 355.785156 277.621094 C 355.785156 277.976562 355.671875 278.265625 355.441406 278.492188 C 355.203125 278.71875 354.914062 278.832031 354.558594 278.832031 Z M 354.558594 278.832031 " fill-opacity="1" fill-rule="nonzero"/><path fill="#000000" d="M 370.140625 279.402344 C 368.867188 279.402344 367.726562 279.136719 366.714844 278.605469 C 365.578125 277.988281 364.808594 277.125 364.414062 276.011719 C 364.363281 275.863281 364.339844 275.714844 364.339844 275.570312 C 364.339844 275.234375 364.464844 274.953125 364.722656 274.730469 C 364.980469 274.507812 365.277344 274.394531 365.613281 274.394531 C 365.953125 274.394531 366.238281 274.550781 366.488281 274.863281 L 367.070312 275.738281 C 367.371094 276.152344 367.777344 276.460938 368.296875 276.667969 C 368.808594 276.875 369.421875 276.976562 370.140625 276.976562 C 371.058594 276.976562 371.863281 276.6875 372.554688 276.113281 C 373.285156 275.507812 373.65625 274.765625 373.65625 273.890625 C 373.65625 272.617188 373.1875 271.601562 372.25 270.839844 C 371.425781 270.183594 370.328125 269.785156 368.964844 269.640625 C 368.03125 269.546875 367.5625 269.167969 367.5625 268.503906 C 367.5625 268.003906 367.929688 267.625 368.664062 267.363281 L 371.6875 266.617188 C 372.265625 266.40625 372.707031 266.121094 373 265.765625 C 373.292969 265.40625 373.445312 264.96875 373.457031 264.457031 C 373.472656 263.714844 373.183594 263.117188 372.597656 262.660156 C 371.980469 262.1875 371.117188 261.953125 370.003906 261.953125 C 369.429688 261.953125 368.875 262.09375 368.335938 262.371094 L 366.90625 263.269531 C 366.628906 263.445312 366.40625 263.535156 366.234375 263.535156 C 365.898438 263.535156 365.609375 263.40625 365.371094 263.148438 C 365.128906 262.890625 365.007812 262.597656 365.007812 262.269531 C 365.007812 261.601562 365.652344 260.960938 366.941406 260.347656 C 368.0625 259.796875 368.984375 259.523438 369.710938 259.523438 C 371.523438 259.523438 372.960938 259.921875 374.023438 260.726562 C 375.160156 261.585938 375.726562 262.808594 375.726562 264.40625 C 375.726562 266.386719 374.925781 267.691406 373.324219 268.324219 C 373.183594 268.386719 373.019531 268.441406 372.832031 268.503906 C 373.953125 268.917969 374.789062 269.535156 375.347656 270.355469 C 375.902344 271.179688 376.183594 272.203125 376.183594 273.433594 C 376.183594 275.09375 375.597656 276.507812 374.425781 277.664062 C 373.253906 278.824219 371.824219 279.402344 370.140625 279.402344 Z M 370.140625 279.402344 " fill-opacity="1" fill-rule="nonzero"/><path fill="#000000" d="M 387.5625 266.1875 L 393.464844 266.199219 C 394.214844 266.199219 394.589844 266.574219 394.589844 267.324219 C 394.589844 268.074219 394.214844 268.449219 393.464844 268.449219 L 387.550781 268.4375 C 387.355469 268.4375 387.066406 268.449219 386.679688 268.46875 C 386.300781 268.492188 386.015625 268.503906 385.828125 268.503906 C 385.5 268.503906 385.230469 268.394531 385.027344 268.171875 C 384.820312 267.953125 384.71875 267.683594 384.71875 267.363281 C 384.71875 266.757812 385.074219 266.386719 385.78125 266.25 C 385.964844 266.207031 386.558594 266.1875 387.5625 266.1875 Z M 388.28125 272.976562 C 388.835938 272.976562 389.675781 272.988281 390.789062 273.015625 C 391.898438 273.039062 392.734375 273.054688 393.289062 273.054688 C 394.039062 273.054688 394.414062 273.425781 394.414062 274.179688 C 394.414062 274.929688 394.039062 275.304688 393.289062 275.304688 C 392.734375 275.304688 391.898438 275.292969 390.789062 275.265625 C 389.675781 275.242188 388.835938 275.226562 388.28125 275.226562 C 388.03125 275.226562 387.652344 275.246094 387.148438 275.277344 C 386.640625 275.3125 386.265625 275.328125 386.023438 275.328125 C 385.246094 275.328125 384.859375 274.953125 384.859375 274.203125 C 384.859375 273.511719 385.222656 273.136719 385.945312 273.078125 C 386.878906 273.011719 387.660156 272.976562 388.28125 272.976562 Z M 388.28125 272.976562 " fill-opacity="1" fill-rule="nonzero"/></svg>