<svg xmlns="http://www.w3.org/2000/svg" xmlns:xlink="http://www.w3.org/1999/xlink" width="1029" zoomAndPan="magnify" viewBox="0 0 771.75 619.499986" height="826" preserveAspectRatio="xMidYMid meet" version="1.0"><defs><clipPath id="cb1b8a9afd"><path d="M 427 230 L 771.3125 230 L 771.3125 501.222656 L 427 501.222656 Z M 427 230 " clip-rule="nonzero"/></clipPath><clipPath id="d7bd533eb6"><path d="M 427 230 L 771.3125 230 L 771.3125 249 L 427 249 Z M 427 230 " clip-rule="nonzero"/></clipPath><clipPath id="a3732f66b1"><path d="M 0.1875 118.160156 L 406 118.160156 L 406 444 L 0.1875 444 Z M 0.1875 118.160156 " clip-rule="nonzero"/></clipPath><clipPath id="37a521d7aa"><path d="M 0.1875 118.160156 L 406 118.160156 L 406 140 L 0.1875 140 Z M 0.1875 118.160156 " clip-rule="nonzero"/></clipPath><clipPath id="a4ddcf478e"><path d="M 56 272 L 178 272 L 178 443.632812 L 56 443.632812 Z M 56 272 " clip-rule="nonzero"/></clipPath><clipPath id="dac82105d8"><path d="M 26 342 L 82 342 L 82 443.632812 L 26 443.632812 Z M 26 342 " clip-rule="nonzero"/></clipPath><clipPath id="60e0f644c3"><path d="M 567 443 L 610 443 L 610 501.15625 L 567 501.15625 Z M 567 443 " clip-rule="nonzero"/></clipPath><clipPath id="13188e976b"><path d="M 594 394 L 707 394 L 707 501.15625 L 594 501.15625 Z M 594 394 " clip-rule="nonzero"/></clipPath><clipPath id="9515da5291"><path d="M 686 442 L 733 442 L 733 501.15625 L 686 501.15625 Z M 686 442 " clip-rule="nonzero"/></clipPath><clipPath id="53f3b67b34"><path d="M 636 489 L 733 489 L 733 501.15625 L 636 501.15625 Z M 636 489 " clip-rule="nonzero"/></clipPath><clipPath id="d4a26f680b"><path d="M 605 488 L 641 488 L 641 501.15625 L 605 501.15625 Z M 605 488 " clip-rule="nonzero"/></clipPath></defs><g clip-path="url(#cb1b8a9afd)"><path fill="#ffffff" d="M 427.441406 230.257812 L 771.480469 230.257812 L 771.480469 501.15625 L 427.441406 501.15625 Z M 427.441406 230.257812 " fill-opacity="1" fill-rule="nonzero"/></g><g clip-path="url(#d7bd533eb6)"><path fill="#000000" d="M 427.441406 230.257812 L 771.480469 230.257812 L 771.480469 248.398438 L 427.441406 248.398438 Z M 427.441406 230.257812 " fill-opacity="0.2667" fill-rule="nonzero"/></g><path fill="#000000" d="M 449.976562 239.484375 C 449.976562 239.78125 449.949219 240.074219 449.890625 240.363281 C 449.832031 240.65625 449.746094 240.9375 449.632812 241.210938 C 449.519531 241.484375 449.382812 241.746094 449.21875 241.992188 C 449.054688 242.238281 448.867188 242.464844 448.65625 242.671875 C 448.449219 242.882812 448.21875 243.070312 447.972656 243.234375 C 447.726562 243.398438 447.46875 243.539062 447.195312 243.652344 C 446.921875 243.765625 446.640625 243.851562 446.351562 243.90625 C 446.058594 243.964844 445.765625 243.996094 445.46875 243.996094 C 445.175781 243.996094 444.882812 243.964844 444.589844 243.90625 C 444.300781 243.851562 444.019531 243.765625 443.746094 243.652344 C 443.472656 243.539062 443.210938 243.398438 442.964844 243.234375 C 442.71875 243.070312 442.492188 242.882812 442.285156 242.671875 C 442.074219 242.464844 441.886719 242.238281 441.722656 241.992188 C 441.558594 241.746094 441.421875 241.484375 441.308594 241.210938 C 441.195312 240.9375 441.109375 240.65625 441.050781 240.363281 C 440.992188 240.074219 440.964844 239.78125 440.964844 239.484375 C 440.964844 239.1875 440.992188 238.894531 441.050781 238.605469 C 441.109375 238.316406 441.195312 238.035156 441.308594 237.761719 C 441.421875 237.488281 441.558594 237.226562 441.722656 236.980469 C 441.886719 236.734375 442.074219 236.507812 442.285156 236.296875 C 442.492188 236.085938 442.71875 235.902344 442.964844 235.738281 C 443.210938 235.570312 443.472656 235.433594 443.746094 235.320312 C 444.019531 235.207031 444.300781 235.121094 444.589844 235.0625 C 444.882812 235.003906 445.175781 234.976562 445.46875 234.976562 C 445.765625 234.976562 446.058594 235.003906 446.351562 235.0625 C 446.640625 235.121094 446.921875 235.207031 447.195312 235.320312 C 447.46875 235.433594 447.726562 235.570312 447.972656 235.738281 C 448.21875 235.902344 448.449219 236.085938 448.65625 236.296875 C 448.867188 236.507812 449.054688 236.734375 449.21875 236.980469 C 449.382812 237.226562 449.519531 237.488281 449.632812 237.761719 C 449.746094 238.035156 449.832031 238.316406 449.890625 238.605469 C 449.949219 238.894531 449.976562 239.1875 449.976562 239.484375 Z M 449.976562 239.484375 " fill-opacity="0.5686" fill-rule="nonzero"/><path fill="#000000" d="M 466.921875 239.484375 C 466.921875 239.78125 466.894531 240.074219 466.835938 240.363281 C 466.777344 240.65625 466.695312 240.9375 466.582031 241.210938 C 466.46875 241.484375 466.328125 241.746094 466.164062 241.992188 C 466 242.238281 465.8125 242.464844 465.605469 242.671875 C 465.394531 242.882812 465.167969 243.070312 464.921875 243.234375 C 464.675781 243.398438 464.414062 243.539062 464.140625 243.652344 C 463.867188 243.765625 463.585938 243.851562 463.296875 243.90625 C 463.007812 243.964844 462.710938 243.996094 462.417969 243.996094 C 462.121094 243.996094 461.828125 243.964844 461.539062 243.90625 C 461.246094 243.851562 460.964844 243.765625 460.691406 243.652344 C 460.417969 243.539062 460.160156 243.398438 459.914062 243.234375 C 459.667969 243.070312 459.4375 242.882812 459.230469 242.671875 C 459.019531 242.464844 458.835938 242.238281 458.667969 241.992188 C 458.503906 241.746094 458.367188 241.484375 458.253906 241.210938 C 458.140625 240.9375 458.054688 240.65625 457.996094 240.363281 C 457.9375 240.074219 457.910156 239.78125 457.910156 239.484375 C 457.910156 239.1875 457.9375 238.894531 457.996094 238.605469 C 458.054688 238.316406 458.140625 238.035156 458.253906 237.761719 C 458.367188 237.488281 458.503906 237.226562 458.667969 236.980469 C 458.835938 236.734375 459.019531 236.507812 459.230469 236.296875 C 459.4375 236.085938 459.667969 235.902344 459.914062 235.738281 C 460.160156 235.570312 460.417969 235.433594 460.691406 235.320312 C 460.964844 235.207031 461.246094 235.121094 461.539062 235.0625 C 461.828125 235.003906 462.121094 234.976562 462.417969 234.976562 C 462.710938 234.976562 463.007812 235.003906 463.296875 235.0625 C 463.585938 235.121094 463.867188 235.207031 464.140625 235.320312 C 464.414062 235.433594 464.675781 235.570312 464.921875 235.738281 C 465.167969 235.902344 465.394531 236.085938 465.605469 236.296875 C 465.8125 236.507812 466 236.734375 466.164062 236.980469 C 466.328125 237.226562 466.46875 237.488281 466.582031 237.761719 C 466.695312 238.035156 466.777344 238.316406 466.835938 238.605469 C 466.894531 238.894531 466.921875 239.1875 466.921875 239.484375 Z M 466.921875 239.484375 " fill-opacity="0.5686" fill-rule="nonzero"/><path fill="#000000" d="M 483.78125 239.484375 C 483.78125 239.78125 483.75 240.074219 483.695312 240.363281 C 483.636719 240.65625 483.550781 240.9375 483.4375 241.210938 C 483.324219 241.484375 483.183594 241.746094 483.019531 241.992188 C 482.855469 242.238281 482.667969 242.464844 482.460938 242.671875 C 482.25 242.882812 482.023438 243.070312 481.777344 243.234375 C 481.53125 243.398438 481.273438 243.539062 481 243.652344 C 480.726562 243.765625 480.441406 243.851562 480.152344 243.90625 C 479.863281 243.964844 479.570312 243.996094 479.273438 243.996094 C 478.976562 243.996094 478.683594 243.964844 478.394531 243.90625 C 478.105469 243.851562 477.824219 243.765625 477.550781 243.652344 C 477.277344 243.539062 477.015625 243.398438 476.769531 243.234375 C 476.523438 243.070312 476.296875 242.882812 476.085938 242.671875 C 475.878906 242.464844 475.691406 242.238281 475.527344 241.992188 C 475.363281 241.746094 475.222656 241.484375 475.109375 241.210938 C 474.996094 240.9375 474.910156 240.65625 474.855469 240.363281 C 474.796875 240.074219 474.765625 239.78125 474.765625 239.484375 C 474.765625 239.1875 474.796875 238.894531 474.855469 238.605469 C 474.910156 238.316406 474.996094 238.035156 475.109375 237.761719 C 475.222656 237.488281 475.363281 237.226562 475.527344 236.980469 C 475.691406 236.734375 475.878906 236.507812 476.085938 236.296875 C 476.296875 236.085938 476.523438 235.902344 476.769531 235.738281 C 477.015625 235.570312 477.277344 235.433594 477.550781 235.320312 C 477.824219 235.207031 478.105469 235.121094 478.394531 235.0625 C 478.683594 235.003906 478.976562 234.976562 479.273438 234.976562 C 479.570312 234.976562 479.863281 235.003906 480.152344 235.0625 C 480.441406 235.121094 480.726562 235.207031 481 235.320312 C 481.273438 235.433594 481.53125 235.570312 481.777344 235.738281 C 482.023438 235.902344 482.25 236.085938 482.460938 236.296875 C 482.667969 236.507812 482.855469 236.734375 483.019531 236.980469 C 483.183594 237.226562 483.324219 237.488281 483.4375 237.761719 C 483.550781 238.035156 483.636719 238.316406 483.695312 238.605469 C 483.75 238.894531 483.78125 239.1875 483.78125 239.484375 Z M 483.78125 239.484375 " fill-opacity="0.5686" fill-rule="nonzero"/><g clip-path="url(#a3732f66b1)"><path fill="#ffffff" d="M 0.296875 118.160156 L 405.589844 118.160156 L 405.589844 443.632812 L 0.296875 443.632812 Z M 0.296875 118.160156 " fill-opacity="1" fill-rule="nonzero"/></g><g clip-path="url(#37a521d7aa)"><path fill="#000000" d="M 0.296875 118.160156 L 405.589844 118.160156 L 405.589844 139.953125 L 0.296875 139.953125 Z M 0.296875 118.160156 " fill-opacity="0.2667" fill-rule="nonzero"/></g><path fill="#000000" d="M 26.84375 129.246094 C 26.84375 129.601562 26.8125 129.953125 26.742188 130.300781 C 26.675781 130.648438 26.574219 130.988281 26.441406 131.316406 C 26.308594 131.644531 26.144531 131.957031 25.949219 132.253906 C 25.757812 132.550781 25.535156 132.824219 25.289062 133.074219 C 25.042969 133.328125 24.777344 133.550781 24.484375 133.75 C 24.195312 133.945312 23.890625 134.113281 23.566406 134.25 C 23.246094 134.386719 22.914062 134.488281 22.570312 134.558594 C 22.230469 134.628906 21.882812 134.664062 21.535156 134.664062 C 21.1875 134.664062 20.84375 134.628906 20.5 134.558594 C 20.160156 134.488281 19.828125 134.386719 19.503906 134.25 C 19.183594 134.113281 18.875 133.945312 18.585938 133.75 C 18.296875 133.550781 18.027344 133.328125 17.78125 133.074219 C 17.535156 132.824219 17.316406 132.550781 17.121094 132.253906 C 16.929688 131.957031 16.765625 131.644531 16.632812 131.316406 C 16.496094 130.988281 16.398438 130.648438 16.328125 130.300781 C 16.261719 129.953125 16.226562 129.601562 16.226562 129.246094 C 16.226562 128.886719 16.261719 128.535156 16.328125 128.1875 C 16.398438 127.839844 16.496094 127.5 16.632812 127.171875 C 16.765625 126.84375 16.929688 126.53125 17.121094 126.234375 C 17.316406 125.9375 17.535156 125.664062 17.78125 125.414062 C 18.027344 125.160156 18.296875 124.9375 18.585938 124.738281 C 18.875 124.542969 19.183594 124.375 19.503906 124.238281 C 19.828125 124.101562 20.160156 124 20.5 123.929688 C 20.84375 123.859375 21.1875 123.828125 21.535156 123.828125 C 21.882812 123.828125 22.230469 123.859375 22.570312 123.929688 C 22.914062 124 23.246094 124.101562 23.566406 124.238281 C 23.890625 124.375 24.195312 124.542969 24.484375 124.738281 C 24.777344 124.9375 25.042969 125.160156 25.289062 125.414062 C 25.535156 125.664062 25.757812 125.9375 25.949219 126.234375 C 26.144531 126.53125 26.308594 126.84375 26.441406 127.171875 C 26.574219 127.5 26.675781 127.839844 26.742188 128.1875 C 26.8125 128.535156 26.84375 128.886719 26.84375 129.246094 Z M 26.84375 129.246094 " fill-opacity="0.5686" fill-rule="nonzero"/><path fill="#000000" d="M 46.808594 129.246094 C 46.808594 129.601562 46.773438 129.953125 46.707031 130.300781 C 46.636719 130.648438 46.539062 130.988281 46.40625 131.316406 C 46.269531 131.644531 46.109375 131.957031 45.914062 132.253906 C 45.71875 132.550781 45.5 132.824219 45.253906 133.074219 C 45.007812 133.328125 44.738281 133.550781 44.449219 133.75 C 44.160156 133.945312 43.851562 134.113281 43.53125 134.25 C 43.210938 134.386719 42.878906 134.488281 42.535156 134.558594 C 42.191406 134.628906 41.847656 134.664062 41.5 134.664062 C 41.152344 134.664062 40.804688 134.628906 40.464844 134.558594 C 40.121094 134.488281 39.789062 134.386719 39.46875 134.25 C 39.144531 134.113281 38.839844 133.945312 38.550781 133.75 C 38.261719 133.550781 37.992188 133.328125 37.746094 133.074219 C 37.5 132.824219 37.277344 132.550781 37.085938 132.253906 C 36.890625 131.957031 36.726562 131.644531 36.59375 131.316406 C 36.460938 130.988281 36.359375 130.648438 36.292969 130.300781 C 36.222656 129.953125 36.191406 129.601562 36.191406 129.246094 C 36.191406 128.886719 36.222656 128.535156 36.292969 128.1875 C 36.359375 127.839844 36.460938 127.5 36.59375 127.171875 C 36.726562 126.84375 36.890625 126.53125 37.085938 126.234375 C 37.277344 125.9375 37.5 125.664062 37.746094 125.414062 C 37.992188 125.160156 38.261719 124.9375 38.550781 124.738281 C 38.839844 124.542969 39.144531 124.375 39.46875 124.238281 C 39.789062 124.101562 40.121094 124 40.464844 123.929688 C 40.804688 123.859375 41.152344 123.828125 41.5 123.828125 C 41.847656 123.828125 42.191406 123.859375 42.535156 123.929688 C 42.878906 124 43.210938 124.101562 43.53125 124.238281 C 43.851562 124.375 44.160156 124.542969 44.449219 124.738281 C 44.738281 124.9375 45.007812 125.160156 45.253906 125.414062 C 45.5 125.664062 45.71875 125.9375 45.914062 126.234375 C 46.109375 126.53125 46.269531 126.84375 46.40625 127.171875 C 46.539062 127.5 46.636719 127.839844 46.707031 128.1875 C 46.773438 128.535156 46.808594 128.886719 46.808594 129.246094 Z M 46.808594 129.246094 " fill-opacity="0.5686" fill-rule="nonzero"/><path fill="#000000" d="M 66.667969 129.246094 C 66.667969 129.601562 66.632812 129.953125 66.566406 130.300781 C 66.496094 130.648438 66.398438 130.988281 66.261719 131.316406 C 66.128906 131.644531 65.964844 131.957031 65.773438 132.253906 C 65.578125 132.550781 65.359375 132.824219 65.113281 133.074219 C 64.867188 133.328125 64.597656 133.550781 64.308594 133.75 C 64.019531 133.945312 63.710938 134.113281 63.390625 134.25 C 63.066406 134.386719 62.734375 134.488281 62.394531 134.558594 C 62.050781 134.628906 61.707031 134.664062 61.359375 134.664062 C 61.007812 134.664062 60.664062 134.628906 60.324219 134.558594 C 59.980469 134.488281 59.648438 134.386719 59.328125 134.25 C 59.003906 134.113281 58.699219 133.945312 58.410156 133.75 C 58.117188 133.550781 57.851562 133.328125 57.605469 133.074219 C 57.359375 132.824219 57.136719 132.550781 56.945312 132.253906 C 56.75 131.957031 56.585938 131.644531 56.453125 131.316406 C 56.320312 130.988281 56.21875 130.648438 56.152344 130.300781 C 56.082031 129.953125 56.050781 129.601562 56.050781 129.246094 C 56.050781 128.886719 56.082031 128.535156 56.152344 128.1875 C 56.21875 127.839844 56.320312 127.5 56.453125 127.171875 C 56.585938 126.84375 56.75 126.53125 56.945312 126.234375 C 57.136719 125.9375 57.359375 125.664062 57.605469 125.414062 C 57.851562 125.160156 58.117188 124.9375 58.410156 124.738281 C 58.699219 124.542969 59.003906 124.375 59.328125 124.238281 C 59.648438 124.101562 59.980469 124 60.324219 123.929688 C 60.664062 123.859375 61.007812 123.828125 61.359375 123.828125 C 61.707031 123.828125 62.050781 123.859375 62.394531 123.929688 C 62.734375 124 63.066406 124.101562 63.390625 124.238281 C 63.710938 124.375 64.019531 124.542969 64.308594 124.738281 C 64.597656 124.9375 64.867188 125.160156 65.113281 125.414062 C 65.359375 125.664062 65.578125 125.9375 65.773438 126.234375 C 65.964844 126.53125 66.128906 126.84375 66.261719 127.171875 C 66.398438 127.5 66.496094 127.839844 66.566406 128.1875 C 66.632812 128.535156 66.667969 128.886719 66.667969 129.246094 Z M 66.667969 129.246094 " fill-opacity="0.5686" fill-rule="nonzero"/><path fill="#000000" d="M 345.371094 279.234375 C 344.796875 279.234375 344.3125 278.792969 344.273438 278.210938 L 342.257812 248.472656 C 342.21875 247.867188 342.675781 247.34375 343.28125 247.304688 C 343.898438 247.269531 344.410156 247.71875 344.449219 248.324219 L 346.464844 278.0625 C 346.503906 278.667969 346.046875 279.191406 345.445312 279.234375 C 345.417969 279.234375 345.394531 279.234375 345.371094 279.234375 Z M 345.371094 279.234375 " fill-opacity="1" fill-rule="nonzero"/><path fill="#000000" d="M 328.996094 264.367188 C 328.414062 264.367188 327.929688 263.910156 327.898438 263.320312 C 327.871094 262.714844 328.335938 262.199219 328.941406 262.167969 L 359.421875 260.65625 C 360.023438 260.617188 360.542969 261.089844 360.574219 261.699219 C 360.605469 262.304688 360.136719 262.820312 359.53125 262.851562 L 329.050781 264.363281 C 329.03125 264.367188 329.011719 264.367188 328.996094 264.367188 Z M 328.996094 264.367188 " fill-opacity="1" fill-rule="nonzero"/><path fill="#000000" d="M 349.894531 188.390625 L 298.003906 188.390625 C 297.75 188.390625 297.519531 188.238281 297.425781 188 C 297.328125 187.765625 297.386719 187.492188 297.570312 187.316406 L 322.253906 163.628906 C 322.371094 163.515625 322.527344 163.453125 322.6875 163.453125 L 373.066406 163.453125 C 373.316406 163.453125 373.542969 163.605469 373.640625 163.835938 C 373.738281 164.070312 373.6875 164.335938 373.511719 164.519531 L 350.339844 188.207031 C 350.222656 188.324219 350.0625 188.390625 349.894531 188.390625 Z M 299.558594 187.140625 L 349.628906 187.140625 L 371.582031 164.703125 L 322.9375 164.703125 Z M 299.558594 187.140625 " fill-opacity="1" fill-rule="nonzero"/><path fill="#000000" d="M 349.894531 225.1875 L 298.003906 225.1875 C 297.660156 225.1875 297.382812 224.90625 297.382812 224.5625 L 297.382812 187.769531 C 297.382812 187.421875 297.660156 187.144531 298.003906 187.144531 C 298.347656 187.144531 298.628906 187.421875 298.628906 187.769531 L 298.628906 223.9375 L 349.269531 223.9375 L 349.269531 187.769531 C 349.269531 187.421875 349.546875 187.144531 349.894531 187.144531 C 350.238281 187.144531 350.515625 187.421875 350.515625 187.769531 L 350.515625 224.5625 C 350.519531 224.90625 350.238281 225.1875 349.894531 225.1875 Z M 349.894531 225.1875 " fill-opacity="1" fill-rule="nonzero"/><path fill="#000000" d="M 349.894531 225.1875 C 349.710938 225.1875 349.527344 225.105469 349.40625 224.949219 C 349.191406 224.679688 349.234375 224.285156 349.503906 224.070312 L 372.441406 205.863281 L 372.441406 164.078125 C 372.441406 163.730469 372.71875 163.453125 373.066406 163.453125 C 373.414062 163.453125 373.691406 163.734375 373.691406 164.078125 L 373.691406 206.164062 C 373.691406 206.355469 373.605469 206.535156 373.457031 206.65625 L 350.28125 225.050781 C 350.167969 225.144531 350.03125 225.1875 349.894531 225.1875 Z M 349.894531 225.1875 " fill-opacity="1" fill-rule="nonzero"/><path fill="#000000" d="M 291.785156 336.113281 C 291.691406 336.121094 291.601562 336.101562 291.519531 336.054688 C 291.441406 336.011719 291.367188 335.945312 291.308594 335.871094 C 291.246094 335.789062 291.195312 335.699219 291.15625 335.605469 C 291.113281 335.507812 291.09375 335.410156 291.085938 335.316406 C 291.074219 335.191406 291.082031 335.085938 291.105469 334.992188 C 291.132812 334.898438 291.167969 334.816406 291.210938 334.746094 C 291.253906 334.675781 291.300781 334.621094 291.351562 334.574219 C 291.402344 334.53125 291.449219 334.5 291.496094 334.476562 C 291.644531 334.425781 291.820312 334.367188 292.023438 334.308594 C 292.222656 334.246094 292.441406 334.164062 292.675781 334.058594 C 292.910156 333.949219 293.15625 333.820312 293.417969 333.660156 C 293.679688 333.5 293.945312 333.296875 294.21875 333.050781 C 294.488281 332.800781 294.769531 332.515625 295.066406 332.191406 C 295.359375 331.871094 295.640625 331.492188 295.902344 331.070312 C 296.167969 330.644531 296.40625 330.164062 296.625 329.628906 C 296.839844 329.09375 297.003906 328.484375 297.117188 327.800781 C 297.007812 327.949219 296.878906 328.113281 296.734375 328.292969 C 296.589844 328.476562 296.433594 328.664062 296.269531 328.855469 C 296.105469 329.042969 295.929688 329.226562 295.75 329.410156 C 295.574219 329.589844 295.390625 329.75 295.210938 329.898438 C 295.027344 330.042969 294.847656 330.164062 294.671875 330.253906 C 294.496094 330.347656 294.324219 330.394531 294.164062 330.410156 C 293.738281 330.445312 293.363281 330.375 293.042969 330.203125 C 292.726562 330.03125 292.421875 329.730469 292.132812 329.300781 C 292.050781 329.179688 291.980469 329.015625 291.929688 328.8125 C 291.875 328.613281 291.839844 328.40625 291.820312 328.191406 C 291.792969 327.84375 291.78125 327.507812 291.789062 327.175781 C 291.792969 326.847656 291.816406 326.503906 291.855469 326.144531 C 291.890625 325.785156 291.9375 325.410156 291.992188 325.015625 C 292.050781 324.621094 292.113281 324.183594 292.183594 323.707031 C 292.183594 323.585938 292.183594 323.46875 292.1875 323.355469 C 292.191406 323.265625 292.195312 323.179688 292.191406 323.09375 C 292.1875 323.011719 292.1875 322.957031 292.191406 322.941406 C 292.195312 322.828125 292.226562 322.726562 292.277344 322.625 C 292.332031 322.519531 292.398438 322.429688 292.480469 322.351562 C 292.558594 322.277344 292.648438 322.214844 292.746094 322.167969 C 292.839844 322.121094 292.9375 322.097656 293.035156 322.089844 C 293.167969 322.078125 293.304688 322.078125 293.441406 322.089844 C 293.578125 322.101562 293.6875 322.140625 293.769531 322.210938 C 293.886719 322.320312 293.980469 322.464844 294.050781 322.644531 C 294.121094 322.828125 294.160156 322.992188 294.171875 323.140625 C 294.175781 323.195312 294.15625 323.3125 294.117188 323.492188 C 294.074219 323.667969 294.011719 323.851562 293.921875 324.050781 C 293.816406 324.640625 293.726562 325.136719 293.664062 325.546875 C 293.597656 325.957031 293.546875 326.296875 293.515625 326.566406 C 293.480469 326.839844 293.460938 327.054688 293.449219 327.214844 C 293.441406 327.375 293.4375 327.492188 293.445312 327.574219 C 293.472656 327.925781 293.550781 328.195312 293.683594 328.390625 C 293.816406 328.589844 293.964844 328.679688 294.132812 328.664062 C 294.226562 328.65625 294.335938 328.628906 294.460938 328.578125 C 294.582031 328.53125 294.707031 328.460938 294.84375 328.359375 C 295.355469 327.980469 295.792969 327.578125 296.148438 327.15625 C 296.503906 326.730469 296.804688 326.265625 297.046875 325.765625 C 297.289062 325.265625 297.488281 324.722656 297.644531 324.136719 C 297.800781 323.546875 297.9375 322.90625 298.050781 322.203125 C 298.058594 322.160156 298.085938 322.109375 298.128906 322.0625 C 298.171875 322.015625 298.226562 321.972656 298.292969 321.933594 C 298.359375 321.898438 298.429688 321.863281 298.503906 321.832031 C 298.582031 321.804688 298.652344 321.789062 298.722656 321.78125 C 299.066406 321.753906 299.332031 321.828125 299.53125 321.996094 C 299.726562 322.167969 299.835938 322.402344 299.863281 322.710938 C 299.867188 322.828125 299.855469 323.015625 299.820312 323.277344 C 299.78125 323.539062 299.738281 323.816406 299.679688 324.105469 C 299.625 324.398438 299.570312 324.675781 299.507812 324.945312 C 299.449219 325.210938 299.402344 325.40625 299.367188 325.53125 L 299.007812 326.90625 C 298.84375 327.523438 298.699219 328.09375 298.566406 328.613281 C 298.4375 329.136719 298.292969 329.625 298.136719 330.078125 C 297.980469 330.53125 297.792969 330.96875 297.582031 331.375 C 297.375 331.789062 297.113281 332.191406 296.804688 332.589844 C 296.492188 332.988281 296.117188 333.394531 295.679688 333.804688 C 295.238281 334.222656 294.710938 334.652344 294.097656 335.109375 C 293.714844 335.378906 293.34375 335.605469 292.972656 335.78125 C 292.609375 335.972656 292.210938 336.078125 291.785156 336.113281 Z M 291.785156 336.113281 " fill-opacity="1" fill-rule="nonzero"/><path fill="#000000" d="M 309.21875 324.167969 C 309.710938 324.128906 309.980469 324.363281 310.019531 324.859375 C 310.066406 325.449219 309.730469 325.773438 309.007812 325.832031 C 307.996094 325.910156 306.796875 326.035156 305.417969 326.203125 C 304.035156 326.371094 303.078125 326.503906 302.542969 326.601562 C 302.171875 326.671875 301.925781 326.710938 301.796875 326.71875 C 301.417969 326.75 301.203125 326.441406 301.152344 325.800781 C 301.136719 325.589844 301.234375 325.414062 301.449219 325.269531 C 301.664062 325.128906 301.980469 325.015625 302.398438 324.941406 C 302.816406 324.867188 303.855469 324.734375 305.511719 324.546875 C 307.175781 324.359375 308.410156 324.230469 309.21875 324.167969 Z M 309.511719 320.375 C 310.011719 320.335938 310.28125 320.566406 310.320312 321.066406 C 310.367188 321.65625 310.023438 321.980469 309.285156 322.039062 C 308.273438 322.121094 307.085938 322.242188 305.710938 322.40625 C 304.335938 322.574219 303.382812 322.707031 302.855469 322.808594 C 302.472656 322.875 302.214844 322.914062 302.078125 322.925781 C 301.707031 322.953125 301.496094 322.648438 301.445312 322.007812 C 301.429688 321.792969 301.53125 321.617188 301.746094 321.476562 C 301.964844 321.332031 302.28125 321.222656 302.699219 321.148438 C 303.117188 321.070312 304.152344 320.941406 305.8125 320.75 C 307.46875 320.5625 308.707031 320.4375 309.511719 320.375 Z M 309.511719 320.375 " fill-opacity="1" fill-rule="nonzero"/><path fill="#000000" d="M 312.902344 329.332031 C 313.035156 328.566406 313.164062 327.851562 313.292969 327.1875 C 313.421875 326.527344 313.550781 325.890625 313.671875 325.285156 C 313.792969 324.679688 313.914062 324.085938 314.03125 323.515625 C 314.148438 322.949219 314.257812 322.367188 314.359375 321.777344 C 314.398438 321.546875 314.414062 321.328125 314.40625 321.117188 C 314.402344 320.910156 314.414062 320.6875 314.449219 320.460938 C 314.46875 320.382812 314.511719 320.308594 314.570312 320.242188 C 314.632812 320.175781 314.707031 320.117188 314.785156 320.066406 C 314.867188 320.011719 314.949219 319.972656 315.042969 319.9375 C 315.132812 319.902344 315.21875 319.886719 315.304688 319.878906 C 315.480469 319.863281 315.632812 319.875 315.753906 319.910156 C 315.875 319.941406 315.976562 319.988281 316.058594 320.054688 C 316.136719 320.117188 316.195312 320.199219 316.230469 320.296875 C 316.269531 320.394531 316.292969 320.503906 316.300781 320.625 C 316.316406 320.847656 316.300781 321.066406 316.246094 321.292969 C 316.195312 321.519531 316.128906 321.769531 316.042969 322.039062 C 316.328125 321.777344 316.621094 321.53125 316.921875 321.292969 C 317.222656 321.058594 317.535156 320.84375 317.859375 320.65625 C 318.183594 320.46875 318.515625 320.3125 318.863281 320.191406 C 319.207031 320.070312 319.570312 319.992188 319.949219 319.957031 C 320.121094 319.945312 320.296875 319.957031 320.476562 320 C 320.652344 320.039062 320.816406 320.113281 320.960938 320.21875 C 321.109375 320.324219 321.234375 320.464844 321.34375 320.644531 C 321.449219 320.824219 321.519531 321.046875 321.554688 321.316406 C 321.816406 321.105469 322.085938 320.898438 322.367188 320.683594 C 322.648438 320.472656 322.933594 320.277344 323.226562 320.101562 C 323.519531 319.925781 323.816406 319.777344 324.113281 319.664062 C 324.410156 319.550781 324.703125 319.476562 324.992188 319.457031 C 325.421875 319.421875 325.78125 319.449219 326.070312 319.542969 C 326.359375 319.632812 326.59375 319.761719 326.769531 319.941406 C 326.949219 320.117188 327.082031 320.328125 327.167969 320.574219 C 327.253906 320.816406 327.3125 321.082031 327.332031 321.367188 C 327.359375 321.675781 327.355469 321.992188 327.320312 322.324219 C 327.289062 322.660156 327.25 322.976562 327.203125 323.273438 C 327.074219 324.035156 326.921875 324.757812 326.742188 325.4375 C 326.5625 326.121094 326.367188 326.8125 326.152344 327.515625 C 326.097656 327.679688 326.042969 327.855469 325.988281 328.039062 C 325.929688 328.226562 325.863281 328.398438 325.78125 328.554688 C 325.699219 328.714844 325.601562 328.847656 325.484375 328.957031 C 325.367188 329.066406 325.226562 329.125 325.058594 329.140625 C 324.679688 329.171875 324.414062 329.128906 324.261719 329.011719 C 324.113281 328.894531 324.027344 328.714844 324.007812 328.480469 C 324 328.414062 324 328.339844 324 328.253906 C 324 328.171875 324.007812 328.089844 324.03125 328.007812 C 324.046875 327.914062 324.09375 327.769531 324.167969 327.578125 C 324.246094 327.390625 324.328125 327.183594 324.417969 326.964844 C 324.507812 326.746094 324.59375 326.523438 324.679688 326.300781 C 324.765625 326.078125 324.828125 325.882812 324.867188 325.71875 C 324.925781 325.4375 325 325.109375 325.082031 324.738281 C 325.167969 324.367188 325.246094 323.992188 325.320312 323.617188 C 325.394531 323.234375 325.453125 322.878906 325.492188 322.546875 C 325.535156 322.210938 325.546875 321.9375 325.53125 321.734375 C 325.523438 321.636719 325.507812 321.539062 325.480469 321.449219 C 325.453125 321.351562 325.414062 321.273438 325.359375 321.207031 C 325.308594 321.136719 325.234375 321.085938 325.144531 321.046875 C 325.050781 321.007812 324.941406 320.996094 324.804688 321.007812 C 324.613281 321.019531 324.386719 321.09375 324.128906 321.222656 C 323.875 321.351562 323.605469 321.519531 323.335938 321.71875 C 323.0625 321.917969 322.800781 322.140625 322.550781 322.378906 C 322.296875 322.625 322.085938 322.859375 321.910156 323.09375 C 321.789062 323.261719 321.667969 323.394531 321.554688 323.5 C 321.4375 323.605469 321.324219 323.691406 321.207031 323.75 C 321.195312 323.777344 321.167969 323.867188 321.128906 324.015625 C 321.089844 324.164062 321.042969 324.339844 320.988281 324.550781 C 320.933594 324.753906 320.878906 324.980469 320.820312 325.222656 C 320.757812 325.460938 320.703125 325.683594 320.652344 325.894531 C 320.601562 326.097656 320.558594 326.273438 320.523438 326.417969 C 320.488281 326.554688 320.476562 326.632812 320.476562 326.648438 C 320.445312 326.832031 320.421875 327.019531 320.402344 327.207031 C 320.386719 327.402344 320.371094 327.585938 320.359375 327.761719 C 320.347656 327.9375 320.335938 328.121094 320.328125 328.320312 C 320.320312 328.515625 320.292969 328.703125 320.238281 328.882812 C 320.183594 329.058594 320.089844 329.207031 319.964844 329.324219 C 319.835938 329.441406 319.644531 329.515625 319.394531 329.535156 C 319.265625 329.542969 319.148438 329.519531 319.039062 329.464844 C 318.925781 329.410156 318.828125 329.335938 318.742188 329.242188 C 318.660156 329.144531 318.589844 329.039062 318.535156 328.917969 C 318.480469 328.796875 318.441406 328.671875 318.425781 328.542969 C 318.527344 327.957031 318.632812 327.421875 318.738281 326.949219 C 318.84375 326.476562 318.949219 326.023438 319.054688 325.585938 C 319.164062 325.15625 319.265625 324.71875 319.367188 324.28125 C 319.464844 323.84375 319.558594 323.363281 319.644531 322.839844 C 319.667969 322.714844 319.683594 322.59375 319.691406 322.472656 C 319.703125 322.355469 319.703125 322.25 319.695312 322.160156 C 319.683594 322.003906 319.640625 321.878906 319.570312 321.785156 C 319.496094 321.691406 319.382812 321.652344 319.222656 321.664062 C 318.957031 321.6875 318.699219 321.757812 318.449219 321.886719 C 318.199219 322.011719 317.929688 322.199219 317.644531 322.449219 C 317.363281 322.695312 317.050781 323.007812 316.707031 323.382812 C 316.367188 323.757812 315.972656 324.207031 315.53125 324.726562 C 315.484375 324.828125 315.433594 325.011719 315.371094 325.28125 C 315.308594 325.550781 315.246094 325.835938 315.179688 326.140625 C 315.117188 326.441406 315.0625 326.722656 315.007812 326.980469 C 314.957031 327.242188 314.925781 327.414062 314.914062 327.5 C 314.867188 327.769531 314.835938 328.003906 314.824219 328.1875 C 314.8125 328.371094 314.800781 328.539062 314.796875 328.691406 C 314.789062 328.765625 314.777344 328.894531 314.765625 329.074219 C 314.757812 329.253906 314.722656 329.433594 314.671875 329.621094 C 314.617188 329.804688 314.535156 329.96875 314.425781 330.121094 C 314.3125 330.269531 314.15625 330.351562 313.957031 330.363281 C 313.664062 330.390625 313.414062 330.328125 313.214844 330.179688 C 313.011719 330.035156 312.902344 329.839844 312.882812 329.597656 C 312.878906 329.550781 312.878906 329.507812 312.882812 329.472656 C 312.882812 329.421875 312.890625 329.378906 312.902344 329.332031 Z M 312.902344 329.332031 " fill-opacity="1" fill-rule="nonzero"/><path fill="#000000" d="M 329.5625 328.273438 C 329.421875 328.398438 329.230469 328.472656 328.988281 328.492188 C 328.878906 328.5 328.777344 328.484375 328.6875 328.449219 C 328.597656 328.410156 328.519531 328.355469 328.453125 328.289062 C 328.386719 328.21875 328.332031 328.136719 328.292969 328.046875 C 328.253906 327.957031 328.230469 327.863281 328.222656 327.765625 C 328.210938 327.636719 328.230469 327.519531 328.277344 327.417969 C 328.324219 327.320312 328.386719 327.234375 328.460938 327.160156 C 328.535156 327.085938 328.617188 327.027344 328.707031 326.972656 C 328.796875 326.917969 328.878906 326.875 328.953125 326.835938 C 329.199219 326.648438 329.46875 326.421875 329.769531 326.152344 C 330.074219 325.882812 330.382812 325.597656 330.699219 325.289062 C 331.019531 324.984375 331.335938 324.671875 331.648438 324.359375 C 331.964844 324.042969 332.261719 323.742188 332.542969 323.453125 L 332.945312 323.035156 C 332.824219 322.714844 332.703125 322.441406 332.589844 322.214844 C 332.476562 321.988281 332.363281 321.785156 332.25 321.609375 C 332.140625 321.429688 332.027344 321.261719 331.914062 321.101562 C 331.804688 320.949219 331.683594 320.78125 331.550781 320.605469 C 331.4375 320.445312 331.347656 320.320312 331.285156 320.238281 C 331.222656 320.152344 331.1875 320.066406 331.179688 319.972656 C 331.175781 319.910156 331.1875 319.828125 331.210938 319.734375 C 331.238281 319.640625 331.28125 319.546875 331.339844 319.453125 C 331.402344 319.363281 331.480469 319.28125 331.582031 319.210938 C 331.683594 319.144531 331.804688 319.101562 331.945312 319.089844 C 332.148438 319.074219 332.332031 319.105469 332.5 319.179688 C 332.660156 319.253906 332.808594 319.351562 332.941406 319.480469 C 333.078125 319.601562 333.195312 319.742188 333.292969 319.890625 C 333.398438 320.042969 333.488281 320.183594 333.570312 320.320312 C 333.613281 320.394531 333.664062 320.492188 333.722656 320.617188 C 333.777344 320.742188 333.832031 320.875 333.882812 321.015625 C 333.933594 321.160156 333.988281 321.292969 334.035156 321.429688 C 334.085938 321.566406 334.125 321.6875 334.160156 321.785156 C 334.421875 321.492188 334.671875 321.191406 334.917969 320.871094 C 335.160156 320.558594 335.429688 320.191406 335.726562 319.773438 C 335.820312 319.640625 335.917969 319.5 336.015625 319.351562 C 336.117188 319.203125 336.226562 319.0625 336.339844 318.933594 C 336.449219 318.804688 336.566406 318.699219 336.6875 318.609375 C 336.808594 318.523438 336.945312 318.472656 337.09375 318.460938 C 337.34375 318.441406 337.527344 318.492188 337.644531 318.613281 C 337.761719 318.730469 337.828125 318.894531 337.84375 319.101562 C 337.859375 319.316406 337.835938 319.523438 337.769531 319.714844 C 337.703125 319.902344 337.609375 320.050781 337.488281 320.164062 C 337.316406 320.328125 337.125 320.519531 336.921875 320.746094 C 336.714844 320.972656 336.507812 321.210938 336.296875 321.457031 C 336.089844 321.710938 335.878906 321.953125 335.675781 322.195312 C 335.46875 322.4375 335.277344 322.660156 335.105469 322.855469 C 335.035156 322.929688 334.972656 323.003906 334.925781 323.078125 C 334.878906 323.15625 334.855469 323.246094 334.863281 323.355469 C 334.871094 323.421875 334.894531 323.5 334.9375 323.59375 C 334.980469 323.683594 335.03125 323.785156 335.09375 323.890625 C 335.160156 323.996094 335.222656 324.101562 335.285156 324.207031 C 335.347656 324.316406 335.402344 324.414062 335.449219 324.5 C 335.539062 324.667969 335.664062 324.863281 335.820312 325.09375 C 335.976562 325.316406 336.132812 325.554688 336.289062 325.804688 C 336.449219 326.054688 336.589844 326.308594 336.714844 326.570312 C 336.839844 326.832031 336.910156 327.085938 336.929688 327.328125 C 336.941406 327.484375 336.929688 327.628906 336.894531 327.761719 C 336.859375 327.894531 336.8125 328.019531 336.75 328.125 C 336.6875 328.226562 336.613281 328.3125 336.535156 328.375 C 336.449219 328.441406 336.371094 328.476562 336.292969 328.484375 C 336.128906 328.496094 335.992188 328.488281 335.890625 328.457031 C 335.789062 328.421875 335.699219 328.371094 335.621094 328.300781 C 335.542969 328.234375 335.480469 328.140625 335.421875 328.03125 C 335.367188 327.925781 335.300781 327.796875 335.230469 327.65625 C 335.128906 327.421875 335 327.15625 334.839844 326.863281 C 334.683594 326.5625 334.519531 326.269531 334.351562 325.980469 C 334.179688 325.6875 334.023438 325.417969 333.875 325.167969 C 333.726562 324.917969 333.609375 324.730469 333.53125 324.601562 C 333.363281 324.753906 333.1875 324.914062 333.011719 325.082031 C 332.832031 325.246094 332.605469 325.460938 332.320312 325.722656 C 332.039062 325.984375 331.679688 326.3125 331.242188 326.71875 C 330.808594 327.128906 330.246094 327.640625 329.5625 328.273438 Z M 329.5625 328.273438 " fill-opacity="1" fill-rule="nonzero"/><path fill="#000000" d="M 344.097656 321.246094 C 343.867188 323 343.773438 324.160156 343.816406 324.71875 C 343.832031 324.898438 343.730469 325.054688 343.511719 325.1875 C 343.292969 325.320312 343.066406 325.394531 342.835938 325.414062 C 342.578125 325.433594 342.367188 325.386719 342.195312 325.273438 C 342.023438 325.15625 341.929688 325 341.917969 324.808594 C 341.863281 324.125 341.960938 323.003906 342.207031 321.453125 C 341.304688 321.542969 340.523438 321.648438 339.871094 321.773438 C 339.488281 321.839844 339.230469 321.882812 339.09375 321.890625 C 338.726562 321.921875 338.519531 321.613281 338.46875 320.96875 C 338.449219 320.722656 338.609375 320.507812 338.957031 320.332031 C 339.300781 320.15625 340.488281 319.972656 342.523438 319.78125 C 342.992188 317.554688 343.304688 316.304688 343.457031 316.03125 C 343.609375 315.753906 343.851562 315.605469 344.1875 315.582031 C 344.710938 315.539062 344.984375 315.644531 345.007812 315.894531 C 345.015625 316.027344 344.984375 316.238281 344.910156 316.519531 C 344.835938 316.804688 344.640625 317.824219 344.328125 319.582031 C 345.535156 319.445312 346.53125 319.347656 347.316406 319.289062 C 347.816406 319.25 348.085938 319.480469 348.125 319.980469 C 348.171875 320.566406 347.824219 320.890625 347.089844 320.949219 C 346.253906 321.015625 345.257812 321.117188 344.097656 321.246094 Z M 344.097656 321.246094 " fill-opacity="1" fill-rule="nonzero"/><path fill="#000000" d="M 350.789062 323.8125 C 350.875 323.28125 350.976562 322.703125 351.097656 322.078125 C 351.214844 321.449219 351.335938 320.808594 351.46875 320.15625 C 351.597656 319.503906 351.726562 318.859375 351.855469 318.214844 C 351.980469 317.570312 352.097656 316.964844 352.199219 316.394531 C 352.304688 315.820312 352.390625 315.308594 352.460938 314.851562 C 352.535156 314.394531 352.578125 314.023438 352.59375 313.746094 L 352.636719 312.957031 C 352.652344 312.898438 352.667969 312.832031 352.683594 312.757812 C 352.699219 312.6875 352.730469 312.621094 352.769531 312.554688 C 352.808594 312.492188 352.863281 312.433594 352.9375 312.382812 C 353.007812 312.332031 353.09375 312.300781 353.207031 312.292969 C 353.402344 312.273438 353.574219 312.300781 353.714844 312.359375 C 353.855469 312.417969 353.96875 312.507812 354.058594 312.617188 C 354.148438 312.730469 354.214844 312.863281 354.257812 313.015625 C 354.300781 313.164062 354.332031 313.324219 354.34375 313.492188 C 354.359375 313.660156 354.359375 313.828125 354.34375 314 C 354.335938 314.171875 354.316406 314.328125 354.296875 314.460938 C 354.152344 315.359375 353.980469 316.269531 353.777344 317.183594 C 353.578125 318.097656 353.402344 319.019531 353.253906 319.941406 C 353.484375 319.6875 353.738281 319.4375 354.007812 319.199219 C 354.28125 318.964844 354.570312 318.75 354.875 318.558594 C 355.179688 318.371094 355.496094 318.214844 355.820312 318.09375 C 356.144531 317.972656 356.476562 317.894531 356.808594 317.867188 C 357.160156 317.839844 357.46875 317.871094 357.738281 317.953125 C 358 318.035156 358.222656 318.160156 358.402344 318.320312 C 358.582031 318.484375 358.726562 318.6875 358.824219 318.921875 C 358.921875 319.160156 358.984375 319.421875 359.007812 319.703125 C 359.019531 319.835938 359.019531 319.976562 359.015625 320.121094 C 359.011719 320.269531 358.996094 320.410156 358.976562 320.546875 C 358.859375 321.230469 358.671875 321.847656 358.410156 322.394531 C 358.144531 322.945312 357.835938 323.441406 357.480469 323.886719 C 357.125 324.332031 356.734375 324.730469 356.304688 325.089844 C 355.878906 325.441406 355.445312 325.757812 355 326.050781 C 354.710938 326.230469 354.429688 326.378906 354.160156 326.488281 C 353.886719 326.597656 353.617188 326.664062 353.34375 326.679688 C 353.082031 326.703125 352.878906 326.691406 352.738281 326.644531 C 352.59375 326.601562 352.464844 326.527344 352.347656 326.425781 C 352.320312 326.496094 352.285156 326.566406 352.242188 326.640625 C 352.199219 326.714844 352.148438 326.785156 352.085938 326.851562 C 352.023438 326.917969 351.945312 326.972656 351.855469 327.019531 C 351.765625 327.0625 351.660156 327.09375 351.546875 327.101562 C 351.179688 327.132812 350.914062 327.058594 350.746094 326.890625 C 350.578125 326.714844 350.480469 326.480469 350.457031 326.171875 C 350.449219 326.0625 350.449219 325.949219 350.457031 325.835938 C 350.460938 325.722656 350.476562 325.609375 350.5 325.496094 Z M 356.601562 319.410156 C 356.300781 319.433594 355.976562 319.535156 355.632812 319.714844 C 355.289062 319.898438 354.945312 320.117188 354.605469 320.375 C 354.261719 320.632812 353.9375 320.898438 353.621094 321.191406 C 353.308594 321.476562 353.03125 321.730469 352.792969 321.957031 C 352.734375 322.226562 352.679688 322.488281 352.621094 322.738281 C 352.5625 322.988281 352.503906 323.242188 352.453125 323.496094 C 352.398438 323.753906 352.351562 324.011719 352.3125 324.28125 C 352.269531 324.550781 352.242188 324.835938 352.21875 325.132812 L 352.191406 325.511719 L 352.261719 325.683594 C 352.390625 325.59375 352.507812 325.527344 352.617188 325.476562 C 352.726562 325.433594 352.832031 325.390625 352.9375 325.351562 C 353.039062 325.316406 353.148438 325.277344 353.261719 325.234375 C 353.375 325.195312 353.496094 325.136719 353.636719 325.070312 C 354.613281 324.585938 355.414062 323.976562 356.042969 323.246094 C 356.675781 322.507812 357.074219 321.636719 357.246094 320.621094 C 357.265625 320.476562 357.285156 320.351562 357.292969 320.238281 C 357.304688 320.128906 357.304688 320.03125 357.296875 319.9375 C 357.285156 319.746094 357.21875 319.605469 357.109375 319.515625 C 357.003906 319.425781 356.832031 319.390625 356.601562 319.410156 Z M 356.601562 319.410156 " fill-opacity="1" fill-rule="nonzero"/><path fill="#000000" d="M 456.570312 481.5625 C 456.953125 482.730469 457.597656 483.734375 458.507812 484.558594 C 459.59375 485.542969 460.871094 486.128906 462.328125 486.3125 C 462.449219 486.324219 462.488281 486.363281 462.484375 486.488281 C 462.480469 487.320312 462.484375 488.148438 462.480469 488.980469 C 462.480469 489.03125 462.476562 489.082031 462.472656 489.140625 L 462.28125 489.140625 C 461.011719 489.140625 459.742188 489.140625 458.46875 489.140625 C 458.394531 489.140625 458.324219 489.140625 458.25 489.148438 C 457.785156 489.195312 457.492188 489.664062 457.660156 490.09375 C 457.726562 490.269531 457.847656 490.390625 458.003906 490.488281 L 468.328125 490.488281 C 468.332031 490.484375 468.339844 490.480469 468.34375 490.480469 C 468.363281 490.46875 468.386719 490.457031 468.40625 490.441406 C 468.632812 490.292969 468.757812 490.085938 468.746094 489.8125 C 468.730469 489.542969 468.601562 489.335938 468.359375 489.226562 C 468.226562 489.167969 468.070312 489.144531 467.925781 489.144531 C 466.636719 489.136719 465.347656 489.140625 464.054688 489.140625 L 463.890625 489.140625 C 463.882812 489.101562 463.875 489.089844 463.875 489.074219 C 463.875 488.195312 463.875 487.316406 463.875 486.4375 C 463.875 486.328125 463.933594 486.324219 464.007812 486.316406 C 465.140625 486.175781 466.179688 485.785156 467.121094 485.140625 C 467.160156 485.113281 467.199219 485.078125 467.253906 485.03125 C 466.953125 484.730469 466.65625 484.445312 466.371094 484.148438 C 466.28125 484.058594 466.222656 484.058594 466.117188 484.125 C 464.78125 484.933594 463.351562 485.171875 461.832031 484.792969 C 459.421875 484.199219 457.699219 482.066406 457.621094 479.59375 C 457.605469 479.066406 457.613281 478.539062 457.613281 478.011719 C 457.613281 477.800781 457.53125 477.625 457.375 477.488281 C 457.160156 477.296875 456.910156 477.253906 456.644531 477.367188 C 456.378906 477.480469 456.226562 477.695312 456.21875 477.984375 C 456.207031 478.453125 456.210938 478.921875 456.21875 479.394531 C 456.234375 480.136719 456.339844 480.859375 456.570312 481.5625 Z M 456.570312 481.5625 " fill-opacity="1" fill-rule="nonzero"/><path fill="#000000" d="M 464.441406 468.464844 C 462.316406 467.757812 460.105469 468.964844 459.277344 470.964844 C 459.234375 471.066406 459.246094 471.136719 459.332031 471.21875 C 459.648438 471.527344 459.960938 471.84375 460.273438 472.160156 C 460.308594 472.191406 460.34375 472.222656 460.394531 472.269531 C 460.410156 472.195312 460.425781 472.144531 460.433594 472.089844 C 460.472656 471.734375 460.582031 471.40625 460.753906 471.089844 C 461.335938 470.011719 462.648438 469.425781 463.820312 469.730469 C 465.128906 470.066406 465.960938 471.140625 465.960938 472.492188 C 465.960938 474.226562 465.960938 475.960938 465.960938 477.699219 C 465.960938 477.800781 465.988281 477.878906 466.0625 477.953125 C 466.453125 478.335938 466.835938 478.722656 467.222656 479.109375 C 467.257812 479.144531 467.296875 479.175781 467.351562 479.222656 C 467.355469 479.152344 467.359375 479.117188 467.359375 479.074219 C 467.359375 476.84375 467.359375 474.609375 467.359375 472.375 C 467.359375 471.988281 467.300781 471.605469 467.183594 471.234375 C 466.730469 469.851562 465.824219 468.921875 464.441406 468.464844 Z M 464.441406 468.464844 " fill-opacity="1" fill-rule="nonzero"/><path fill="#000000" d="M 454.335938 470.203125 C 454.695312 469.847656 455.019531 469.523438 455.351562 469.191406 C 455.375 469.214844 455.414062 469.25 455.449219 469.285156 C 460.9375 474.777344 466.425781 480.265625 471.917969 485.753906 C 472.011719 485.847656 472.007812 485.902344 471.914062 485.992188 C 471.660156 486.238281 471.410156 486.484375 471.164062 486.742188 C 471.070312 486.839844 471.015625 486.84375 470.914062 486.742188 C 469.148438 484.96875 467.378906 483.199219 465.609375 481.429688 C 461.914062 477.734375 458.21875 474.035156 454.519531 470.339844 C 454.46875 470.285156 454.390625 470.246094 454.335938 470.203125 Z M 454.335938 470.203125 " fill-opacity="1" fill-rule="nonzero"/><path fill="#000000" d="M 459.015625 476.808594 C 459.070312 476.851562 459.101562 476.878906 459.132812 476.910156 C 459.523438 477.300781 459.917969 477.691406 460.308594 478.089844 C 460.359375 478.144531 460.394531 478.238281 460.394531 478.316406 C 460.410156 478.765625 460.386719 479.214844 460.425781 479.664062 C 460.539062 480.941406 461.476562 481.933594 462.746094 482.148438 C 463.195312 482.222656 463.640625 482.1875 464.070312 482.035156 C 464.171875 482 464.238281 482.011719 464.3125 482.089844 C 464.585938 482.371094 464.863281 482.644531 465.140625 482.921875 C 465.171875 482.953125 465.199219 482.988281 465.242188 483.039062 C 465.15625 483.085938 465.082031 483.132812 465 483.171875 C 463.503906 483.90625 461.675781 483.652344 460.429688 482.539062 C 459.507812 481.710938 459.027344 480.675781 459.007812 479.4375 C 458.992188 478.597656 459.003906 477.765625 459.003906 476.929688 C 459.003906 476.898438 459.007812 476.871094 459.015625 476.808594 Z M 459.015625 476.808594 " fill-opacity="1" fill-rule="nonzero"/><path fill="#000000" d="M 469.796875 481.65625 C 469.722656 481.601562 469.695312 481.578125 469.667969 481.550781 C 469.355469 481.238281 469.039062 480.925781 468.726562 480.609375 C 468.6875 480.566406 468.648438 480.488281 468.660156 480.433594 C 468.792969 479.644531 468.734375 478.851562 468.746094 478.058594 C 468.753906 477.609375 469.070312 477.292969 469.492188 477.3125 C 469.828125 477.332031 470.140625 477.625 470.136719 477.960938 C 470.132812 478.820312 470.199219 479.683594 470.050781 480.535156 C 469.988281 480.902344 469.886719 481.257812 469.796875 481.65625 Z M 469.796875 481.65625 " fill-opacity="1" fill-rule="nonzero"/><path fill="#000000" d="M 511.503906 480.460938 C 511.824219 479.992188 512.140625 479.523438 512.457031 479.054688 C 513.46875 477.539062 514.484375 476.023438 515.503906 474.511719 C 515.621094 474.34375 515.765625 474.179688 515.925781 474.054688 C 516.421875 473.679688 516.917969 473.890625 517.023438 474.507812 C 517.039062 474.597656 517.035156 474.695312 517.035156 474.785156 C 517.035156 478.648438 517.035156 482.511719 517.035156 486.371094 C 517.035156 486.453125 517.0625 486.550781 517.023438 486.613281 C 516.898438 486.835938 516.792969 487.128906 516.597656 487.234375 C 516.441406 487.316406 516.085938 487.226562 515.945312 487.085938 C 515.546875 486.6875 515.199219 486.234375 514.859375 485.777344 C 513.804688 484.363281 512.757812 482.9375 511.710938 481.515625 C 511.644531 481.425781 511.566406 481.339844 511.417969 481.269531 C 511.417969 481.390625 511.417969 481.511719 511.417969 481.632812 C 511.417969 483.144531 511.417969 484.65625 511.417969 486.167969 C 511.417969 486.261719 511.417969 486.355469 511.417969 486.449219 C 511.40625 487.515625 511.078125 487.867188 510.023438 487.871094 C 505.335938 487.878906 500.652344 487.875 495.964844 487.867188 C 495.757812 487.867188 495.546875 487.832031 495.347656 487.78125 C 494.902344 487.675781 494.691406 487.441406 494.640625 486.988281 C 494.609375 486.699219 494.585938 486.410156 494.585938 486.117188 C 494.582031 482.699219 494.578125 479.277344 494.589844 475.859375 C 494.589844 475.433594 494.636719 475 494.714844 474.582031 C 494.785156 474.183594 495.078125 473.964844 495.46875 473.910156 C 495.769531 473.871094 496.070312 473.839844 496.371094 473.839844 C 500.777344 473.835938 505.183594 473.835938 509.59375 473.839844 C 509.917969 473.839844 510.246094 473.863281 510.566406 473.910156 C 511.019531 473.976562 511.246094 474.191406 511.335938 474.640625 C 511.378906 474.878906 511.414062 475.121094 511.417969 475.363281 C 511.421875 476.933594 511.421875 478.507812 511.421875 480.078125 C 511.421875 480.199219 511.421875 480.320312 511.421875 480.441406 C 511.449219 480.449219 511.476562 480.457031 511.503906 480.460938 Z M 511.503906 480.460938 " fill-opacity="1" fill-rule="nonzero"/><path fill="#000000" d="M 16.117188 170.757812 C 16.503906 171.925781 17.148438 172.929688 18.054688 173.753906 C 19.140625 174.738281 20.417969 175.324219 21.875 175.507812 C 21.996094 175.519531 22.035156 175.558594 22.035156 175.683594 C 22.027344 176.515625 22.03125 177.34375 22.03125 178.175781 C 22.03125 178.226562 22.023438 178.277344 22.019531 178.335938 L 21.828125 178.335938 C 20.558594 178.335938 19.289062 178.335938 18.015625 178.335938 C 17.945312 178.335938 17.871094 178.335938 17.796875 178.34375 C 17.332031 178.390625 17.039062 178.859375 17.207031 179.289062 C 17.273438 179.464844 17.394531 179.585938 17.550781 179.683594 L 27.875 179.683594 C 27.878906 179.679688 27.886719 179.679688 27.890625 179.675781 C 27.910156 179.664062 27.933594 179.652344 27.953125 179.640625 C 28.179688 179.488281 28.304688 179.28125 28.292969 179.007812 C 28.277344 178.738281 28.152344 178.53125 27.90625 178.421875 C 27.773438 178.363281 27.617188 178.339844 27.472656 178.339844 C 26.183594 178.332031 24.894531 178.335938 23.601562 178.335938 L 23.445312 178.335938 C 23.4375 178.296875 23.429688 178.285156 23.429688 178.269531 C 23.429688 177.390625 23.429688 176.511719 23.425781 175.632812 C 23.425781 175.523438 23.484375 175.519531 23.5625 175.511719 C 24.695312 175.371094 25.730469 174.980469 26.675781 174.335938 C 26.714844 174.308594 26.753906 174.273438 26.808594 174.226562 C 26.503906 173.925781 26.210938 173.640625 25.925781 173.34375 C 25.835938 173.253906 25.773438 173.253906 25.667969 173.320312 C 24.332031 174.128906 22.902344 174.367188 21.382812 173.988281 C 18.976562 173.394531 17.25 171.265625 17.175781 168.789062 C 17.15625 168.261719 17.167969 167.734375 17.164062 167.207031 C 17.164062 166.996094 17.085938 166.820312 16.929688 166.683594 C 16.710938 166.496094 16.464844 166.449219 16.199219 166.5625 C 15.933594 166.675781 15.78125 166.890625 15.773438 167.183594 C 15.761719 167.648438 15.761719 168.117188 15.769531 168.589844 C 15.785156 169.332031 15.886719 170.054688 16.117188 170.757812 Z M 16.117188 170.757812 " fill-opacity="1" fill-rule="nonzero"/><path fill="#000000" d="M 23.992188 157.660156 C 21.867188 156.953125 19.65625 158.160156 18.828125 160.160156 C 18.785156 160.265625 18.796875 160.332031 18.878906 160.414062 C 19.199219 160.722656 19.511719 161.039062 19.824219 161.355469 C 19.859375 161.386719 19.894531 161.417969 19.945312 161.464844 C 19.960938 161.390625 19.976562 161.339844 19.980469 161.285156 C 20.019531 160.929688 20.132812 160.601562 20.300781 160.285156 C 20.882812 159.207031 22.195312 158.621094 23.371094 158.925781 C 24.679688 159.261719 25.511719 160.335938 25.511719 161.6875 C 25.511719 163.421875 25.511719 165.160156 25.511719 166.894531 C 25.511719 166.996094 25.535156 167.074219 25.613281 167.148438 C 26 167.53125 26.386719 167.917969 26.773438 168.304688 C 26.808594 168.339844 26.84375 168.371094 26.902344 168.417969 C 26.90625 168.347656 26.910156 168.3125 26.910156 168.273438 C 26.910156 166.039062 26.910156 163.804688 26.910156 161.570312 C 26.910156 161.183594 26.851562 160.800781 26.730469 160.433594 C 26.28125 159.050781 25.371094 158.117188 23.992188 157.660156 Z M 23.992188 157.660156 " fill-opacity="1" fill-rule="nonzero"/><path fill="#000000" d="M 13.886719 159.398438 C 14.246094 159.042969 14.570312 158.71875 14.902344 158.386719 C 14.925781 158.410156 14.960938 158.445312 15 158.480469 C 20.488281 163.972656 25.976562 169.460938 31.464844 174.949219 C 31.5625 175.042969 31.558594 175.097656 31.464844 175.191406 C 31.207031 175.433594 30.960938 175.679688 30.714844 175.9375 C 30.621094 176.039062 30.5625 176.039062 30.464844 175.9375 C 28.699219 174.164062 26.925781 172.398438 25.15625 170.625 C 21.464844 166.929688 17.765625 163.230469 14.070312 159.539062 C 14.015625 159.480469 13.941406 159.441406 13.886719 159.398438 Z M 13.886719 159.398438 " fill-opacity="1" fill-rule="nonzero"/><path fill="#000000" d="M 18.5625 166.003906 C 18.617188 166.050781 18.648438 166.074219 18.679688 166.105469 C 19.074219 166.5 19.46875 166.886719 19.855469 167.285156 C 19.90625 167.339844 19.941406 167.433594 19.945312 167.511719 C 19.957031 167.960938 19.933594 168.410156 19.972656 168.859375 C 20.085938 170.140625 21.027344 171.128906 22.292969 171.34375 C 22.746094 171.417969 23.1875 171.382812 23.617188 171.230469 C 23.71875 171.195312 23.785156 171.207031 23.859375 171.285156 C 24.132812 171.566406 24.410156 171.839844 24.6875 172.121094 C 24.71875 172.148438 24.746094 172.183594 24.792969 172.234375 C 24.703125 172.285156 24.628906 172.328125 24.550781 172.367188 C 23.050781 173.101562 21.222656 172.851562 19.976562 171.734375 C 19.054688 170.910156 18.574219 169.871094 18.554688 168.632812 C 18.542969 167.792969 18.550781 166.960938 18.550781 166.125 C 18.554688 166.09375 18.558594 166.066406 18.5625 166.003906 Z M 18.5625 166.003906 " fill-opacity="1" fill-rule="nonzero"/><path fill="#000000" d="M 29.34375 170.851562 C 29.273438 170.796875 29.242188 170.773438 29.214844 170.746094 C 28.902344 170.433594 28.585938 170.121094 28.277344 169.804688 C 28.234375 169.761719 28.199219 169.683594 28.207031 169.628906 C 28.339844 168.839844 28.28125 168.046875 28.292969 167.253906 C 28.300781 166.804688 28.617188 166.488281 29.039062 166.507812 C 29.375 166.527344 29.6875 166.820312 29.683594 167.15625 C 29.679688 168.015625 29.75 168.878906 29.601562 169.730469 C 29.535156 170.097656 29.4375 170.457031 29.34375 170.851562 Z M 29.34375 170.851562 " fill-opacity="1" fill-rule="nonzero"/><path fill="#000000" d="M 72.351562 169 C 72.667969 168.53125 72.984375 168.0625 73.300781 167.59375 C 74.316406 166.078125 75.328125 164.558594 76.347656 163.050781 C 76.464844 162.878906 76.609375 162.71875 76.773438 162.59375 C 77.265625 162.214844 77.765625 162.425781 77.867188 163.046875 C 77.882812 163.136719 77.878906 163.230469 77.878906 163.324219 C 77.878906 167.1875 77.878906 171.046875 77.878906 174.910156 C 77.878906 174.992188 77.90625 175.089844 77.871094 175.152344 C 77.746094 175.371094 77.640625 175.667969 77.441406 175.769531 C 77.285156 175.851562 76.929688 175.765625 76.789062 175.625 C 76.390625 175.226562 76.042969 174.769531 75.703125 174.316406 C 74.648438 172.898438 73.605469 171.476562 72.554688 170.054688 C 72.488281 169.964844 72.410156 169.878906 72.261719 169.808594 C 72.261719 169.929688 72.261719 170.050781 72.261719 170.171875 C 72.261719 171.683594 72.261719 173.195312 72.261719 174.707031 C 72.261719 174.800781 72.261719 174.894531 72.261719 174.988281 C 72.25 176.054688 71.925781 176.40625 70.867188 176.410156 C 66.183594 176.414062 61.496094 176.410156 56.8125 176.40625 C 56.605469 176.40625 56.394531 176.367188 56.191406 176.320312 C 55.75 176.214844 55.539062 175.976562 55.488281 175.527344 C 55.453125 175.238281 55.429688 174.949219 55.429688 174.65625 C 55.425781 171.234375 55.421875 167.816406 55.433594 164.394531 C 55.4375 163.96875 55.484375 163.539062 55.558594 163.117188 C 55.632812 162.722656 55.925781 162.503906 56.316406 162.449219 C 56.613281 162.410156 56.917969 162.375 57.21875 162.375 C 61.625 162.375 66.03125 162.375 70.441406 162.375 C 70.765625 162.375 71.09375 162.402344 71.414062 162.449219 C 71.867188 162.511719 72.09375 162.730469 72.183594 163.179688 C 72.226562 163.417969 72.261719 163.660156 72.261719 163.902344 C 72.269531 165.472656 72.265625 167.042969 72.265625 168.613281 C 72.265625 168.734375 72.265625 168.859375 72.265625 168.980469 C 72.292969 168.988281 72.324219 168.992188 72.351562 169 Z M 72.351562 169 " fill-opacity="1" fill-rule="nonzero"/><path fill="#f89a00" d="M 98.121094 274.515625 C 98.121094 274.515625 96.738281 295.039062 130.207031 296.660156 C 134.785156 296.882812 139.40625 296.128906 143.5625 294.183594 C 149.328125 291.488281 155.28125 286.195312 151.683594 276.148438 C 151.683594 276.148438 144.0625 272.511719 127.183594 271.722656 C 110.308594 270.9375 98.121094 274.515625 98.121094 274.515625 Z M 98.121094 274.515625 " fill-opacity="1" fill-rule="nonzero"/><path fill="#000000" d="M 119.304688 239.617188 C 121.773438 239.097656 124.039062 240.972656 125.863281 242.710938 C 128.042969 244.785156 129.460938 245.875 131.636719 247.949219 C 117.851562 251.214844 102.671875 248.007812 91.386719 239.4375 C 87.136719 236.210938 83.230469 231.867188 82.636719 226.5625 C 82.382812 224.28125 82.761719 221.972656 83.238281 219.722656 C 85.148438 210.667969 88.605469 201.945312 93.414062 194.042969 C 101.351562 199.527344 109.796875 204.136719 115.035156 212.242188 C 120.269531 220.34375 123.144531 230.269531 121.472656 239.773438 " fill-opacity="1" fill-rule="nonzero"/><path fill="#ffad65" d="M 193.648438 333.476562 L 204.683594 385.089844 C 206.996094 395.917969 200.875 406.769531 190.414062 410.386719 C 177.792969 414.746094 164.238281 406.894531 161.746094 393.769531 L 151.207031 338.316406 Z M 193.648438 333.476562 " fill-opacity="1" fill-rule="nonzero"/><path fill="#f89a00" d="M 168.871094 282.910156 C 168.871094 282.910156 192.855469 294.585938 199.683594 324.546875 L 202.941406 353.175781 L 170.191406 362.765625 Z M 168.871094 282.910156 " fill-opacity="1" fill-rule="nonzero"/><path fill="#ffad65" d="M 242.71875 298.871094 L 243.117188 288.199219 C 243.320312 282.625 244.832031 277.183594 247.527344 272.304688 L 252.269531 263.714844 C 253.398438 261.671875 256.089844 261.132812 257.914062 262.585938 C 259.453125 263.8125 260.09375 265.851562 259.535156 267.738281 L 256.566406 277.726562 L 285.980469 249.476562 C 287.222656 248.234375 289.277344 248.363281 290.355469 249.753906 L 291.074219 250.6875 C 291.925781 251.785156 291.882812 253.332031 290.976562 254.382812 L 274.082031 271.65625 L 296.230469 254.5 C 297.546875 253.34375 299.578125 253.601562 300.566406 255.050781 L 301.054688 255.765625 C 301.886719 256.984375 301.675781 258.632812 300.570312 259.605469 L 278.054688 278.136719 L 298.769531 266.648438 C 300.382812 265.707031 302.445312 266.492188 303.019531 268.265625 L 303.136719 268.628906 C 303.53125 269.84375 303.085938 271.175781 302.042969 271.910156 L 281.730469 286.246094 L 295.113281 279.179688 C 297.015625 278.171875 299.316406 279.503906 299.394531 281.652344 C 299.429688 282.675781 298.929688 283.640625 298.070312 284.203125 L 256.027344 314.535156 Z M 242.71875 298.871094 " fill-opacity="1" fill-rule="nonzero"/><path fill="#000000" d="M 257.421875 294.636719 C 257.347656 294.636719 257.277344 294.625 257.203125 294.597656 C 256.882812 294.480469 256.714844 294.117188 256.835938 293.792969 C 260.195312 284.703125 256.082031 278.125 256.039062 278.058594 C 255.851562 277.769531 255.933594 277.382812 256.226562 277.195312 C 256.519531 277.007812 256.902344 277.09375 257.085938 277.382812 C 257.273438 277.671875 261.578125 284.5625 258.003906 294.230469 C 257.914062 294.480469 257.675781 294.636719 257.421875 294.636719 Z M 257.421875 294.636719 " fill-opacity="1" fill-rule="nonzero"/><path fill="#ffad65" d="M 242.71875 298.871094 L 256.027344 314.535156 C 244.84375 336.320312 203.082031 399.226562 203.082031 399.226562 C 197.914062 409.882812 184.1875 412.960938 174.964844 405.53125 C 167.304688 399.355469 165.851562 388.238281 171.671875 380.296875 Z M 242.71875 298.871094 " fill-opacity="1" fill-rule="nonzero"/><path fill="#000000" d="M 178.191406 373.457031 C 178.042969 373.457031 177.898438 373.40625 177.78125 373.300781 C 177.519531 373.074219 177.492188 372.679688 177.71875 372.417969 L 201.59375 345.054688 C 201.820312 344.792969 202.214844 344.769531 202.476562 344.992188 C 202.734375 345.222656 202.761719 345.617188 202.535156 345.878906 L 178.664062 373.242188 C 178.539062 373.382812 178.363281 373.457031 178.191406 373.457031 Z M 178.191406 373.457031 " fill-opacity="1" fill-rule="nonzero"/><g clip-path="url(#a4ddcf478e)"><path fill="#f89a00" d="M 141.273438 273.53125 C 141.273438 273.53125 162.140625 277.816406 170.949219 284.273438 L 177.738281 322.707031 L 170.585938 440.277344 C 115.507812 474.769531 56.871094 443.140625 56.871094 443.140625 L 71.542969 286.722656 C 71.542969 286.722656 76.800781 275.503906 114.914062 272.234375 Z M 141.273438 273.53125 " fill-opacity="1" fill-rule="nonzero"/></g><path fill="#000000" d="M 175.394531 361.871094 C 175.378906 361.871094 175.363281 361.867188 175.347656 361.867188 C 175.003906 361.84375 174.746094 361.542969 174.769531 361.199219 L 177.785156 320.007812 C 177.808594 319.660156 178.101562 319.425781 178.453125 319.429688 C 178.796875 319.453125 179.054688 319.753906 179.03125 320.097656 L 176.015625 361.289062 C 175.992188 361.621094 175.71875 361.871094 175.394531 361.871094 Z M 175.394531 361.871094 " fill-opacity="1" fill-rule="nonzero"/><g clip-path="url(#dac82105d8)"><path fill="#ffad65" d="M 26.722656 458.289062 L 40.003906 346.628906 L 81.636719 342.855469 L 61.792969 457.707031 Z M 26.722656 458.289062 " fill-opacity="1" fill-rule="nonzero"/></g><path fill="#f89a00" d="M 89.472656 276.914062 C 89.472656 276.914062 32.75 283.949219 31.03125 357.226562 L 89.140625 365.0625 L 92.5625 317.140625 Z M 89.472656 276.914062 " fill-opacity="1" fill-rule="nonzero"/><path fill="#000000" d="M 84.984375 365.6875 C 84.941406 365.6875 84.894531 365.683594 84.851562 365.671875 L 77.925781 364.179688 C 77.589844 364.105469 77.375 363.773438 77.449219 363.4375 C 77.519531 363.097656 77.847656 362.886719 78.191406 362.957031 L 84.480469 364.316406 L 91.238281 326.871094 C 91.300781 326.53125 91.628906 326.308594 91.964844 326.367188 C 92.308594 326.429688 92.53125 326.753906 92.472656 327.09375 L 85.597656 365.175781 C 85.570312 365.339844 85.472656 365.488281 85.332031 365.582031 C 85.226562 365.652344 85.105469 365.6875 84.984375 365.6875 Z M 84.984375 365.6875 " fill-opacity="1" fill-rule="nonzero"/><path fill="#000000" d="M 166.015625 203.019531 C 166.015625 203.019531 189.605469 191.347656 171.535156 174.015625 C 159.195312 162.179688 132.554688 168.953125 132.554688 168.953125 Z M 166.015625 203.019531 " fill-opacity="1" fill-rule="nonzero"/><path fill="#000000" d="M 131.027344 168.929688 C 132.34375 168.929688 133.660156 168.996094 134.972656 169.121094 C 136.285156 169.246094 137.585938 169.429688 138.878906 169.679688 C 140.171875 169.925781 141.449219 170.230469 142.710938 170.597656 C 143.972656 170.964844 145.210938 171.390625 146.429688 171.875 C 147.648438 172.359375 148.839844 172.898438 150 173.492188 C 151.164062 174.085938 152.292969 174.734375 153.386719 175.4375 C 154.484375 176.136719 155.539062 176.886719 156.558594 177.6875 C 157.574219 178.488281 158.550781 179.332031 159.480469 180.222656 C 160.414062 181.117188 161.296875 182.050781 162.132812 183.023438 C 162.96875 183.996094 163.75 185.007812 164.480469 186.054688 C 165.214844 187.105469 165.890625 188.183594 166.507812 189.296875 C 167.128906 190.40625 167.691406 191.542969 168.195312 192.707031 C 168.699219 193.871094 169.140625 195.054688 169.523438 196.261719 C 169.902344 197.46875 170.222656 198.6875 170.476562 199.921875 C 170.734375 201.15625 170.925781 202.402344 171.050781 203.65625 C 171.179688 204.910156 171.242188 206.164062 171.242188 207.425781 C 171.242188 208.683594 171.175781 209.941406 171.042969 211.191406 C 170.914062 212.445312 170.71875 213.6875 170.460938 214.925781 C 170.199219 216.160156 169.878906 217.378906 169.496094 218.582031 C 169.109375 219.785156 168.664062 220.96875 168.160156 222.132812 C 167.652344 223.296875 167.089844 224.433594 166.464844 225.542969 C 165.84375 226.652344 165.164062 227.730469 164.429688 228.777344 C 163.695312 229.820312 162.910156 230.832031 162.074219 231.804688 C 161.234375 232.777344 160.351562 233.707031 159.417969 234.59375 C 158.484375 235.484375 157.507812 236.328125 156.484375 237.125 C 155.464844 237.921875 154.40625 238.671875 153.308594 239.371094 C 152.210938 240.066406 151.082031 240.714844 149.917969 241.304688 C 148.753906 241.898438 147.5625 242.433594 146.34375 242.914062 C 145.125 243.394531 143.886719 243.816406 142.625 244.179688 C 141.359375 244.542969 140.082031 244.847656 138.789062 245.09375 C 137.496094 245.335938 136.191406 245.519531 134.878906 245.640625 C 133.566406 245.761719 132.253906 245.824219 130.933594 245.820312 C 129.617188 245.820312 128.300781 245.757812 126.988281 245.632812 C 125.675781 245.507812 124.375 245.320312 123.082031 245.074219 C 121.789062 244.828125 120.511719 244.519531 119.25 244.152344 C 117.988281 243.785156 116.746094 243.359375 115.53125 242.875 C 114.3125 242.394531 113.121094 241.855469 111.960938 241.257812 C 110.796875 240.664062 109.667969 240.015625 108.574219 239.316406 C 107.476562 238.613281 106.421875 237.863281 105.402344 237.0625 C 104.382812 236.265625 103.410156 235.417969 102.476562 234.527344 C 101.546875 233.636719 100.664062 232.703125 99.828125 231.726562 C 98.992188 230.753906 98.210938 229.742188 97.476562 228.695312 C 96.746094 227.648438 96.070312 226.566406 95.449219 225.457031 C 94.832031 224.34375 94.269531 223.207031 93.765625 222.042969 C 93.261719 220.878906 92.820312 219.695312 92.4375 218.488281 C 92.058594 217.285156 91.738281 216.0625 91.484375 214.828125 C 91.226562 213.59375 91.035156 212.347656 90.90625 211.097656 C 90.78125 209.84375 90.71875 208.585938 90.71875 207.328125 C 90.71875 206.066406 90.785156 204.8125 90.917969 203.558594 C 91.046875 202.304688 91.242188 201.0625 91.5 199.828125 C 91.761719 198.59375 92.082031 197.375 92.464844 196.167969 C 92.851562 194.964844 93.296875 193.78125 93.800781 192.617188 C 94.308594 191.457031 94.871094 190.320312 95.496094 189.210938 C 96.117188 188.101562 96.796875 187.023438 97.53125 185.976562 C 98.261719 184.929688 99.050781 183.921875 99.886719 182.949219 C 100.722656 181.976562 101.609375 181.046875 102.542969 180.15625 C 103.476562 179.265625 104.453125 178.421875 105.472656 177.625 C 106.496094 176.828125 107.554688 176.082031 108.652344 175.382812 C 109.746094 174.683594 110.878906 174.039062 112.042969 173.445312 C 113.207031 172.855469 114.398438 172.316406 115.617188 171.835938 C 116.835938 171.355469 118.074219 170.933594 119.335938 170.570312 C 120.597656 170.207031 121.878906 169.902344 123.171875 169.660156 C 124.464844 169.414062 125.765625 169.230469 127.078125 169.109375 C 128.390625 168.988281 129.707031 168.929688 131.027344 168.929688 Z M 131.027344 168.929688 " fill-opacity="1" fill-rule="nonzero"/><path fill="#ffad65" d="M 178.398438 218.246094 C 178.636719 218.886719 178.808594 219.546875 178.917969 220.222656 C 179.027344 220.898438 179.066406 221.578125 179.042969 222.261719 C 179.015625 222.945312 178.921875 223.621094 178.765625 224.285156 C 178.605469 224.953125 178.382812 225.597656 178.097656 226.21875 C 177.8125 226.839844 177.46875 227.429688 177.066406 227.984375 C 176.667969 228.535156 176.214844 229.046875 175.714844 229.511719 C 175.210938 229.976562 174.667969 230.390625 174.085938 230.746094 C 173.503906 231.105469 172.890625 231.402344 172.25 231.640625 C 171.609375 231.878906 170.949219 232.054688 170.273438 232.160156 C 169.597656 232.269531 168.917969 232.308594 168.234375 232.285156 C 167.550781 232.257812 166.878906 232.164062 166.210938 232.007812 C 165.546875 231.847656 164.902344 231.625 164.28125 231.339844 C 163.660156 231.054688 163.070312 230.710938 162.515625 230.308594 C 161.964844 229.90625 161.453125 229.457031 160.988281 228.953125 C 160.523438 228.453125 160.113281 227.910156 159.753906 227.328125 C 159.394531 226.742188 159.097656 226.132812 158.859375 225.488281 C 158.621094 224.847656 158.449219 224.1875 158.339844 223.511719 C 158.234375 222.835938 158.191406 222.15625 158.21875 221.472656 C 158.242188 220.789062 158.335938 220.113281 158.496094 219.449219 C 158.652344 218.78125 158.875 218.136719 159.160156 217.515625 C 159.445312 216.894531 159.789062 216.304688 160.191406 215.75 C 160.59375 215.199219 161.042969 214.6875 161.546875 214.222656 C 162.046875 213.757812 162.589844 213.34375 163.171875 212.988281 C 163.757812 212.628906 164.367188 212.328125 165.007812 212.09375 C 165.652344 211.855469 166.308594 211.679688 166.984375 211.574219 C 167.660156 211.464844 168.339844 211.425781 169.023438 211.449219 C 169.707031 211.476562 170.382812 211.570312 171.046875 211.726562 C 171.714844 211.886719 172.355469 212.109375 172.976562 212.394531 C 173.601562 212.679688 174.1875 213.023438 174.742188 213.425781 C 175.296875 213.828125 175.804688 214.277344 176.269531 214.78125 C 176.734375 215.28125 177.148438 215.824219 177.507812 216.40625 C 177.863281 216.992188 178.164062 217.601562 178.398438 218.246094 Z M 178.398438 218.246094 " fill-opacity="1" fill-rule="nonzero"/><path fill="#ffad65" d="M 120.367188 223.03125 L 113.355469 283.101562 L 138.5 292.371094 L 147.734375 285.007812 L 148.492188 245.257812 Z M 120.367188 223.03125 " fill-opacity="1" fill-rule="nonzero"/><path fill="#000000" d="M 148.492188 245.257812 L 123.238281 241.664062 L 148.089844 266.21875 Z M 148.492188 245.257812 " fill-opacity="1" fill-rule="nonzero"/><path fill="#ffad65" d="M 113.472656 221.925781 C 117.886719 249.351562 139.523438 251.5625 139.523438 251.5625 C 157.578125 255.019531 168.761719 245.273438 173.367188 231.511719 C 176.910156 220.929688 173.019531 203.355469 171.035156 193.378906 C 170.367188 190.011719 168.699219 186.890625 166.074219 184.667969 C 143.59375 165.609375 106.441406 178.226562 113.472656 221.925781 Z M 113.472656 221.925781 " fill-opacity="1" fill-rule="nonzero"/><path fill="#000000" d="M 160.882812 227.1875 C 160.585938 227.1875 160.324219 226.976562 160.269531 226.675781 C 160.203125 226.335938 160.429688 226.011719 160.769531 225.949219 L 163.339844 225.472656 C 163.53125 225.421875 163.679688 225.179688 163.625 224.9375 L 161.992188 220.484375 C 161.871094 220.160156 162.039062 219.800781 162.363281 219.683594 C 162.691406 219.5625 163.046875 219.726562 163.164062 220.054688 L 164.824219 224.589844 C 165.042969 225.566406 164.503906 226.457031 163.617188 226.695312 L 160.996094 227.179688 C 160.957031 227.183594 160.917969 227.1875 160.882812 227.1875 Z M 160.882812 227.1875 " fill-opacity="1" fill-rule="nonzero"/><path fill="#000000" d="M 148.957031 212.640625 C 149.292969 212.652344 149.613281 212.730469 149.917969 212.871094 C 150.226562 213.011719 150.492188 213.207031 150.722656 213.453125 C 150.953125 213.699219 151.125 213.980469 151.242188 214.296875 C 151.359375 214.613281 151.410156 214.941406 151.398438 215.277344 C 151.386719 215.613281 151.308594 215.933594 151.167969 216.242188 C 151.027344 216.546875 150.832031 216.816406 150.585938 217.042969 C 150.339844 217.273438 150.058594 217.445312 149.742188 217.5625 C 149.425781 217.679688 149.101562 217.734375 148.765625 217.71875 C 148.425781 217.707031 148.105469 217.628906 147.800781 217.488281 C 147.492188 217.347656 147.226562 217.15625 146.996094 216.910156 C 146.769531 216.660156 146.59375 216.378906 146.476562 216.0625 C 146.359375 215.746094 146.308594 215.421875 146.320312 215.085938 C 146.335938 214.746094 146.410156 214.425781 146.550781 214.121094 C 146.691406 213.8125 146.886719 213.546875 147.132812 213.316406 C 147.378906 213.085938 147.660156 212.914062 147.976562 212.796875 C 148.292969 212.679688 148.617188 212.628906 148.957031 212.640625 Z M 148.957031 212.640625 " fill-opacity="1" fill-rule="nonzero"/><path fill="#000000" d="M 169.152344 212.714844 C 170.453125 212.761719 171.46875 213.859375 171.417969 215.160156 C 171.367188 216.460938 170.273438 217.476562 168.972656 217.425781 C 167.671875 217.378906 166.65625 216.28125 166.707031 214.980469 C 166.753906 213.683594 167.851562 212.664062 169.152344 212.714844 Z M 169.152344 212.714844 " fill-opacity="1" fill-rule="nonzero"/><path fill="#000000" d="M 157.996094 234.15625 C 155.226562 234.15625 151.804688 233.421875 148.734375 230.667969 C 148.476562 230.4375 148.457031 230.042969 148.683594 229.785156 C 148.914062 229.527344 149.3125 229.507812 149.566406 229.738281 C 155.386719 234.960938 162.878906 232.089844 162.953125 232.0625 C 163.273438 231.929688 163.636719 232.089844 163.765625 232.410156 C 163.894531 232.730469 163.738281 233.09375 163.417969 233.222656 C 163.242188 233.292969 161.007812 234.15625 157.996094 234.15625 Z M 157.996094 234.15625 " fill-opacity="1" fill-rule="nonzero"/><path fill="#000000" d="M 171.125 199.359375 C 174.382812 200.070312 176.097656 202.117188 176.882812 203.429688 C 177.273438 204.074219 177.230469 204.886719 176.792969 205.5 C 176.253906 206.261719 175.238281 206.523438 174.398438 206.121094 C 172.910156 205.410156 171.207031 205.105469 168.523438 204.558594 C 164.992188 203.839844 166.046875 201.019531 166.046875 201.019531 C 166.046875 201.019531 166.945312 198.449219 171.125 199.359375 Z M 171.125 199.359375 " fill-opacity="1" fill-rule="nonzero"/><path fill="#000000" d="M 147.316406 198.464844 C 143.066406 198.8125 138.617188 201.703125 137.441406 202.917969 C 136.859375 203.515625 136.8125 204.332031 137.289062 204.988281 C 137.878906 205.804688 139.132812 206.179688 140.261719 205.867188 C 142.253906 205.324219 146.464844 204.167969 149.960938 203.917969 C 154.5625 203.589844 153.585938 200.671875 153.585938 200.671875 C 153.585938 200.671875 152.777344 198.015625 147.316406 198.464844 Z M 147.316406 198.464844 " fill-opacity="1" fill-rule="nonzero"/><path fill="#000000" d="M 106.898438 194.230469 C 161.285156 199.328125 157.964844 176.582031 157.964844 176.582031 C 104.914062 162.542969 106.902344 194.230469 106.898438 194.230469 Z M 106.898438 194.230469 " fill-opacity="1" fill-rule="nonzero"/><path fill="#000000" d="M 94.765625 200.144531 L 119.6875 223.003906 L 123.984375 190.25 Z M 94.765625 200.144531 " fill-opacity="1" fill-rule="nonzero"/><path fill="#ffad65" d="M 107.308594 212.265625 C 113.628906 210.359375 120.292969 213.9375 122.199219 220.257812 C 124.101562 226.578125 120.527344 233.246094 114.210938 235.152344 C 107.890625 237.058594 101.226562 233.484375 99.320312 227.164062 C 97.417969 220.84375 100.992188 214.175781 107.308594 212.265625 Z M 107.308594 212.265625 " fill-opacity="1" fill-rule="nonzero"/><path fill="#000000" d="M 115.085938 227.09375 C 114.792969 227.09375 114.527344 226.882812 114.472656 226.582031 C 114.011719 224.035156 112.964844 222.257812 111.359375 221.300781 C 108.800781 219.773438 105.601562 220.792969 105.570312 220.804688 C 105.242188 220.910156 104.886719 220.734375 104.78125 220.40625 C 104.675781 220.078125 104.851562 219.726562 105.175781 219.617188 C 105.332031 219.566406 108.929688 218.402344 111.988281 220.21875 C 113.925781 221.371094 115.175781 223.4375 115.703125 226.359375 C 115.765625 226.699219 115.539062 227.023438 115.199219 227.085938 C 115.164062 227.09375 115.125 227.09375 115.085938 227.09375 Z M 115.085938 227.09375 " fill-opacity="1" fill-rule="nonzero"/><path fill="#ffffff" d="M 138.5 292.371094 L 114.5625 274.371094 L 115.5 265.417969 L 111.160156 265.082031 C 109.363281 264.945312 107.589844 265.519531 106.222656 266.679688 L 97.738281 273.878906 L 113.796875 302.191406 C 115.480469 305.152344 119.378906 306.007812 122.160156 304.027344 Z M 138.5 292.371094 " fill-opacity="1" fill-rule="nonzero"/><path fill="#ffffff" d="M 148.058594 268.042969 L 151.578125 268.183594 C 153.839844 268.355469 155.867188 269.636719 156.984375 271.59375 L 161.816406 280.085938 L 157.65625 303.234375 C 157.234375 305.589844 154.363281 306.5625 152.570312 304.957031 L 138.5 292.371094 L 147.664062 278.941406 Z M 148.058594 268.042969 " fill-opacity="1" fill-rule="nonzero"/><path fill="#ffffff" d="M 140.253906 303.691406 C 140.140625 305.117188 138.890625 306.183594 137.449219 306.074219 C 136.011719 305.964844 134.933594 304.71875 135.042969 303.292969 C 135.152344 301.867188 136.40625 300.800781 137.847656 300.910156 C 139.285156 301.019531 140.363281 302.265625 140.253906 303.691406 Z M 140.253906 303.691406 " fill-opacity="1" fill-rule="nonzero"/><path fill="#ffffff" d="M 140.046875 314.027344 C 139.9375 315.453125 138.683594 316.519531 137.242188 316.410156 C 135.804688 316.300781 134.726562 315.054688 134.835938 313.628906 C 134.945312 312.203125 136.199219 311.136719 137.640625 311.246094 C 139.078125 311.351562 140.15625 312.597656 140.046875 314.027344 Z M 140.046875 314.027344 " fill-opacity="1" fill-rule="nonzero"/><path fill="#000000" d="M 675.355469 332.386719 C 675.355469 350.566406 658.535156 365.320312 639.867188 365.320312 C 621.199219 365.320312 606.0625 350.585938 606.0625 332.40625 C 606.0625 314.222656 621.195312 299.488281 639.867188 299.488281 C 658.535156 299.488281 675.355469 314.207031 675.355469 332.386719 Z M 675.355469 332.386719 " fill-opacity="1" fill-rule="nonzero"/><path fill="#000000" d="M 675.105469 329.304688 C 675.105469 329.304688 676.207031 351.550781 679.746094 363.839844 C 684.96875 381.988281 690.179688 404.140625 688.488281 425.191406 L 597.582031 430.339844 C 597.582031 430.339844 596.984375 395.886719 605.285156 380.953125 C 613.585938 366.023438 607.773438 327.820312 607.773438 327.820312 Z M 675.105469 329.304688 " fill-opacity="1" fill-rule="nonzero"/><path fill="#ffad65" d="M 629.738281 372.289062 L 630.328125 396.203125 L 659.226562 392.558594 L 654.925781 350.714844 Z M 629.738281 372.289062 " fill-opacity="1" fill-rule="nonzero"/><path fill="#000000" d="M 630.140625 388.488281 C 630.140625 388.488281 645.734375 388.78125 647.183594 370.382812 L 629.859375 378.023438 Z M 630.140625 388.488281 " fill-opacity="1" fill-rule="nonzero"/><path fill="#ffad65" d="M 611.398438 316.335938 C 609.003906 318.359375 607.480469 321.203125 606.867188 324.269531 C 605.050781 333.355469 601.484375 350.949219 604.699219 360.597656 C 608.878906 373.140625 619.0625 381.074219 635.519531 377.945312 C 635.519531 377.945312 655.425781 374.691406 659.292969 350.347656 C 665.617188 310.511719 631.910156 298.992188 611.398438 316.335938 Z M 611.398438 316.335938 " fill-opacity="1" fill-rule="nonzero"/><path fill="#000000" d="M 610.335938 344.523438 C 610.035156 345.683594 608.84375 346.378906 607.679688 346.074219 C 606.519531 345.769531 605.828125 344.582031 606.132812 343.417969 C 606.4375 342.257812 607.625 341.5625 608.789062 341.871094 C 609.949219 342.175781 610.640625 343.363281 610.335938 344.523438 Z M 610.335938 344.523438 " fill-opacity="1" fill-rule="nonzero"/><path fill="#000000" d="M 628.695312 344.890625 C 628.394531 346.050781 627.207031 346.746094 626.042969 346.441406 C 624.878906 346.132812 624.1875 344.949219 624.492188 343.785156 C 624.800781 342.625 625.984375 341.929688 627.148438 342.238281 C 628.308594 342.542969 629.003906 343.734375 628.695312 344.890625 Z M 628.695312 344.890625 " fill-opacity="1" fill-rule="nonzero"/><path fill="#000000" d="M 615.351562 355.160156 C 615.300781 355.160156 615.246094 355.152344 615.191406 355.140625 L 611.710938 354.203125 C 611.539062 354.15625 611.398438 354.039062 611.316406 353.878906 C 611.238281 353.722656 611.234375 353.535156 611.304688 353.371094 L 613.453125 348.195312 C 613.582031 347.878906 613.933594 347.726562 614.257812 347.863281 C 614.570312 347.992188 614.71875 348.351562 614.589844 348.667969 L 612.707031 353.199219 L 615.511719 353.949219 C 615.839844 354.039062 616.035156 354.375 615.945312 354.703125 C 615.871094 354.980469 615.625 355.160156 615.351562 355.160156 Z M 615.351562 355.160156 " fill-opacity="1" fill-rule="nonzero"/><path fill="#000000" d="M 621.746094 335.023438 C 621.648438 336.515625 622.855469 337.761719 624.347656 337.710938 C 626.601562 337.636719 629.894531 337.734375 632.972656 338.613281 C 634.121094 338.941406 635.324219 338.34375 635.691406 337.210938 C 636.050781 336.125 635.457031 335.070312 634.460938 334.511719 C 632.417969 333.367188 629.203125 331.707031 623.925781 332.679688 C 622.746094 332.898438 621.824219 333.820312 621.746094 335.023438 Z M 621.746094 335.023438 " fill-opacity="1" fill-rule="nonzero"/><path fill="#000000" d="M 612.5625 335.039062 C 612.414062 336.492188 611.421875 337.703125 610.425781 337.652344 C 608.914062 337.578125 606.679688 337.671875 604.476562 338.53125 C 603.660156 338.851562 602.9375 338.269531 602.84375 337.167969 C 602.761719 336.109375 603.3125 335.082031 604.066406 334.539062 C 605.605469 333.429688 608.015625 331.816406 611.429688 332.761719 C 612.195312 332.972656 612.683594 333.871094 612.5625 335.039062 Z M 612.5625 335.039062 " fill-opacity="1" fill-rule="nonzero"/><path fill="#ffffff" d="M 613.148438 359.734375 L 625.347656 358.324219 C 625.347656 358.324219 626.113281 363.320312 620.070312 364.015625 C 614.027344 364.710938 613.148438 359.734375 613.148438 359.734375 Z M 613.148438 359.734375 " fill-opacity="1" fill-rule="nonzero"/><path fill="#000000" d="M 653.53125 350.839844 C 653.53125 350.839844 638.949219 341.3125 646.4375 323.15625 C 646.4375 323.15625 666.601562 329.152344 663.28125 331.703125 C 659.960938 334.253906 653.53125 350.839844 653.53125 350.839844 Z M 653.53125 350.839844 " fill-opacity="1" fill-rule="nonzero"/><path fill="#000000" d="M 650.632812 328.617188 C 650.632812 328.617188 633.066406 329.761719 601.066406 328.671875 C 601.066406 328.671875 602.832031 302.59375 634 299.863281 C 662.886719 297.328125 671.828125 322.929688 664.984375 345.058594 L 652.433594 348.351562 Z M 650.632812 328.617188 " fill-opacity="1" fill-rule="nonzero"/><path fill="#ffad65" d="M 670.265625 350.804688 C 670.265625 351.515625 670.195312 352.21875 670.058594 352.917969 C 669.917969 353.613281 669.714844 354.292969 669.441406 354.949219 C 669.167969 355.605469 668.835938 356.230469 668.441406 356.820312 C 668.046875 357.414062 667.597656 357.960938 667.09375 358.464844 C 666.59375 358.964844 666.046875 359.414062 665.453125 359.808594 C 664.863281 360.207031 664.238281 360.539062 663.582031 360.8125 C 662.925781 361.082031 662.25 361.289062 661.550781 361.425781 C 660.855469 361.566406 660.148438 361.636719 659.4375 361.636719 C 658.726562 361.636719 658.023438 361.566406 657.328125 361.425781 C 656.628906 361.289062 655.953125 361.082031 655.296875 360.8125 C 654.636719 360.539062 654.015625 360.207031 653.421875 359.808594 C 652.832031 359.414062 652.285156 358.964844 651.78125 358.464844 C 651.28125 357.960938 650.832031 357.414062 650.4375 356.820312 C 650.042969 356.230469 649.707031 355.605469 649.4375 354.949219 C 649.164062 354.292969 648.957031 353.613281 648.820312 352.917969 C 648.679688 352.21875 648.613281 351.515625 648.613281 350.804688 C 648.613281 350.09375 648.679688 349.386719 648.820312 348.691406 C 648.957031 347.992188 649.164062 347.316406 649.4375 346.65625 C 649.707031 346 650.042969 345.375 650.4375 344.785156 C 650.832031 344.195312 651.28125 343.648438 651.78125 343.144531 C 652.285156 342.640625 652.832031 342.191406 653.421875 341.796875 C 654.015625 341.402344 654.636719 341.066406 655.296875 340.796875 C 655.953125 340.523438 656.628906 340.316406 657.328125 340.179688 C 658.023438 340.039062 658.726562 339.972656 659.4375 339.972656 C 660.148438 339.972656 660.855469 340.039062 661.550781 340.179688 C 662.25 340.316406 662.925781 340.523438 663.582031 340.796875 C 664.238281 341.066406 664.863281 341.402344 665.453125 341.796875 C 666.046875 342.191406 666.59375 342.640625 667.09375 343.144531 C 667.597656 343.648438 668.046875 344.195312 668.441406 344.785156 C 668.835938 345.375 669.167969 346 669.441406 346.65625 C 669.714844 347.316406 669.917969 347.992188 670.058594 348.691406 C 670.195312 349.386719 670.265625 350.09375 670.265625 350.804688 Z M 670.265625 350.804688 " fill-opacity="1" fill-rule="nonzero"/><path fill="#000000" d="M 654.203125 354.746094 C 654.15625 354.746094 654.105469 354.742188 654.058594 354.730469 C 653.726562 354.648438 653.523438 354.316406 653.605469 353.984375 C 654.300781 351.113281 655.675781 349.058594 657.695312 347.882812 C 660.808594 346.074219 664.277344 347.039062 664.421875 347.082031 C 664.75 347.175781 664.9375 347.511719 664.84375 347.839844 C 664.75 348.167969 664.410156 348.351562 664.085938 348.265625 C 664.054688 348.257812 660.953125 347.40625 658.304688 348.953125 C 656.589844 349.957031 655.414062 351.746094 654.800781 354.277344 C 654.734375 354.558594 654.480469 354.746094 654.203125 354.746094 Z M 654.203125 354.746094 " fill-opacity="1" fill-rule="nonzero"/><g clip-path="url(#60e0f644c3)"><path fill="#ffad65" d="M 592.523438 502.136719 L 609.511719 443.632812 L 580 444.785156 L 567.425781 502.136719 Z M 592.523438 502.136719 " fill-opacity="1" fill-rule="nonzero"/></g><path fill="#3f2952" d="M 607.261719 395.578125 C 607.261719 395.578125 585.617188 399.113281 573.277344 451.875 L 610.699219 468.421875 Z M 607.261719 395.578125 " fill-opacity="1" fill-rule="nonzero"/><g clip-path="url(#13188e976b)"><path fill="#3f2952" d="M 607.261719 395.578125 C 607.261719 395.578125 587.324219 442.347656 597.289062 462.917969 C 600.328125 469.191406 602.175781 475.976562 603.640625 482.796875 L 608.105469 503.601562 L 682.078125 502.136719 C 682.078125 502.136719 707.492188 467.210938 706.917969 432.449219 C 706.335938 397.691406 678.875 394.035156 678.875 394.035156 L 612.125 394.796875 Z M 607.261719 395.578125 " fill-opacity="1" fill-rule="nonzero"/></g><path fill="#ffad65" d="M 612.121094 394.796875 C 612.121094 394.796875 634.292969 389.566406 639.410156 389.566406 C 639.410156 389.566406 653.609375 388.480469 678.875 394.03125 C 678.875 394.03125 673.128906 398.617188 664.707031 406.105469 C 647.855469 421.101562 621.300781 415.410156 612.121094 394.796875 Z M 612.121094 394.796875 " fill-opacity="1" fill-rule="nonzero"/><g clip-path="url(#9515da5291)"><path fill="#ffad65" d="M 686.835938 442.792969 L 705.539062 514.269531 C 707.148438 522.230469 715.246094 527.085938 723.019531 524.753906 C 729.503906 522.808594 733.621094 516.445312 732.734375 509.726562 L 722.03125 450.246094 Z M 686.835938 442.792969 " fill-opacity="1" fill-rule="nonzero"/></g><path fill="#3f2952" d="M 678.875 394.035156 C 678.875 394.035156 707.277344 399.160156 714.402344 411.1875 C 721.527344 423.21875 728.207031 459.527344 728.207031 459.527344 L 684.902344 466.574219 Z M 678.875 394.035156 " fill-opacity="1" fill-rule="nonzero"/><g clip-path="url(#53f3b67b34)"><path fill="#ffad65" d="M 636.128906 503.601562 L 715.75 525.003906 C 721.980469 526.832031 730.683594 520.871094 732.421875 514.613281 C 734.355469 507.648438 729.550781 495.523438 722.363281 494.804688 L 640.949219 489.175781 Z M 636.128906 503.601562 " fill-opacity="1" fill-rule="nonzero"/></g><g clip-path="url(#d4a26f680b)"><path fill="#ffad65" d="M 640.949219 489.175781 C 640.949219 489.175781 605.019531 482.042969 605.019531 503.601562 L 636.128906 503.601562 Z M 640.949219 489.175781 " fill-opacity="1" fill-rule="nonzero"/></g><path fill="#000000" d="M 692.726562 465.917969 C 692.453125 465.917969 692.203125 465.730469 692.132812 465.453125 L 684.140625 434.066406 C 684.054688 433.734375 684.253906 433.402344 684.582031 433.316406 C 684.921875 433.234375 685.246094 433.433594 685.332031 433.761719 L 693.324219 465.148438 C 693.40625 465.480469 693.207031 465.8125 692.882812 465.898438 C 692.832031 465.910156 692.777344 465.917969 692.726562 465.917969 Z M 692.726562 465.917969 " fill-opacity="1" fill-rule="nonzero"/><path fill="#000000" d="M 597.574219 462.101562 C 597.257812 462.101562 596.988281 461.859375 596.960938 461.539062 L 594.804688 436.609375 C 594.777344 436.269531 595.027344 435.972656 595.367188 435.945312 C 595.738281 435.902344 596.003906 436.167969 596.03125 436.503906 L 598.1875 461.433594 C 598.214844 461.773438 597.964844 462.070312 597.625 462.097656 C 597.609375 462.101562 597.589844 462.101562 597.574219 462.101562 Z M 597.574219 462.101562 " fill-opacity="1" fill-rule="nonzero"/></svg>