<svg xmlns="http://www.w3.org/2000/svg" xmlns:xlink="http://www.w3.org/1999/xlink" width="500" zoomAndPan="magnify" viewBox="0 0 375 374.999991" height="500" preserveAspectRatio="xMidYMid meet" version="1.0"><path fill="#1f5477" d="M 145.535156 52.113281 C 148.480469 53.867188 148.480469 58.09375 145.535156 59.851562 C 143.332031 61.160156 141.160156 62.46875 138.957031 63.78125 C 137.230469 64.820312 136.398438 66.84375 136.875 68.75 C 137.5 71.21875 138.125 73.691406 138.75 76.160156 C 139.582031 79.492188 136.578125 82.46875 133.242188 81.636719 L 125.804688 79.792969 C 123.867188 79.316406 121.84375 80.148438 120.804688 81.84375 C 119.492188 84.046875 118.183594 86.21875 116.875 88.421875 C 115.117188 91.339844 110.863281 91.339844 109.078125 88.421875 C 107.769531 86.21875 106.457031 84.046875 105.148438 81.84375 C 104.105469 80.148438 102.082031 79.316406 100.148438 79.792969 L 92.707031 81.636719 C 89.40625 82.46875 86.367188 79.492188 87.203125 76.160156 L 89.078125 68.75 C 89.554688 66.84375 88.71875 64.820312 86.992188 63.78125 C 84.820312 62.46875 82.617188 61.160156 80.417969 59.851562 C 77.5 58.09375 77.5 53.867188 80.417969 52.113281 C 82.617188 50.804688 84.820312 49.492188 86.992188 48.183594 C 88.71875 47.171875 89.554688 45.148438 89.078125 43.214844 L 87.203125 35.804688 C 86.367188 32.5 89.40625 29.492188 92.707031 30.328125 C 95.207031 30.953125 97.679688 31.546875 100.148438 32.171875 C 102.082031 32.648438 104.105469 31.816406 105.148438 30.117188 C 106.457031 27.945312 107.769531 25.742188 109.078125 23.570312 C 110.863281 20.65625 115.117188 20.65625 116.875 23.570312 C 118.183594 25.742188 119.492188 27.945312 120.804688 30.117188 C 121.84375 31.816406 123.867188 32.648438 125.804688 32.171875 C 128.273438 31.546875 130.773438 30.953125 133.242188 30.328125 C 136.578125 29.492188 139.582031 32.5 138.75 35.804688 C 138.125 38.273438 137.5 40.742188 136.875 43.214844 C 136.398438 45.148438 137.230469 47.171875 138.957031 48.183594 C 141.160156 49.492188 143.332031 50.804688 145.535156 52.113281 Z M 145.535156 52.113281 " fill-opacity="1" fill-rule="nonzero"/><path fill="#fbc88e" d="M 115.207031 334.167969 C 117.828125 334.167969 120.417969 333.332031 122.558594 331.695312 C 121.546875 333.929688 121.28125 336.367188 121.726562 338.71875 L 65.328125 338.71875 L 65.355469 273.421875 L 70.683594 265.59375 L 81.308594 273.421875 C 85.953125 279.433594 91.25 285.742188 97.261719 292.203125 C 102.351562 297.738281 107.410156 302.769531 112.320312 307.320312 L 106.101562 314.730469 C 101.875 319.761719 102.558594 327.230469 107.589844 331.429688 C 109.820312 333.273438 112.53125 334.167969 115.207031 334.167969 Z M 115.207031 334.167969 " fill-opacity="1" fill-rule="nonzero"/><path fill="#fbc88e" d="M 309.644531 273.421875 L 309.703125 338.71875 L 240.417969 338.71875 C 242.203125 334.792969 241.90625 330.207031 239.523438 326.546875 C 243.214844 326.757812 248.511719 323.808594 251.28125 321.011719 C 253.511719 319.105469 254.910156 316.636719 255.476562 314.046875 L 255.507812 314.046875 C 262.738281 308.453125 270.863281 301.28125 279.019531 292.203125 C 284.882812 285.65625 289.730469 279.285156 293.691406 273.421875 L 304.316406 265.59375 Z M 309.644531 273.421875 " fill-opacity="1" fill-rule="nonzero"/><path fill="#fbc88e" d="M 311.695312 3.511719 L 311.695312 151.519531 L 252.230469 188.839844 L 257.203125 196.160156 L 245.863281 204.492188 L 245.832031 204.523438 C 243.78125 200.65625 239.882812 198.09375 235.507812 197.292969 L 212.292969 193.15625 C 207.886719 192.382812 203.421875 192.351562 199.019531 193.066406 L 129.136719 204.492188 L 117.796875 196.160156 L 122.769531 188.839844 L 62.855469 151.25 L 62.855469 2.976562 Z M 145.535156 59.851562 C 148.480469 58.09375 148.480469 53.867188 145.535156 52.113281 C 143.332031 50.804688 141.160156 49.492188 138.957031 48.183594 C 137.230469 47.171875 136.398438 45.148438 136.875 43.214844 C 137.5 40.742188 138.125 38.273438 138.75 35.804688 C 139.582031 32.5 136.578125 29.492188 133.242188 30.328125 C 130.773438 30.953125 128.273438 31.546875 125.804688 32.171875 C 123.867188 32.648438 121.84375 31.816406 120.804688 30.117188 C 119.492188 27.945312 118.183594 25.742188 116.875 23.570312 C 115.117188 20.65625 110.863281 20.65625 109.078125 23.570312 C 107.769531 25.742188 106.457031 27.945312 105.148438 30.117188 C 104.105469 31.816406 102.082031 32.648438 100.148438 32.171875 C 97.679688 31.546875 95.207031 30.953125 92.707031 30.328125 C 89.40625 29.492188 86.367188 32.5 87.203125 35.804688 L 89.078125 43.214844 C 89.554688 45.148438 88.71875 47.171875 86.992188 48.183594 C 84.820312 49.492188 82.617188 50.804688 80.417969 52.113281 C 77.5 53.867188 77.5 58.09375 80.417969 59.851562 C 82.617188 61.160156 84.820312 62.46875 86.992188 63.78125 C 88.71875 64.820312 89.554688 66.84375 89.078125 68.75 L 87.203125 76.160156 C 86.367188 79.492188 89.40625 82.46875 92.707031 81.636719 L 100.148438 79.792969 C 102.082031 79.316406 104.105469 80.148438 105.148438 81.84375 C 106.457031 84.046875 107.769531 86.21875 109.078125 88.421875 C 110.863281 91.339844 115.117188 91.339844 116.875 88.421875 C 118.183594 86.21875 119.492188 84.046875 120.804688 81.84375 C 121.84375 80.148438 123.867188 79.316406 125.804688 79.792969 L 133.242188 81.636719 C 136.578125 82.46875 139.582031 79.492188 138.75 76.160156 C 138.125 73.691406 137.5 71.21875 136.875 68.75 C 136.398438 66.84375 137.230469 64.820312 138.957031 63.78125 C 141.160156 62.46875 143.332031 61.160156 145.535156 59.851562 Z M 145.535156 59.851562 " fill-opacity="1" fill-rule="nonzero"/><path fill="#d8959a" d="M 188.691406 341.964844 C 193.480469 345.921875 194.316406 352.855469 190.832031 357.828125 C 190.65625 358.125 190.417969 358.394531 190.207031 358.660156 L 182.558594 367.769531 C 180.207031 370.566406 176.816406 372.023438 173.421875 372.023438 C 170.742188 372.023438 168.035156 371.101562 165.804688 369.257812 C 162.023438 366.132812 160.683594 361.160156 162.023438 356.726562 L 162.023438 356.695312 L 169.136719 348.242188 C 170.179688 346.992188 170.921875 345.566406 171.367188 344.105469 L 171.398438 344.078125 L 171.933594 343.453125 C 174.285156 340.65625 177.679688 339.226562 181.070312 339.226562 C 183.78125 339.226562 186.457031 340.117188 188.691406 341.964844 Z M 188.691406 341.964844 " fill-opacity="1" fill-rule="nonzero"/><path fill="#dfa3a5" d="M 167.617188 331.546875 C 171.398438 334.671875 172.707031 339.671875 171.398438 344.078125 L 171.367188 344.105469 C 170.921875 345.566406 170.179688 346.992188 169.136719 348.242188 L 162.023438 356.695312 L 162.023438 356.726562 L 161.488281 357.351562 C 159.136719 360.148438 155.773438 361.605469 152.351562 361.605469 C 149.671875 361.605469 146.964844 360.683594 144.730469 358.839844 C 140.714844 355.507812 139.464844 350.089844 141.25 345.476562 C 141.726562 345.058594 142.144531 344.613281 142.558594 344.136719 L 150.179688 335.058594 C 151.042969 334.019531 151.695312 332.917969 152.144531 331.726562 L 152.171875 331.726562 C 154.375 329.792969 157.171875 328.808594 160 328.808594 C 162.679688 328.808594 165.386719 329.703125 167.617188 331.546875 Z M 167.617188 331.546875 " fill-opacity="1" fill-rule="nonzero"/><path fill="#f7b6ad" d="M 142.558594 344.136719 C 142.144531 344.613281 141.726562 345.058594 141.25 345.476562 C 139.046875 347.382812 136.21875 348.394531 133.421875 348.394531 C 130.714844 348.394531 128.007812 347.5 125.773438 345.625 C 123.570312 343.78125 122.203125 341.308594 121.726562 338.71875 C 121.28125 336.367188 121.546875 333.929688 122.558594 331.695312 L 122.558594 331.667969 C 123.214844 331.191406 123.808594 330.59375 124.375 329.941406 L 131.992188 320.832031 C 132.707031 319.96875 133.273438 319.046875 133.71875 318.09375 C 135.832031 316.429688 138.453125 315.59375 141.042969 315.59375 C 143.75 315.59375 146.457031 316.488281 148.691406 318.332031 C 152.707031 321.667969 153.957031 327.113281 152.144531 331.726562 C 151.695312 332.917969 151.042969 334.019531 150.179688 335.058594 Z M 142.558594 344.136719 " fill-opacity="1" fill-rule="nonzero"/><path fill="#fec4b9" d="M 130.507812 304.136719 C 134.671875 307.617188 135.863281 313.363281 133.71875 318.09375 C 133.273438 319.046875 132.707031 319.96875 131.992188 320.832031 L 124.375 329.941406 C 123.808594 330.59375 123.214844 331.191406 122.558594 331.667969 L 122.558594 331.695312 C 120.417969 333.332031 117.828125 334.167969 115.207031 334.167969 C 112.53125 334.167969 109.820312 333.273438 107.589844 331.429688 C 102.558594 327.230469 101.875 319.761719 106.101562 314.730469 L 112.320312 307.320312 L 113.71875 305.625 C 116.070312 302.828125 119.464844 301.367188 122.855469 301.367188 C 125.566406 301.367188 128.273438 302.292969 130.507812 304.136719 Z M 130.507812 304.136719 " fill-opacity="1" fill-rule="nonzero"/><path fill="#f7b6ad" d="M 279.019531 292.203125 C 270.863281 301.28125 262.738281 308.453125 255.507812 314.046875 L 255.476562 314.046875 C 256.519531 309.523438 255 304.523438 251.011719 301.308594 C 235.476562 288.839844 216.726562 273.214844 201.21875 260.714844 C 199.167969 259.078125 196.90625 257.855469 194.492188 256.992188 C 194.433594 256.992188 194.40625 256.964844 194.34375 256.964844 C 193.214844 256.578125 192.054688 256.28125 190.863281 256.101562 C 186.308594 255.296875 181.519531 255.894531 177.171875 257.945312 C 174.703125 259.105469 172.5 260.058594 170.59375 260.894531 C 156.398438 266.964844 151.25 267.230469 148.273438 267.144531 C 144.40625 267.054688 134.644531 266.757812 132.320312 260.894531 C 131.191406 258.066406 132.054688 254.464844 134.375 251.070312 C 136.042969 248.632812 138.421875 246.757812 141.011719 245.296875 L 187.054688 219.851562 C 192.53125 219.34375 197.292969 218.929688 202.769531 218.421875 C 226.191406 226.488281 245.535156 220.089844 247.113281 210.773438 C 247.46875 208.75 246.933594 206.757812 246.070312 204.941406 C 246.011719 204.792969 245.921875 204.644531 245.832031 204.523438 L 245.863281 204.492188 L 293.691406 273.421875 C 289.730469 279.285156 284.882812 285.65625 279.019531 292.203125 Z M 279.019531 292.203125 " fill-opacity="1" fill-rule="nonzero"/><path fill="#ffd7d2" d="M 113.71875 305.625 L 112.320312 307.320312 C 107.410156 302.769531 102.351562 297.738281 97.261719 292.203125 C 91.25 285.742188 85.953125 279.433594 81.308594 273.421875 L 129.136719 204.492188 L 199.019531 193.066406 C 203.421875 192.351562 207.886719 192.382812 212.292969 193.15625 L 235.507812 197.292969 C 239.882812 198.09375 243.78125 200.65625 245.832031 204.523438 C 245.921875 204.644531 246.011719 204.792969 246.070312 204.941406 C 246.933594 206.757812 247.46875 208.75 247.113281 210.773438 C 245.535156 220.089844 226.191406 226.488281 202.769531 218.421875 C 197.292969 218.929688 192.53125 219.34375 187.054688 219.851562 L 141.011719 245.296875 C 138.421875 246.757812 136.042969 248.632812 134.375 251.070312 C 132.054688 254.464844 131.191406 258.066406 132.320312 260.894531 C 134.644531 266.757812 144.40625 267.054688 148.273438 267.144531 C 151.25 267.230469 156.398438 266.964844 170.59375 260.894531 C 172.5 260.058594 174.703125 259.105469 177.171875 257.945312 C 181.519531 255.894531 186.308594 255.296875 190.863281 256.101562 C 191.875 256.367188 193.035156 256.667969 194.34375 256.964844 C 194.40625 256.964844 194.433594 256.992188 194.492188 256.992188 C 196.90625 257.855469 199.167969 259.078125 201.21875 260.714844 C 216.726562 273.214844 235.476562 288.839844 251.011719 301.308594 C 255 304.523438 256.519531 309.523438 255.476562 314.046875 C 254.910156 316.636719 253.511719 319.105469 251.28125 321.011719 C 248.511719 323.808594 243.214844 326.757812 239.523438 326.546875 C 241.90625 330.207031 242.203125 334.792969 240.417969 338.71875 C 239.820312 340.03125 238.988281 341.25 237.917969 342.351562 L 235.804688 344.492188 C 230.863281 349.554688 222.679688 349.792969 217.441406 345 L 217.292969 344.882812 C 218.480469 349.078125 217.410156 353.808594 214.105469 357.171875 L 211.992188 359.316406 C 211.042969 360.207031 207.796875 363.007812 202.917969 363.273438 C 196.367188 363.632812 191.992188 359.167969 190.832031 357.828125 C 194.316406 352.855469 193.480469 345.921875 188.691406 341.964844 C 186.457031 340.117188 183.78125 339.226562 181.070312 339.226562 C 177.679688 339.226562 174.285156 340.65625 171.933594 343.453125 L 171.398438 344.078125 C 172.707031 339.671875 171.398438 334.671875 167.617188 331.546875 C 165.386719 329.703125 162.679688 328.808594 160 328.808594 C 157.171875 328.808594 154.375 329.792969 152.171875 331.726562 L 152.144531 331.726562 C 153.957031 327.113281 152.707031 321.667969 148.691406 318.332031 C 146.457031 316.488281 143.75 315.59375 141.042969 315.59375 C 138.453125 315.59375 135.832031 316.429688 133.71875 318.09375 C 135.863281 313.363281 134.671875 307.617188 130.507812 304.136719 C 128.273438 302.292969 125.566406 301.367188 122.855469 301.367188 C 119.464844 301.367188 116.070312 302.828125 113.71875 305.625 Z M 113.71875 305.625 " fill-opacity="1" fill-rule="nonzero"/><path fill="#d0e8cf" d="M 129.136719 204.492188 L 81.308594 273.421875 L 70.683594 265.59375 L 117.796875 196.160156 Z M 129.136719 204.492188 " fill-opacity="1" fill-rule="nonzero"/><path fill="#d0e8cf" d="M 257.203125 196.160156 L 304.316406 265.59375 L 293.691406 273.421875 L 245.863281 204.492188 Z M 257.203125 196.160156 " fill-opacity="1" fill-rule="nonzero"/><path fill="#8bcb8f" d="M 372.023438 113.660156 L 372.023438 242.082031 L 309.644531 273.421875 L 304.316406 265.59375 L 257.203125 196.160156 L 252.230469 188.839844 L 311.695312 151.519531 Z M 372.023438 113.660156 " fill-opacity="1" fill-rule="nonzero"/><path fill="#29845f" d="M 122.769531 188.839844 L 117.796875 196.160156 L 70.683594 265.59375 L 65.355469 273.421875 L 2.976562 242.082031 L 2.976562 113.660156 L 62.855469 151.25 Z M 122.769531 188.839844 " fill-opacity="1" fill-rule="nonzero"/><path fill="#3a322b" d="M 373.464844 111.058594 C 372.515625 110.535156 371.355469 110.570312 370.441406 111.144531 L 314.671875 146.144531 L 314.671875 3.507812 C 314.671875 1.867188 313.34375 0.535156 311.703125 0.53125 L 62.871094 0 C 62.867188 0 62.867188 0 62.867188 0 C 62.078125 0 61.320312 0.3125 60.765625 0.867188 C 60.207031 1.425781 59.890625 2.183594 59.890625 2.976562 L 59.890625 145.871094 L 4.554688 111.144531 C 3.640625 110.570312 2.484375 110.535156 1.53125 111.058594 C 0.585938 111.582031 0 112.582031 0 113.664062 L 0 242.09375 C 0 243.21875 0.632812 244.25 1.644531 244.757812 L 62.382812 275.253906 L 62.367188 338.71875 C 62.367188 339.507812 62.679688 340.269531 63.238281 340.824219 C 63.796875 341.382812 64.550781 341.695312 65.34375 341.695312 L 119.507812 341.695312 C 120.386719 344.066406 121.847656 346.234375 123.882812 347.929688 C 126.664062 350.242188 130.042969 351.367188 133.40625 351.367188 C 134.804688 351.367188 136.195312 351.15625 137.539062 350.769531 C 137.8125 354.714844 139.636719 358.484375 142.820312 361.140625 C 145.597656 363.449219 148.980469 364.578125 152.34375 364.578125 C 154.589844 364.578125 156.820312 364.0625 158.863281 363.074219 C 159.515625 366.320312 161.21875 369.335938 163.890625 371.554688 C 166.667969 373.867188 170.046875 374.996094 173.414062 374.996094 C 177.671875 374.996094 181.90625 373.1875 184.839844 369.683594 L 191.132812 362.1875 C 193.519531 364.101562 197.273438 366.261719 202.167969 366.261719 C 202.46875 366.261719 202.769531 366.253906 203.074219 366.238281 C 208.511719 365.941406 212.269531 363.140625 214.121094 361.402344 L 216.230469 359.242188 C 218.636719 356.785156 220.121094 353.644531 220.570312 350.34375 C 222.429688 351.042969 224.394531 351.394531 226.359375 351.394531 C 230.582031 351.394531 234.804688 349.78125 237.929688 346.582031 L 240.042969 344.425781 C 240.859375 343.585938 241.554688 342.667969 242.15625 341.699219 L 309.710938 341.699219 C 310.503906 341.699219 311.257812 341.386719 311.816406 340.828125 C 312.375 340.269531 312.6875 339.511719 312.6875 338.71875 L 312.617188 275.257812 L 373.355469 244.757812 C 374.367188 244.253906 375 243.222656 375 242.097656 L 375 113.664062 C 375 112.582031 374.414062 111.582031 373.464844 111.058594 Z M 65.84375 5.957031 L 308.71875 6.480469 L 308.71875 149.882812 L 250.664062 186.320312 C 249.980469 186.753906 249.496094 187.441406 249.332031 188.230469 C 249.167969 189.023438 249.332031 189.84375 249.78125 190.519531 L 253.132812 195.457031 L 246.554688 200.304688 C 243.96875 197.265625 240.246094 195.132812 236.042969 194.378906 L 212.800781 190.226562 C 208.082031 189.382812 203.285156 189.351562 198.554688 190.121094 L 129.890625 201.359375 L 121.867188 195.449219 L 125.21875 190.511719 C 125.671875 189.84375 125.835938 189.019531 125.667969 188.226562 C 125.503906 187.433594 125.023438 186.746094 124.339844 186.316406 L 65.84375 149.605469 Z M 258.398438 307.875 C 257.632812 304.417969 255.714844 301.28125 252.871094 299.003906 C 245.117188 292.769531 236.566406 285.757812 228.019531 278.742188 C 220.832031 272.847656 213.679688 266.984375 206.96875 261.554688 C 208.015625 261.597656 209.066406 261.65625 210.113281 261.65625 C 214.132812 261.65625 218.144531 261.339844 222.082031 260.695312 C 231.53125 259.148438 240.472656 255.855469 248.65625 250.90625 C 250.0625 250.054688 250.511719 248.226562 249.660156 246.820312 C 248.808594 245.410156 246.980469 244.960938 245.574219 245.8125 C 238.042969 250.367188 229.820312 253.402344 221.125 254.820312 C 212.230469 256.273438 202.949219 255.914062 194.125 253.832031 C 193.601562 253.679688 193.074219 253.554688 192.542969 253.441406 C 192.253906 253.363281 191.957031 253.304688 191.664062 253.222656 C 191.511719 253.179688 191.359375 253.207031 191.207031 253.195312 C 186.09375 252.347656 180.734375 252.96875 175.894531 255.246094 C 173.472656 256.382812 171.300781 257.347656 169.417969 258.152344 C 154.949219 264.332031 150.292969 264.230469 148.332031 264.179688 C 140.625 263.996094 136.167969 262.523438 135.089844 259.792969 C 134.382812 258 135.03125 255.367188 136.824219 252.757812 C 138.09375 250.910156 139.992188 249.28125 142.46875 247.914062 L 187.957031 222.75 L 202.40625 221.445312 C 220.734375 227.601562 235.257812 225.082031 242.777344 220.621094 C 245.730469 218.871094 247.835938 216.71875 249.035156 214.296875 L 290.058594 273.40625 C 286 279.246094 281.554688 284.90625 276.78125 290.222656 C 271.144531 296.519531 264.960938 302.421875 258.398438 307.875 Z M 294.394531 269.207031 L 249.957031 205.183594 L 256.476562 200.382812 L 300.257812 264.890625 Z M 80.605469 269.207031 L 74.742188 264.894531 L 118.523438 200.382812 L 125.042969 205.1875 Z M 5.953125 119.042969 L 118.5625 189.722656 L 64.363281 269.589844 L 5.953125 240.257812 Z M 68.335938 274.332031 L 71.402344 269.820312 L 79.230469 275.585938 C 84.222656 281.996094 89.542969 288.273438 95.066406 294.238281 C 99.292969 298.804688 103.734375 303.238281 108.257812 307.523438 L 103.820312 312.8125 C 101.269531 315.851562 100.058594 319.695312 100.410156 323.644531 C 100.765625 327.59375 102.640625 331.171875 105.695312 333.71875 C 106.722656 334.570312 107.851562 335.210938 109.015625 335.746094 L 68.320312 335.746094 Z M 129.71875 318.917969 L 122.089844 328.019531 C 118.925781 331.78125 113.28125 332.292969 109.503906 329.144531 C 107.675781 327.617188 106.554688 325.480469 106.339844 323.117188 C 106.128906 320.757812 106.855469 318.460938 108.378906 316.640625 L 116.007812 307.542969 C 119.171875 303.78125 124.816406 303.269531 128.59375 306.417969 C 130.421875 307.945312 131.546875 310.082031 131.757812 312.445312 C 131.96875 314.804688 131.242188 317.101562 129.71875 318.917969 Z M 127.691406 343.355469 C 124.769531 340.929688 123.765625 336.910156 125.09375 333.410156 C 125.636719 332.929688 126.164062 332.417969 126.644531 331.84375 L 134.273438 322.742188 C 134.957031 321.933594 135.523438 321.058594 136.007812 320.148438 C 139.269531 317.921875 143.707031 318.074219 146.78125 320.632812 C 148.605469 322.15625 149.730469 324.292969 149.945312 326.652344 C 150.15625 329.011719 149.429688 331.3125 147.90625 333.132812 L 140.269531 342.230469 C 137.109375 346 131.46875 346.496094 127.691406 343.355469 Z M 146.632812 356.5625 C 143.84375 354.238281 142.785156 350.492188 143.867188 347.082031 C 144.203125 346.757812 144.53125 346.417969 144.832031 346.054688 L 152.46875 336.957031 C 153.308594 335.957031 153.945312 334.847656 154.484375 333.699219 C 157.757812 331.140625 162.5 331.164062 165.71875 333.84375 C 167.546875 335.367188 168.671875 337.5 168.882812 339.863281 C 169.09375 342.222656 168.371094 344.519531 166.84375 346.34375 L 159.765625 354.78125 C 159.757812 354.789062 159.75 354.792969 159.742188 354.804688 L 159.210938 355.4375 C 156.050781 359.207031 150.40625 359.707031 146.632812 356.5625 Z M 180.28125 365.855469 C 177.121094 369.628906 171.476562 370.125 167.695312 366.980469 C 165.074219 364.796875 163.96875 361.351562 164.769531 358.078125 L 171.40625 350.167969 C 172.539062 348.820312 173.355469 347.292969 173.945312 345.691406 L 174.203125 345.382812 C 177.367188 341.617188 183.011719 341.113281 186.789062 344.261719 C 188.617188 345.78125 189.738281 347.917969 189.953125 350.28125 C 190.167969 352.640625 189.441406 354.941406 187.917969 356.761719 Z M 233.679688 342.417969 C 229.863281 346.316406 223.480469 346.480469 219.460938 342.800781 L 175.792969 302.554688 C 174.585938 301.445312 172.707031 301.519531 171.589844 302.730469 C 170.476562 303.9375 170.550781 305.820312 171.761719 306.933594 L 214.585938 346.402344 C 215.207031 349.542969 214.273438 352.738281 211.980469 355.082031 L 209.964844 357.144531 C 209.027344 358.023438 206.445312 360.089844 202.757812 360.289062 C 199.019531 360.53125 196.183594 358.730469 194.515625 357.28125 C 195.605469 354.945312 196.121094 352.382812 195.886719 349.746094 C 195.53125 345.796875 193.65625 342.226562 190.605469 339.683594 C 185.964844 335.820312 179.644531 335.289062 174.527344 337.777344 C 173.867188 334.457031 172.179688 331.46875 169.535156 329.269531 C 165.605469 326 160.496094 325.09375 155.878906 326.433594 C 155.871094 326.328125 155.890625 326.226562 155.882812 326.117188 C 155.527344 322.167969 153.648438 318.597656 150.597656 316.054688 C 146.945312 313.015625 142.125 312.042969 137.683594 313.0625 C 137.679688 312.679688 137.730469 312.300781 137.695312 311.917969 C 137.34375 307.964844 135.464844 304.386719 132.410156 301.84375 C 126.378906 296.824219 117.53125 297.441406 112.167969 303.019531 C 107.804688 298.878906 103.519531 294.59375 99.4375 290.191406 C 94.421875 284.777344 89.605469 279.082031 85.03125 273.277344 L 130.867188 207.234375 L 199.519531 195.996094 C 203.585938 195.332031 207.707031 195.359375 211.761719 196.082031 L 235.003906 200.234375 C 238.757812 200.90625 241.894531 203.15625 243.40625 206.257812 C 244.128906 207.730469 244.390625 209.082031 244.191406 210.269531 C 243.878906 212.132812 242.296875 213.992188 239.753906 215.503906 C 233.59375 219.15625 220.460938 221.378906 203.746094 215.613281 C 203.347656 215.476562 202.929688 215.421875 202.507812 215.460938 L 186.804688 216.875 C 186.394531 216.914062 185.996094 217.035156 185.632812 217.234375 L 139.59375 242.707031 C 136.308594 244.519531 133.730469 246.769531 131.929688 249.386719 C 128.96875 253.699219 128.105469 258.292969 129.566406 261.980469 C 132.640625 269.765625 143.949219 270.03125 148.207031 270.128906 C 152.089844 270.1875 157.96875 269.519531 171.761719 263.621094 C 173.699219 262.796875 175.941406 261.804688 178.433594 260.628906 C 182.449219 258.738281 186.917969 258.320312 191.105469 259.199219 C 191.5625 259.320312 192.023438 259.417969 192.480469 259.53125 C 194.953125 260.234375 197.304688 261.394531 199.351562 263.042969 C 207.117188 269.285156 215.679688 276.3125 224.25 283.339844 C 232.816406 290.363281 241.382812 297.394531 249.148438 303.632812 C 251.453125 305.488281 252.796875 308.222656 252.832031 311.136719 C 252.871094 314.050781 251.597656 316.816406 249.144531 318.914062 C 246.992188 321.113281 243.375 323.011719 240.882812 323.457031 C 240.417969 322.90625 239.976562 322.339844 239.433594 321.84375 L 198.113281 283.757812 C 196.90625 282.648438 195.027344 282.71875 193.90625 283.929688 C 192.792969 285.140625 192.867188 287.019531 194.082031 288.136719 L 235.398438 326.230469 C 237.382812 328.050781 238.515625 330.511719 238.585938 333.167969 C 238.65625 335.824219 237.664062 338.339844 235.789062 340.261719 Z M 244.339844 335.742188 C 244.46875 334.84375 244.5625 333.9375 244.535156 333.007812 C 244.496094 331.582031 244.207031 330.21875 243.800781 328.886719 C 247.417969 327.796875 251.042969 325.476562 253.1875 323.269531 C 255.554688 321.265625 257.230469 318.65625 258.097656 315.777344 C 266.429688 309.253906 274.210938 302.007812 281.21875 294.203125 C 286.503906 288.308594 291.417969 282.027344 295.851562 275.523438 L 303.597656 269.820312 L 306.664062 274.335938 L 306.730469 335.746094 L 244.339844 335.746094 Z M 369.046875 240.257812 L 310.636719 269.585938 L 256.4375 189.722656 L 369.046875 119.042969 Z M 369.046875 240.257812 " fill-opacity="1" fill-rule="nonzero"/><path fill="#3a322b" d="M 173.304688 48.363281 L 251.371094 48.363281 C 253.019531 48.363281 254.347656 47.03125 254.347656 45.386719 C 254.347656 43.742188 253.019531 42.410156 251.371094 42.410156 L 173.304688 42.410156 C 171.65625 42.410156 170.328125 43.742188 170.328125 45.386719 C 170.328125 47.03125 171.660156 48.363281 173.304688 48.363281 Z M 173.304688 48.363281 " fill-opacity="1" fill-rule="nonzero"/><path fill="#3a322b" d="M 162.660156 73.105469 L 269.117188 73.105469 C 270.761719 73.105469 272.09375 71.769531 272.09375 70.128906 C 272.09375 68.484375 270.761719 67.152344 269.117188 67.152344 L 162.660156 67.152344 C 161.015625 67.152344 159.683594 68.484375 159.683594 70.128906 C 159.683594 71.769531 161.019531 73.105469 162.660156 73.105469 Z M 162.660156 73.105469 " fill-opacity="1" fill-rule="nonzero"/><path fill="#3a322b" d="M 109.433594 116.628906 C 107.789062 116.628906 106.457031 117.960938 106.457031 119.605469 C 106.457031 121.246094 107.789062 122.582031 109.433594 122.582031 L 265.566406 122.582031 C 267.210938 122.582031 268.542969 121.246094 268.542969 119.605469 C 268.542969 117.960938 267.210938 116.628906 265.566406 116.628906 Z M 109.433594 116.628906 " fill-opacity="1" fill-rule="nonzero"/><path fill="#3a322b" d="M 268.542969 147.878906 C 268.542969 146.234375 267.210938 144.902344 265.566406 144.902344 L 102.335938 144.902344 C 100.691406 144.902344 99.359375 146.234375 99.359375 147.878906 C 99.359375 149.519531 100.691406 150.855469 102.335938 150.855469 L 265.566406 150.855469 C 267.210938 150.855469 268.542969 149.519531 268.542969 147.878906 Z M 268.542969 147.878906 " fill-opacity="1" fill-rule="nonzero"/><path fill="#3a322b" d="M 237.179688 169.640625 L 152.015625 169.640625 C 150.367188 169.640625 149.039062 170.972656 149.039062 172.617188 C 149.039062 174.257812 150.367188 175.59375 152.015625 175.59375 L 237.179688 175.59375 C 238.824219 175.59375 240.15625 174.257812 240.15625 172.617188 C 240.15625 170.972656 238.824219 169.640625 237.179688 169.640625 Z M 237.179688 169.640625 " fill-opacity="1" fill-rule="nonzero"/><path fill="#3a322b" d="M 102.59375 83.394531 L 106.542969 89.945312 C 107.914062 92.21875 110.320312 93.582031 112.980469 93.582031 C 115.644531 93.582031 118.050781 92.21875 119.421875 89.945312 L 123.367188 83.394531 C 123.714844 82.8125 124.417969 82.523438 125.085938 82.6875 L 132.527344 84.542969 C 135.121094 85.1875 137.789062 84.445312 139.667969 82.558594 C 141.542969 80.679688 142.277344 78.023438 141.632812 75.453125 L 139.769531 68.042969 C 139.605469 67.382812 139.890625 66.703125 140.476562 66.351562 L 147.054688 62.417969 C 149.34375 61.054688 150.707031 58.652344 150.707031 55.992188 C 150.707031 53.332031 149.34375 50.929688 147.054688 49.5625 L 140.476562 45.632812 C 139.890625 45.28125 139.605469 44.601562 139.769531 43.945312 L 141.632812 36.527344 C 142.277344 33.957031 141.542969 31.300781 139.667969 29.417969 C 137.785156 27.53125 135.121094 26.789062 132.527344 27.433594 L 125.085938 29.289062 C 124.417969 29.457031 123.714844 29.164062 123.367188 28.582031 L 119.417969 22.03125 C 118.050781 19.757812 115.644531 18.398438 112.980469 18.398438 C 110.320312 18.398438 107.914062 19.757812 106.542969 22.03125 L 102.597656 28.582031 C 102.246094 29.164062 101.53125 29.453125 100.878906 29.289062 L 93.429688 27.433594 C 90.855469 26.789062 88.171875 27.53125 86.292969 29.417969 C 84.417969 31.296875 83.683594 33.957031 84.332031 36.527344 L 86.191406 43.941406 C 86.355469 44.597656 86.070312 45.277344 85.480469 45.628906 L 78.90625 49.558594 C 76.617188 50.925781 75.253906 53.332031 75.253906 55.988281 C 75.253906 58.644531 76.617188 61.050781 78.90625 62.417969 L 85.484375 66.347656 C 86.070312 66.699219 86.355469 67.378906 86.191406 68.039062 L 84.332031 75.449219 C 83.683594 78.019531 84.417969 80.679688 86.292969 82.558594 C 88.171875 84.445312 90.84375 85.195312 93.429688 84.542969 L 100.878906 82.6875 C 101.527344 82.527344 102.242188 82.808594 102.59375 83.394531 Z M 91.992188 78.765625 C 91.226562 78.953125 90.691406 78.542969 90.503906 78.355469 C 90.273438 78.125 89.917969 77.632812 90.097656 76.902344 L 91.957031 69.492188 C 92.769531 66.265625 91.394531 62.949219 88.53125 61.242188 L 81.957031 57.308594 C 81.273438 56.90625 81.203125 56.257812 81.203125 55.992188 C 81.203125 55.730469 81.273438 55.082031 81.957031 54.675781 L 88.53125 50.742188 C 91.394531 49.035156 92.769531 45.71875 91.957031 42.492188 L 90.097656 35.082031 C 89.914062 34.355469 90.273438 33.859375 90.503906 33.632812 C 90.691406 33.445312 91.195312 33.019531 91.992188 33.21875 L 99.4375 35.074219 C 102.65625 35.871094 105.976562 34.507812 107.695312 31.660156 L 111.640625 25.109375 C 112.050781 24.429688 112.710938 24.355469 112.980469 24.355469 C 113.246094 24.355469 113.910156 24.429688 114.320312 25.105469 L 118.265625 31.65625 C 119.972656 34.5 123.289062 35.867188 126.519531 35.070312 L 133.960938 33.214844 C 134.742188 33.023438 135.265625 33.441406 135.453125 33.628906 C 135.679688 33.855469 136.039062 34.351562 135.855469 35.082031 L 133.996094 42.496094 C 133.191406 45.71875 134.566406 49.035156 137.421875 50.742188 L 144.003906 54.671875 C 144.679688 55.078125 144.753906 55.730469 144.753906 55.992188 C 144.753906 56.253906 144.679688 56.90625 144.003906 57.308594 L 137.421875 61.242188 C 134.566406 62.949219 133.1875 66.261719 133.996094 69.492188 L 135.855469 76.902344 C 136.042969 77.632812 135.679688 78.125 135.453125 78.355469 C 135.265625 78.542969 134.75 78.957031 133.960938 78.765625 L 126.519531 76.910156 C 123.292969 76.101562 119.972656 77.476562 118.265625 80.320312 L 114.320312 86.875 C 113.90625 87.554688 113.246094 87.628906 112.980469 87.628906 C 112.710938 87.628906 112.046875 87.554688 111.640625 86.875 L 107.691406 80.324219 C 106.304688 78.023438 103.867188 76.683594 101.28125 76.683594 C 100.667969 76.683594 100.050781 76.757812 99.4375 76.914062 Z M 91.992188 78.765625 " fill-opacity="1" fill-rule="nonzero"/></svg>