<svg xmlns="http://www.w3.org/2000/svg" xmlns:xlink="http://www.w3.org/1999/xlink" width="300" zoomAndPan="magnify" viewBox="0 0 224.87999 449.999984" height="600" preserveAspectRatio="xMidYMid meet" version="1.0"><defs><clipPath id="3fd16cfe31"><path d="M 6.304688 16 L 214 16 L 214 434 L 6.304688 434 Z M 6.304688 16 " clip-rule="nonzero"/></clipPath></defs><g clip-path="url(#3fd16cfe31)"><path fill="#ffffff" d="M 6.570312 355.605469 C 6.316406 351.789062 7.546875 348.027344 8.679688 344.363281 C 12.914062 330.65625 15.96875 316.6875 17.839844 302.464844 C 19.710938 288.238281 20.375 273.957031 19.835938 259.621094 C 18.703125 230.175781 12.433594 201.101562 11.472656 171.648438 C 11.148438 161.164062 11.492188 150.699219 12.503906 140.253906 C 13.515625 129.8125 15.191406 119.476562 17.527344 109.246094 C 19.863281 99.019531 22.84375 88.980469 26.464844 79.132812 C 30.085938 69.289062 34.316406 59.710938 39.164062 50.40625 C 45.367188 38.539062 53.425781 26.144531 65.816406 20.046875 C 71.753906 17.125 78.738281 16.542969 85.289062 16.257812 C 92.097656 15.972656 98.851562 16.449219 105.550781 17.691406 C 112.261719 18.925781 118.757812 20.867188 125.046875 23.515625 C 131.332031 26.164062 137.261719 29.457031 142.832031 33.394531 C 149.585938 38.1875 171 55.335938 180.164062 146.75 C 182.511719 170.175781 195.746094 198.355469 203.210938 220.683594 C 214.8125 255.386719 218.441406 293.023438 204.882812 327.011719 C 191.328125 361 186.355469 367.472656 164.871094 397.082031 C 157.382812 407.40625 149.835938 417.71875 141.324219 427.214844 C 138.355469 430.53125 134.609375 434.007812 130.179688 433.597656 C 124.625 433.089844 121.5 426.65625 121.527344 421.074219 C 121.558594 415.492188 123.589844 410.039062 123.375 404.460938 C 123.300781 402.492188 122.886719 400.414062 121.542969 398.972656 C 118.160156 395.339844 112.09375 398.054688 107.222656 397.113281 C 101.53125 396.011719 98.191406 389.914062 97.230469 384.191406 C 96.273438 378.46875 96.875 372.496094 95.214844 366.9375 C 94.691406 365.175781 93.886719 363.40625 92.433594 362.285156 C 89.195312 359.78125 84.527344 361.476562 80.46875 360.933594 C 72.125 359.820312 67.964844 349.699219 60.128906 346.621094 C 52.363281 343.570312 43.898438 348.273438 36.886719 352.796875 L 23.222656 361.609375 C 20.269531 363.519531 16.917969 365.511719 13.460938 364.84375 C 9.550781 364.09375 6.992188 360.023438 6.605469 356.054688 C 6.589844 355.90625 6.578125 355.753906 6.570312 355.605469 Z M 6.570312 355.605469 " fill-opacity="1" fill-rule="nonzero"/></g><path fill="#000000" d="M 71.167969 91.449219 C 71.167969 92.234375 71.152344 93.019531 71.117188 93.804688 C 71.085938 94.585938 71.035156 95.363281 70.96875 96.136719 C 70.90625 96.90625 70.824219 97.667969 70.726562 98.421875 C 70.628906 99.175781 70.515625 99.914062 70.386719 100.640625 C 70.257812 101.367188 70.117188 102.078125 69.957031 102.773438 C 69.800781 103.464844 69.625 104.140625 69.441406 104.792969 C 69.253906 105.449219 69.054688 106.078125 68.839844 106.6875 C 68.628906 107.296875 68.402344 107.878906 68.164062 108.433594 C 67.929688 108.992188 67.679688 109.519531 67.421875 110.015625 C 67.160156 110.515625 66.890625 110.984375 66.613281 111.421875 C 66.332031 111.859375 66.046875 112.261719 65.75 112.632812 C 65.453125 113.003906 65.148438 113.339844 64.839844 113.640625 C 64.53125 113.941406 64.214844 114.207031 63.894531 114.433594 C 63.570312 114.664062 63.246094 114.855469 62.917969 115.007812 C 62.585938 115.160156 62.257812 115.277344 61.921875 115.355469 C 61.585938 115.429688 61.253906 115.46875 60.917969 115.46875 C 60.582031 115.46875 60.246094 115.429688 59.914062 115.355469 C 59.578125 115.277344 59.246094 115.160156 58.917969 115.007812 C 58.589844 114.855469 58.261719 114.664062 57.941406 114.433594 C 57.621094 114.207031 57.304688 113.941406 56.996094 113.640625 C 56.683594 113.339844 56.382812 113.003906 56.085938 112.632812 C 55.789062 112.261719 55.5 111.859375 55.222656 111.421875 C 54.941406 110.984375 54.675781 110.515625 54.414062 110.015625 C 54.15625 109.519531 53.90625 108.992188 53.667969 108.433594 C 53.433594 107.878906 53.207031 107.296875 52.992188 106.6875 C 52.78125 106.078125 52.582031 105.449219 52.394531 104.792969 C 52.207031 104.140625 52.035156 103.464844 51.878906 102.773438 C 51.71875 102.078125 51.574219 101.367188 51.445312 100.640625 C 51.320312 99.914062 51.207031 99.175781 51.109375 98.421875 C 51.011719 97.667969 50.929688 96.90625 50.863281 96.136719 C 50.796875 95.363281 50.75 94.585938 50.714844 93.804688 C 50.683594 93.019531 50.667969 92.234375 50.667969 91.449219 C 50.667969 90.664062 50.683594 89.878906 50.714844 89.09375 C 50.75 88.3125 50.796875 87.535156 50.863281 86.761719 C 50.929688 85.992188 51.011719 85.230469 51.109375 84.476562 C 51.207031 83.722656 51.320312 82.984375 51.445312 82.257812 C 51.574219 81.53125 51.71875 80.820312 51.878906 80.125 C 52.035156 79.433594 52.207031 78.757812 52.394531 78.105469 C 52.582031 77.449219 52.78125 76.820312 52.992188 76.210938 C 53.207031 75.601562 53.433594 75.019531 53.667969 74.464844 C 53.90625 73.910156 54.15625 73.378906 54.414062 72.882812 C 54.675781 72.382812 54.941406 71.914062 55.222656 71.476562 C 55.5 71.039062 55.789062 70.636719 56.085938 70.265625 C 56.382812 69.894531 56.683594 69.558594 56.996094 69.257812 C 57.304688 68.957031 57.621094 68.691406 57.941406 68.464844 C 58.261719 68.234375 58.589844 68.042969 58.917969 67.890625 C 59.246094 67.738281 59.578125 67.621094 59.914062 67.546875 C 60.246094 67.46875 60.582031 67.429688 60.917969 67.429688 C 61.253906 67.429688 61.585938 67.46875 61.921875 67.546875 C 62.257812 67.621094 62.585938 67.738281 62.917969 67.890625 C 63.246094 68.042969 63.570312 68.234375 63.894531 68.464844 C 64.214844 68.691406 64.53125 68.957031 64.839844 69.257812 C 65.148438 69.558594 65.453125 69.894531 65.75 70.265625 C 66.046875 70.636719 66.332031 71.039062 66.613281 71.476562 C 66.890625 71.914062 67.160156 72.382812 67.421875 72.882812 C 67.679688 73.378906 67.929688 73.910156 68.164062 74.464844 C 68.402344 75.019531 68.628906 75.601562 68.839844 76.210938 C 69.054688 76.820312 69.253906 77.449219 69.441406 78.105469 C 69.625 78.757812 69.800781 79.433594 69.957031 80.125 C 70.117188 80.820312 70.257812 81.53125 70.386719 82.257812 C 70.515625 82.984375 70.628906 83.722656 70.726562 84.476562 C 70.824219 85.230469 70.90625 85.992188 70.96875 86.761719 C 71.035156 87.535156 71.085938 88.3125 71.117188 89.09375 C 71.152344 89.878906 71.167969 90.664062 71.167969 91.449219 Z M 71.167969 91.449219 " fill-opacity="1" fill-rule="nonzero"/><path fill="#000000" d="M 107.648438 90.890625 C 107.648438 91.679688 107.632812 92.464844 107.601562 93.246094 C 107.566406 94.027344 107.515625 94.804688 107.453125 95.578125 C 107.386719 96.347656 107.304688 97.113281 107.207031 97.863281 C 107.109375 98.617188 106.996094 99.355469 106.867188 100.082031 C 106.738281 100.808594 106.597656 101.519531 106.4375 102.214844 C 106.28125 102.910156 106.109375 103.582031 105.921875 104.238281 C 105.734375 104.890625 105.535156 105.523438 105.320312 106.128906 C 105.109375 106.738281 104.882812 107.320312 104.648438 107.875 C 104.410156 108.433594 104.160156 108.960938 103.902344 109.460938 C 103.640625 109.957031 103.371094 110.425781 103.09375 110.863281 C 102.8125 111.300781 102.527344 111.703125 102.230469 112.074219 C 101.933594 112.445312 101.632812 112.78125 101.320312 113.082031 C 101.011719 113.382812 100.695312 113.648438 100.375 113.878906 C 100.054688 114.105469 99.726562 114.296875 99.398438 114.449219 C 99.070312 114.605469 98.738281 114.71875 98.402344 114.796875 C 98.070312 114.875 97.734375 114.910156 97.398438 114.910156 C 97.0625 114.910156 96.726562 114.875 96.394531 114.796875 C 96.058594 114.71875 95.726562 114.605469 95.398438 114.449219 C 95.070312 114.296875 94.746094 114.105469 94.421875 113.878906 C 94.101562 113.648438 93.785156 113.382812 93.476562 113.082031 C 93.164062 112.78125 92.863281 112.445312 92.566406 112.074219 C 92.269531 111.703125 91.984375 111.300781 91.703125 110.863281 C 91.425781 110.425781 91.15625 109.957031 90.894531 109.460938 C 90.636719 108.960938 90.386719 108.433594 90.152344 107.875 C 89.914062 107.320312 89.6875 106.738281 89.476562 106.128906 C 89.261719 105.523438 89.0625 104.890625 88.875 104.238281 C 88.6875 103.582031 88.515625 102.910156 88.359375 102.214844 C 88.199219 101.519531 88.058594 100.808594 87.929688 100.082031 C 87.800781 99.355469 87.6875 98.617188 87.589844 97.863281 C 87.492188 97.113281 87.410156 96.347656 87.34375 95.578125 C 87.28125 94.804688 87.230469 94.027344 87.199219 93.246094 C 87.164062 92.464844 87.148438 91.679688 87.148438 90.890625 C 87.148438 90.105469 87.164062 89.320312 87.199219 88.535156 C 87.230469 87.753906 87.28125 86.976562 87.34375 86.207031 C 87.410156 85.433594 87.492188 84.671875 87.589844 83.917969 C 87.6875 83.164062 87.800781 82.425781 87.929688 81.699219 C 88.058594 80.972656 88.199219 80.261719 88.359375 79.570312 C 88.515625 78.875 88.6875 78.199219 88.875 77.546875 C 89.0625 76.890625 89.261719 76.261719 89.476562 75.652344 C 89.6875 75.046875 89.914062 74.464844 90.152344 73.90625 C 90.386719 73.351562 90.636719 72.824219 90.894531 72.324219 C 91.15625 71.824219 91.425781 71.355469 91.703125 70.917969 C 91.984375 70.480469 92.269531 70.078125 92.566406 69.707031 C 92.863281 69.335938 93.164062 69 93.476562 68.699219 C 93.785156 68.398438 94.101562 68.132812 94.421875 67.90625 C 94.746094 67.675781 95.070312 67.484375 95.398438 67.332031 C 95.726562 67.179688 96.058594 67.0625 96.394531 66.988281 C 96.726562 66.910156 97.0625 66.871094 97.398438 66.871094 C 97.734375 66.871094 98.070312 66.910156 98.402344 66.988281 C 98.738281 67.0625 99.070312 67.179688 99.398438 67.332031 C 99.726562 67.484375 100.054688 67.675781 100.375 67.90625 C 100.695312 68.132812 101.011719 68.398438 101.320312 68.699219 C 101.632812 69 101.933594 69.335938 102.230469 69.707031 C 102.527344 70.078125 102.8125 70.480469 103.09375 70.917969 C 103.371094 71.355469 103.640625 71.824219 103.902344 72.324219 C 104.160156 72.824219 104.410156 73.351562 104.648438 73.90625 C 104.882812 74.460938 105.109375 75.046875 105.320312 75.652344 C 105.535156 76.261719 105.734375 76.890625 105.921875 77.546875 C 106.109375 78.199219 106.28125 78.875 106.4375 79.570312 C 106.597656 80.261719 106.738281 80.972656 106.867188 81.699219 C 106.996094 82.425781 107.109375 83.164062 107.207031 83.917969 C 107.304688 84.671875 107.386719 85.433594 107.453125 86.207031 C 107.515625 86.976562 107.566406 87.753906 107.601562 88.535156 C 107.632812 89.320312 107.648438 90.105469 107.648438 90.890625 Z M 107.648438 90.890625 " fill-opacity="1" fill-rule="nonzero"/></svg>