<svg xmlns="http://www.w3.org/2000/svg" version="1.1" xmlns:xlink="http://www.w3.org/1999/xlink" xmlns:svgjs="http://svgjs.dev/svgjs" viewBox="0 0 800 800" opacity="0.1" width="800" height="800"><g stroke-width="4.75" stroke="hsl(261, 60%, 38%)" fill="none"><rect width="33.333333333333336" height="11.736842105263158" x="-16.666666666666668" y="-5.868421052631579" stroke="none" fill="hsl(316, 73%, 52%)" rx="5.868421052631579" transform="rotate(45, 0, 0)"></rect><rect width="11.736842105263158" height="33.333333333333336" x="-5.868421052631579" y="-16.666666666666668" stroke="none" fill="hsl(316, 73%, 52%)" rx="5.868421052631579" transform="rotate(45, 0, 0)"></rect><rect width="33.333333333333336" height="11.736842105263158" x="50" y="-5.868421052631579" stroke="none" fill="hsl(261, 60%, 38%)" rx="5.868421052631579" transform="rotate(45, 66.66666666666667, 0)"></rect><rect width="11.736842105263158" height="33.333333333333336" x="60.798245614035096" y="-16.666666666666668" stroke="none" fill="hsl(261, 60%, 38%)" rx="5.868421052631579" transform="rotate(45, 66.66666666666667, 0)"></rect><rect width="33.333333333333336" height="11.736842105263158" x="116.66666666666667" y="-5.868421052631579" stroke="none" fill="hsl(316, 73%, 52%)" rx="5.868421052631579" transform="rotate(45, 133.33333333333334, 0)"></rect><rect width="11.736842105263158" height="33.333333333333336" x="127.46491228070177" y="-16.666666666666668" stroke="none" fill="hsl(316, 73%, 52%)" rx="5.868421052631579" transform="rotate(45, 133.33333333333334, 0)"></rect><rect width="33.333333333333336" height="11.736842105263158" x="183.33333333333334" y="-5.868421052631579" stroke="none" fill="hsl(261, 60%, 38%)" rx="5.868421052631579" transform="rotate(45, 200, 0)"></rect><rect width="11.736842105263158" height="33.333333333333336" x="194.1315789473684" y="-16.666666666666668" stroke="none" fill="hsl(261, 60%, 38%)" rx="5.868421052631579" transform="rotate(45, 200, 0)"></rect><rect width="33.333333333333336" height="11.736842105263158" x="250.00000000000003" y="-5.868421052631579" stroke="none" fill="hsl(316, 73%, 52%)" rx="5.868421052631579" transform="rotate(45, 266.6666666666667, 0)"></rect><rect width="11.736842105263158" height="33.333333333333336" x="260.7982456140351" y="-16.666666666666668" stroke="none" fill="hsl(316, 73%, 52%)" rx="5.868421052631579" transform="rotate(45, 266.6666666666667, 0)"></rect><rect width="33.333333333333336" height="11.736842105263158" x="316.6666666666667" y="-5.868421052631579" stroke="none" fill="hsl(261, 60%, 38%)" rx="5.868421052631579" transform="rotate(45, 333.33333333333337, 0)"></rect><rect width="11.736842105263158" height="33.333333333333336" x="327.4649122807018" y="-16.666666666666668" stroke="none" fill="hsl(261, 60%, 38%)" rx="5.868421052631579" transform="rotate(45, 333.33333333333337, 0)"></rect><rect width="33.333333333333336" height="11.736842105263158" x="383.33333333333337" y="-5.868421052631579" stroke="none" fill="hsl(316, 73%, 52%)" rx="5.868421052631579" transform="rotate(45, 400.00000000000006, 0)"></rect><rect width="11.736842105263158" height="33.333333333333336" x="394.1315789473685" y="-16.666666666666668" stroke="none" fill="hsl(316, 73%, 52%)" rx="5.868421052631579" transform="rotate(45, 400.00000000000006, 0)"></rect><rect width="33.333333333333336" height="11.736842105263158" x="450.00000000000006" y="-5.868421052631579" stroke="none" fill="hsl(261, 60%, 38%)" rx="5.868421052631579" transform="rotate(45, 466.66666666666674, 0)"></rect><rect width="11.736842105263158" height="33.333333333333336" x="460.7982456140352" y="-16.666666666666668" stroke="none" fill="hsl(261, 60%, 38%)" rx="5.868421052631579" transform="rotate(45, 466.66666666666674, 0)"></rect><rect width="33.333333333333336" height="11.736842105263158" x="516.6666666666667" y="-5.868421052631579" stroke="none" fill="hsl(316, 73%, 52%)" rx="5.868421052631579" transform="rotate(45, 533.3333333333334, 0)"></rect><rect width="11.736842105263158" height="33.333333333333336" x="527.4649122807018" y="-16.666666666666668" stroke="none" fill="hsl(316, 73%, 52%)" rx="5.868421052631579" transform="rotate(45, 533.3333333333334, 0)"></rect><rect width="33.333333333333336" height="11.736842105263158" x="583.3333333333334" y="-5.868421052631579" stroke="none" fill="hsl(261, 60%, 38%)" rx="5.868421052631579" transform="rotate(45, 600, 0)"></rect><rect width="11.736842105263158" height="33.333333333333336" x="594.1315789473684" y="-16.666666666666668" stroke="none" fill="hsl(261, 60%, 38%)" rx="5.868421052631579" transform="rotate(45, 600, 0)"></rect><rect width="33.333333333333336" height="11.736842105263158" x="650" y="-5.868421052631579" stroke="none" fill="hsl(316, 73%, 52%)" rx="5.868421052631579" transform="rotate(45, 666.6666666666666, 0)"></rect><rect width="11.736842105263158" height="33.333333333333336" x="660.7982456140351" y="-16.666666666666668" stroke="none" fill="hsl(316, 73%, 52%)" rx="5.868421052631579" transform="rotate(45, 666.6666666666666, 0)"></rect><rect width="33.333333333333336" height="11.736842105263158" x="716.6666666666666" y="-5.868421052631579" stroke="none" fill="hsl(261, 60%, 38%)" rx="5.868421052631579" transform="rotate(45, 733.3333333333333, 0)"></rect><rect width="11.736842105263158" height="33.333333333333336" x="727.4649122807017" y="-16.666666666666668" stroke="none" fill="hsl(261, 60%, 38%)" rx="5.868421052631579" transform="rotate(45, 733.3333333333333, 0)"></rect><rect width="33.333333333333336" height="11.736842105263158" x="783.3333333333333" y="-5.868421052631579" stroke="none" fill="hsl(316, 73%, 52%)" rx="5.868421052631579" transform="rotate(45, 799.9999999999999, 0)"></rect><rect width="11.736842105263158" height="33.333333333333336" x="794.1315789473683" y="-16.666666666666668" stroke="none" fill="hsl(316, 73%, 52%)" rx="5.868421052631579" transform="rotate(45, 799.9999999999999, 0)"></rect><rect width="33.333333333333336" height="11.736842105263158" x="-16.666666666666668" y="60.798245614035096" stroke="none" fill="hsl(261, 60%, 38%)" rx="5.868421052631579" transform="rotate(45, 0, 66.66666666666667)"></rect><rect width="11.736842105263158" height="33.333333333333336" x="-5.868421052631579" y="50" stroke="none" fill="hsl(261, 60%, 38%)" rx="5.868421052631579" transform="rotate(45, 0, 66.66666666666667)"></rect><rect width="33.333333333333336" height="11.736842105263158" x="50" y="60.798245614035096" stroke="none" fill="hsl(316, 73%, 52%)" rx="5.868421052631579" transform="rotate(45, 66.66666666666667, 66.66666666666667)"></rect><rect width="11.736842105263158" height="33.333333333333336" x="60.798245614035096" y="50" stroke="none" fill="hsl(316, 73%, 52%)" rx="5.868421052631579" transform="rotate(45, 66.66666666666667, 66.66666666666667)"></rect><rect width="33.333333333333336" height="11.736842105263158" x="116.66666666666667" y="60.798245614035096" stroke="none" fill="hsl(261, 60%, 38%)" rx="5.868421052631579" transform="rotate(45, 133.33333333333334, 66.66666666666667)"></rect><rect width="11.736842105263158" height="33.333333333333336" x="127.46491228070177" y="50" stroke="none" fill="hsl(261, 60%, 38%)" rx="5.868421052631579" transform="rotate(45, 133.33333333333334, 66.66666666666667)"></rect><rect width="33.333333333333336" height="11.736842105263158" x="183.33333333333334" y="60.798245614035096" stroke="none" fill="hsl(316, 73%, 52%)" rx="5.868421052631579" transform="rotate(45, 200, 66.66666666666667)"></rect><rect width="11.736842105263158" height="33.333333333333336" x="194.1315789473684" y="50" stroke="none" fill="hsl(316, 73%, 52%)" rx="5.868421052631579" transform="rotate(45, 200, 66.66666666666667)"></rect><rect width="33.333333333333336" height="11.736842105263158" x="250.00000000000003" y="60.798245614035096" stroke="none" fill="hsl(261, 60%, 38%)" rx="5.868421052631579" transform="rotate(45, 266.6666666666667, 66.66666666666667)"></rect><rect width="11.736842105263158" height="33.333333333333336" x="260.7982456140351" y="50" stroke="none" fill="hsl(261, 60%, 38%)" rx="5.868421052631579" transform="rotate(45, 266.6666666666667, 66.66666666666667)"></rect><rect width="33.333333333333336" height="11.736842105263158" x="316.6666666666667" y="60.798245614035096" stroke="none" fill="hsl(316, 73%, 52%)" rx="5.868421052631579" transform="rotate(45, 333.33333333333337, 66.66666666666667)"></rect><rect width="11.736842105263158" height="33.333333333333336" x="327.4649122807018" y="50" stroke="none" fill="hsl(316, 73%, 52%)" rx="5.868421052631579" transform="rotate(45, 333.33333333333337, 66.66666666666667)"></rect><rect width="33.333333333333336" height="11.736842105263158" x="383.33333333333337" y="60.798245614035096" stroke="none" fill="hsl(261, 60%, 38%)" rx="5.868421052631579" transform="rotate(45, 400.00000000000006, 66.66666666666667)"></rect><rect width="11.736842105263158" height="33.333333333333336" x="394.1315789473685" y="50" stroke="none" fill="hsl(261, 60%, 38%)" rx="5.868421052631579" transform="rotate(45, 400.00000000000006, 66.66666666666667)"></rect><rect width="33.333333333333336" height="11.736842105263158" x="450.00000000000006" y="60.798245614035096" stroke="none" fill="hsl(316, 73%, 52%)" rx="5.868421052631579" transform="rotate(45, 466.66666666666674, 66.66666666666667)"></rect><rect width="11.736842105263158" height="33.333333333333336" x="460.7982456140352" y="50" stroke="none" fill="hsl(316, 73%, 52%)" rx="5.868421052631579" transform="rotate(45, 466.66666666666674, 66.66666666666667)"></rect><rect width="33.333333333333336" height="11.736842105263158" x="516.6666666666667" y="60.798245614035096" stroke="none" fill="hsl(261, 60%, 38%)" rx="5.868421052631579" transform="rotate(45, 533.3333333333334, 66.66666666666667)"></rect><rect width="11.736842105263158" height="33.333333333333336" x="527.4649122807018" y="50" stroke="none" fill="hsl(261, 60%, 38%)" rx="5.868421052631579" transform="rotate(45, 533.3333333333334, 66.66666666666667)"></rect><rect width="33.333333333333336" height="11.736842105263158" x="583.3333333333334" y="60.798245614035096" stroke="none" fill="hsl(316, 73%, 52%)" rx="5.868421052631579" transform="rotate(45, 600, 66.66666666666667)"></rect><rect width="11.736842105263158" height="33.333333333333336" x="594.1315789473684" y="50" stroke="none" fill="hsl(316, 73%, 52%)" rx="5.868421052631579" transform="rotate(45, 600, 66.66666666666667)"></rect><rect width="33.333333333333336" height="11.736842105263158" x="650" y="60.798245614035096" stroke="none" fill="hsl(261, 60%, 38%)" rx="5.868421052631579" transform="rotate(45, 666.6666666666666, 66.66666666666667)"></rect><rect width="11.736842105263158" height="33.333333333333336" x="660.7982456140351" y="50" stroke="none" fill="hsl(261, 60%, 38%)" rx="5.868421052631579" transform="rotate(45, 666.6666666666666, 66.66666666666667)"></rect><rect width="33.333333333333336" height="11.736842105263158" x="716.6666666666666" y="60.798245614035096" stroke="none" fill="hsl(316, 73%, 52%)" rx="5.868421052631579" transform="rotate(45, 733.3333333333333, 66.66666666666667)"></rect><rect width="11.736842105263158" height="33.333333333333336" x="727.4649122807017" y="50" stroke="none" fill="hsl(316, 73%, 52%)" rx="5.868421052631579" transform="rotate(45, 733.3333333333333, 66.66666666666667)"></rect><rect width="33.333333333333336" height="11.736842105263158" x="783.3333333333333" y="60.798245614035096" stroke="none" fill="hsl(261, 60%, 38%)" rx="5.868421052631579" transform="rotate(45, 799.9999999999999, 66.66666666666667)"></rect><rect width="11.736842105263158" height="33.333333333333336" x="794.1315789473683" y="50" stroke="none" fill="hsl(261, 60%, 38%)" rx="5.868421052631579" transform="rotate(45, 799.9999999999999, 66.66666666666667)"></rect><rect width="33.333333333333336" height="11.736842105263158" x="-16.666666666666668" y="127.46491228070177" stroke="none" fill="hsl(316, 73%, 52%)" rx="5.868421052631579" transform="rotate(45, 0, 133.33333333333334)"></rect><rect width="11.736842105263158" height="33.333333333333336" x="-5.868421052631579" y="116.66666666666667" stroke="none" fill="hsl(316, 73%, 52%)" rx="5.868421052631579" transform="rotate(45, 0, 133.33333333333334)"></rect><rect width="33.333333333333336" height="11.736842105263158" x="50" y="127.46491228070177" stroke="none" fill="hsl(261, 60%, 38%)" rx="5.868421052631579" transform="rotate(45, 66.66666666666667, 133.33333333333334)"></rect><rect width="11.736842105263158" height="33.333333333333336" x="60.798245614035096" y="116.66666666666667" stroke="none" fill="hsl(261, 60%, 38%)" rx="5.868421052631579" transform="rotate(45, 66.66666666666667, 133.33333333333334)"></rect><rect width="33.333333333333336" height="11.736842105263158" x="116.66666666666667" y="127.46491228070177" stroke="none" fill="hsl(316, 73%, 52%)" rx="5.868421052631579" transform="rotate(45, 133.33333333333334, 133.33333333333334)"></rect><rect width="11.736842105263158" height="33.333333333333336" x="127.46491228070177" y="116.66666666666667" stroke="none" fill="hsl(316, 73%, 52%)" rx="5.868421052631579" transform="rotate(45, 133.33333333333334, 133.33333333333334)"></rect><rect width="33.333333333333336" height="11.736842105263158" x="183.33333333333334" y="127.46491228070177" stroke="none" fill="hsl(261, 60%, 38%)" rx="5.868421052631579" transform="rotate(45, 200, 133.33333333333334)"></rect><rect width="11.736842105263158" height="33.333333333333336" x="194.1315789473684" y="116.66666666666667" stroke="none" fill="hsl(261, 60%, 38%)" rx="5.868421052631579" transform="rotate(45, 200, 133.33333333333334)"></rect><rect width="33.333333333333336" height="11.736842105263158" x="250.00000000000003" y="127.46491228070177" stroke="none" fill="hsl(316, 73%, 52%)" rx="5.868421052631579" transform="rotate(45, 266.6666666666667, 133.33333333333334)"></rect><rect width="11.736842105263158" height="33.333333333333336" x="260.7982456140351" y="116.66666666666667" stroke="none" fill="hsl(316, 73%, 52%)" rx="5.868421052631579" transform="rotate(45, 266.6666666666667, 133.33333333333334)"></rect><rect width="33.333333333333336" height="11.736842105263158" x="316.6666666666667" y="127.46491228070177" stroke="none" fill="hsl(261, 60%, 38%)" rx="5.868421052631579" transform="rotate(45, 333.33333333333337, 133.33333333333334)"></rect><rect width="11.736842105263158" height="33.333333333333336" x="327.4649122807018" y="116.66666666666667" stroke="none" fill="hsl(261, 60%, 38%)" rx="5.868421052631579" transform="rotate(45, 333.33333333333337, 133.33333333333334)"></rect><rect width="33.333333333333336" height="11.736842105263158" x="383.33333333333337" y="127.46491228070177" stroke="none" fill="hsl(316, 73%, 52%)" rx="5.868421052631579" transform="rotate(45, 400.00000000000006, 133.33333333333334)"></rect><rect width="11.736842105263158" height="33.333333333333336" x="394.1315789473685" y="116.66666666666667" stroke="none" fill="hsl(316, 73%, 52%)" rx="5.868421052631579" transform="rotate(45, 400.00000000000006, 133.33333333333334)"></rect><rect width="33.333333333333336" height="11.736842105263158" x="450.00000000000006" y="127.46491228070177" stroke="none" fill="hsl(261, 60%, 38%)" rx="5.868421052631579" transform="rotate(45, 466.66666666666674, 133.33333333333334)"></rect><rect width="11.736842105263158" height="33.333333333333336" x="460.7982456140352" y="116.66666666666667" stroke="none" fill="hsl(261, 60%, 38%)" rx="5.868421052631579" transform="rotate(45, 466.66666666666674, 133.33333333333334)"></rect><rect width="33.333333333333336" height="11.736842105263158" x="516.6666666666667" y="127.46491228070177" stroke="none" fill="hsl(316, 73%, 52%)" rx="5.868421052631579" transform="rotate(45, 533.3333333333334, 133.33333333333334)"></rect><rect width="11.736842105263158" height="33.333333333333336" x="527.4649122807018" y="116.66666666666667" stroke="none" fill="hsl(316, 73%, 52%)" rx="5.868421052631579" transform="rotate(45, 533.3333333333334, 133.33333333333334)"></rect><rect width="33.333333333333336" height="11.736842105263158" x="583.3333333333334" y="127.46491228070177" stroke="none" fill="hsl(261, 60%, 38%)" rx="5.868421052631579" transform="rotate(45, 600, 133.33333333333334)"></rect><rect width="11.736842105263158" height="33.333333333333336" x="594.1315789473684" y="116.66666666666667" stroke="none" fill="hsl(261, 60%, 38%)" rx="5.868421052631579" transform="rotate(45, 600, 133.33333333333334)"></rect><rect width="33.333333333333336" height="11.736842105263158" x="650" y="127.46491228070177" stroke="none" fill="hsl(316, 73%, 52%)" rx="5.868421052631579" transform="rotate(45, 666.6666666666666, 133.33333333333334)"></rect><rect width="11.736842105263158" height="33.333333333333336" x="660.7982456140351" y="116.66666666666667" stroke="none" fill="hsl(316, 73%, 52%)" rx="5.868421052631579" transform="rotate(45, 666.6666666666666, 133.33333333333334)"></rect><rect width="33.333333333333336" height="11.736842105263158" x="716.6666666666666" y="127.46491228070177" stroke="none" fill="hsl(261, 60%, 38%)" rx="5.868421052631579" transform="rotate(45, 733.3333333333333, 133.33333333333334)"></rect><rect width="11.736842105263158" height="33.333333333333336" x="727.4649122807017" y="116.66666666666667" stroke="none" fill="hsl(261, 60%, 38%)" rx="5.868421052631579" transform="rotate(45, 733.3333333333333, 133.33333333333334)"></rect><rect width="33.333333333333336" height="11.736842105263158" x="783.3333333333333" y="127.46491228070177" stroke="none" fill="hsl(316, 73%, 52%)" rx="5.868421052631579" transform="rotate(45, 799.9999999999999, 133.33333333333334)"></rect><rect width="11.736842105263158" height="33.333333333333336" x="794.1315789473683" y="116.66666666666667" stroke="none" fill="hsl(316, 73%, 52%)" rx="5.868421052631579" transform="rotate(45, 799.9999999999999, 133.33333333333334)"></rect><rect width="33.333333333333336" height="11.736842105263158" x="-16.666666666666668" y="194.1315789473684" stroke="none" fill="hsl(261, 60%, 38%)" rx="5.868421052631579" transform="rotate(45, 0, 200)"></rect><rect width="11.736842105263158" height="33.333333333333336" x="-5.868421052631579" y="183.33333333333334" stroke="none" fill="hsl(261, 60%, 38%)" rx="5.868421052631579" transform="rotate(45, 0, 200)"></rect><rect width="33.333333333333336" height="11.736842105263158" x="50" y="194.1315789473684" stroke="none" fill="hsl(316, 73%, 52%)" rx="5.868421052631579" transform="rotate(45, 66.66666666666667, 200)"></rect><rect width="11.736842105263158" height="33.333333333333336" x="60.798245614035096" y="183.33333333333334" stroke="none" fill="hsl(316, 73%, 52%)" rx="5.868421052631579" transform="rotate(45, 66.66666666666667, 200)"></rect><rect width="33.333333333333336" height="11.736842105263158" x="116.66666666666667" y="194.1315789473684" stroke="none" fill="hsl(261, 60%, 38%)" rx="5.868421052631579" transform="rotate(45, 133.33333333333334, 200)"></rect><rect width="11.736842105263158" height="33.333333333333336" x="127.46491228070177" y="183.33333333333334" stroke="none" fill="hsl(261, 60%, 38%)" rx="5.868421052631579" transform="rotate(45, 133.33333333333334, 200)"></rect><rect width="33.333333333333336" height="11.736842105263158" x="183.33333333333334" y="194.1315789473684" stroke="none" fill="hsl(316, 73%, 52%)" rx="5.868421052631579" transform="rotate(45, 200, 200)"></rect><rect width="11.736842105263158" height="33.333333333333336" x="194.1315789473684" y="183.33333333333334" stroke="none" fill="hsl(316, 73%, 52%)" rx="5.868421052631579" transform="rotate(45, 200, 200)"></rect><rect width="33.333333333333336" height="11.736842105263158" x="250.00000000000003" y="194.1315789473684" stroke="none" fill="hsl(261, 60%, 38%)" rx="5.868421052631579" transform="rotate(45, 266.6666666666667, 200)"></rect><rect width="11.736842105263158" height="33.333333333333336" x="260.7982456140351" y="183.33333333333334" stroke="none" fill="hsl(261, 60%, 38%)" rx="5.868421052631579" transform="rotate(45, 266.6666666666667, 200)"></rect><rect width="33.333333333333336" height="11.736842105263158" x="316.6666666666667" y="194.1315789473684" stroke="none" fill="hsl(316, 73%, 52%)" rx="5.868421052631579" transform="rotate(45, 333.33333333333337, 200)"></rect><rect width="11.736842105263158" height="33.333333333333336" x="327.4649122807018" y="183.33333333333334" stroke="none" fill="hsl(316, 73%, 52%)" rx="5.868421052631579" transform="rotate(45, 333.33333333333337, 200)"></rect><rect width="33.333333333333336" height="11.736842105263158" x="383.33333333333337" y="194.1315789473684" stroke="none" fill="hsl(261, 60%, 38%)" rx="5.868421052631579" transform="rotate(45, 400.00000000000006, 200)"></rect><rect width="11.736842105263158" height="33.333333333333336" x="394.1315789473685" y="183.33333333333334" stroke="none" fill="hsl(261, 60%, 38%)" rx="5.868421052631579" transform="rotate(45, 400.00000000000006, 200)"></rect><rect width="33.333333333333336" height="11.736842105263158" x="450.00000000000006" y="194.1315789473684" stroke="none" fill="hsl(316, 73%, 52%)" rx="5.868421052631579" transform="rotate(45, 466.66666666666674, 200)"></rect><rect width="11.736842105263158" height="33.333333333333336" x="460.7982456140352" y="183.33333333333334" stroke="none" fill="hsl(316, 73%, 52%)" rx="5.868421052631579" transform="rotate(45, 466.66666666666674, 200)"></rect><rect width="33.333333333333336" height="11.736842105263158" x="516.6666666666667" y="194.1315789473684" stroke="none" fill="hsl(261, 60%, 38%)" rx="5.868421052631579" transform="rotate(45, 533.3333333333334, 200)"></rect><rect width="11.736842105263158" height="33.333333333333336" x="527.4649122807018" y="183.33333333333334" stroke="none" fill="hsl(261, 60%, 38%)" rx="5.868421052631579" transform="rotate(45, 533.3333333333334, 200)"></rect><rect width="33.333333333333336" height="11.736842105263158" x="583.3333333333334" y="194.1315789473684" stroke="none" fill="hsl(316, 73%, 52%)" rx="5.868421052631579" transform="rotate(45, 600, 200)"></rect><rect width="11.736842105263158" height="33.333333333333336" x="594.1315789473684" y="183.33333333333334" stroke="none" fill="hsl(316, 73%, 52%)" rx="5.868421052631579" transform="rotate(45, 600, 200)"></rect><rect width="33.333333333333336" height="11.736842105263158" x="650" y="194.1315789473684" stroke="none" fill="hsl(261, 60%, 38%)" rx="5.868421052631579" transform="rotate(45, 666.6666666666666, 200)"></rect><rect width="11.736842105263158" height="33.333333333333336" x="660.7982456140351" y="183.33333333333334" stroke="none" fill="hsl(261, 60%, 38%)" rx="5.868421052631579" transform="rotate(45, 666.6666666666666, 200)"></rect><rect width="33.333333333333336" height="11.736842105263158" x="716.6666666666666" y="194.1315789473684" stroke="none" fill="hsl(316, 73%, 52%)" rx="5.868421052631579" transform="rotate(45, 733.3333333333333, 200)"></rect><rect width="11.736842105263158" height="33.333333333333336" x="727.4649122807017" y="183.33333333333334" stroke="none" fill="hsl(316, 73%, 52%)" rx="5.868421052631579" transform="rotate(45, 733.3333333333333, 200)"></rect><rect width="33.333333333333336" height="11.736842105263158" x="783.3333333333333" y="194.1315789473684" stroke="none" fill="hsl(261, 60%, 38%)" rx="5.868421052631579" transform="rotate(45, 799.9999999999999, 200)"></rect><rect width="11.736842105263158" height="33.333333333333336" x="794.1315789473683" y="183.33333333333334" stroke="none" fill="hsl(261, 60%, 38%)" rx="5.868421052631579" transform="rotate(45, 799.9999999999999, 200)"></rect><rect width="33.333333333333336" height="11.736842105263158" x="-16.666666666666668" y="260.7982456140351" stroke="none" fill="hsl(316, 73%, 52%)" rx="5.868421052631579" transform="rotate(45, 0, 266.6666666666667)"></rect><rect width="11.736842105263158" height="33.333333333333336" x="-5.868421052631579" y="250.00000000000003" stroke="none" fill="hsl(316, 73%, 52%)" rx="5.868421052631579" transform="rotate(45, 0, 266.6666666666667)"></rect><rect width="33.333333333333336" height="11.736842105263158" x="50" y="260.7982456140351" stroke="none" fill="hsl(261, 60%, 38%)" rx="5.868421052631579" transform="rotate(45, 66.66666666666667, 266.6666666666667)"></rect><rect width="11.736842105263158" height="33.333333333333336" x="60.798245614035096" y="250.00000000000003" stroke="none" fill="hsl(261, 60%, 38%)" rx="5.868421052631579" transform="rotate(45, 66.66666666666667, 266.6666666666667)"></rect><rect width="33.333333333333336" height="11.736842105263158" x="116.66666666666667" y="260.7982456140351" stroke="none" fill="hsl(316, 73%, 52%)" rx="5.868421052631579" transform="rotate(45, 133.33333333333334, 266.6666666666667)"></rect><rect width="11.736842105263158" height="33.333333333333336" x="127.46491228070177" y="250.00000000000003" stroke="none" fill="hsl(316, 73%, 52%)" rx="5.868421052631579" transform="rotate(45, 133.33333333333334, 266.6666666666667)"></rect><rect width="33.333333333333336" height="11.736842105263158" x="183.33333333333334" y="260.7982456140351" stroke="none" fill="hsl(261, 60%, 38%)" rx="5.868421052631579" transform="rotate(45, 200, 266.6666666666667)"></rect><rect width="11.736842105263158" height="33.333333333333336" x="194.1315789473684" y="250.00000000000003" stroke="none" fill="hsl(261, 60%, 38%)" rx="5.868421052631579" transform="rotate(45, 200, 266.6666666666667)"></rect><rect width="33.333333333333336" height="11.736842105263158" x="250.00000000000003" y="260.7982456140351" stroke="none" fill="hsl(316, 73%, 52%)" rx="5.868421052631579" transform="rotate(45, 266.6666666666667, 266.6666666666667)"></rect><rect width="11.736842105263158" height="33.333333333333336" x="260.7982456140351" y="250.00000000000003" stroke="none" fill="hsl(316, 73%, 52%)" rx="5.868421052631579" transform="rotate(45, 266.6666666666667, 266.6666666666667)"></rect><rect width="33.333333333333336" height="11.736842105263158" x="316.6666666666667" y="260.7982456140351" stroke="none" fill="hsl(261, 60%, 38%)" rx="5.868421052631579" transform="rotate(45, 333.33333333333337, 266.6666666666667)"></rect><rect width="11.736842105263158" height="33.333333333333336" x="327.4649122807018" y="250.00000000000003" stroke="none" fill="hsl(261, 60%, 38%)" rx="5.868421052631579" transform="rotate(45, 333.33333333333337, 266.6666666666667)"></rect><rect width="33.333333333333336" height="11.736842105263158" x="383.33333333333337" y="260.7982456140351" stroke="none" fill="hsl(316, 73%, 52%)" rx="5.868421052631579" transform="rotate(45, 400.00000000000006, 266.6666666666667)"></rect><rect width="11.736842105263158" height="33.333333333333336" x="394.1315789473685" y="250.00000000000003" stroke="none" fill="hsl(316, 73%, 52%)" rx="5.868421052631579" transform="rotate(45, 400.00000000000006, 266.6666666666667)"></rect><rect width="33.333333333333336" height="11.736842105263158" x="450.00000000000006" y="260.7982456140351" stroke="none" fill="hsl(261, 60%, 38%)" rx="5.868421052631579" transform="rotate(45, 466.66666666666674, 266.6666666666667)"></rect><rect width="11.736842105263158" height="33.333333333333336" x="460.7982456140352" y="250.00000000000003" stroke="none" fill="hsl(261, 60%, 38%)" rx="5.868421052631579" transform="rotate(45, 466.66666666666674, 266.6666666666667)"></rect><rect width="33.333333333333336" height="11.736842105263158" x="516.6666666666667" y="260.7982456140351" stroke="none" fill="hsl(316, 73%, 52%)" rx="5.868421052631579" transform="rotate(45, 533.3333333333334, 266.6666666666667)"></rect><rect width="11.736842105263158" height="33.333333333333336" x="527.4649122807018" y="250.00000000000003" stroke="none" fill="hsl(316, 73%, 52%)" rx="5.868421052631579" transform="rotate(45, 533.3333333333334, 266.6666666666667)"></rect><rect width="33.333333333333336" height="11.736842105263158" x="583.3333333333334" y="260.7982456140351" stroke="none" fill="hsl(261, 60%, 38%)" rx="5.868421052631579" transform="rotate(45, 600, 266.6666666666667)"></rect><rect width="11.736842105263158" height="33.333333333333336" x="594.1315789473684" y="250.00000000000003" stroke="none" fill="hsl(261, 60%, 38%)" rx="5.868421052631579" transform="rotate(45, 600, 266.6666666666667)"></rect><rect width="33.333333333333336" height="11.736842105263158" x="650" y="260.7982456140351" stroke="none" fill="hsl(316, 73%, 52%)" rx="5.868421052631579" transform="rotate(45, 666.6666666666666, 266.6666666666667)"></rect><rect width="11.736842105263158" height="33.333333333333336" x="660.7982456140351" y="250.00000000000003" stroke="none" fill="hsl(316, 73%, 52%)" rx="5.868421052631579" transform="rotate(45, 666.6666666666666, 266.6666666666667)"></rect><rect width="33.333333333333336" height="11.736842105263158" x="716.6666666666666" y="260.7982456140351" stroke="none" fill="hsl(261, 60%, 38%)" rx="5.868421052631579" transform="rotate(45, 733.3333333333333, 266.6666666666667)"></rect><rect width="11.736842105263158" height="33.333333333333336" x="727.4649122807017" y="250.00000000000003" stroke="none" fill="hsl(261, 60%, 38%)" rx="5.868421052631579" transform="rotate(45, 733.3333333333333, 266.6666666666667)"></rect><rect width="33.333333333333336" height="11.736842105263158" x="783.3333333333333" y="260.7982456140351" stroke="none" fill="hsl(316, 73%, 52%)" rx="5.868421052631579" transform="rotate(45, 799.9999999999999, 266.6666666666667)"></rect><rect width="11.736842105263158" height="33.333333333333336" x="794.1315789473683" y="250.00000000000003" stroke="none" fill="hsl(316, 73%, 52%)" rx="5.868421052631579" transform="rotate(45, 799.9999999999999, 266.6666666666667)"></rect><rect width="33.333333333333336" height="11.736842105263158" x="-16.666666666666668" y="327.4649122807018" stroke="none" fill="hsl(261, 60%, 38%)" rx="5.868421052631579" transform="rotate(45, 0, 333.33333333333337)"></rect><rect width="11.736842105263158" height="33.333333333333336" x="-5.868421052631579" y="316.6666666666667" stroke="none" fill="hsl(261, 60%, 38%)" rx="5.868421052631579" transform="rotate(45, 0, 333.33333333333337)"></rect><rect width="33.333333333333336" height="11.736842105263158" x="50" y="327.4649122807018" stroke="none" fill="hsl(316, 73%, 52%)" rx="5.868421052631579" transform="rotate(45, 66.66666666666667, 333.33333333333337)"></rect><rect width="11.736842105263158" height="33.333333333333336" x="60.798245614035096" y="316.6666666666667" stroke="none" fill="hsl(316, 73%, 52%)" rx="5.868421052631579" transform="rotate(45, 66.66666666666667, 333.33333333333337)"></rect><rect width="33.333333333333336" height="11.736842105263158" x="116.66666666666667" y="327.4649122807018" stroke="none" fill="hsl(261, 60%, 38%)" rx="5.868421052631579" transform="rotate(45, 133.33333333333334, 333.33333333333337)"></rect><rect width="11.736842105263158" height="33.333333333333336" x="127.46491228070177" y="316.6666666666667" stroke="none" fill="hsl(261, 60%, 38%)" rx="5.868421052631579" transform="rotate(45, 133.33333333333334, 333.33333333333337)"></rect><rect width="33.333333333333336" height="11.736842105263158" x="183.33333333333334" y="327.4649122807018" stroke="none" fill="hsl(316, 73%, 52%)" rx="5.868421052631579" transform="rotate(45, 200, 333.33333333333337)"></rect><rect width="11.736842105263158" height="33.333333333333336" x="194.1315789473684" y="316.6666666666667" stroke="none" fill="hsl(316, 73%, 52%)" rx="5.868421052631579" transform="rotate(45, 200, 333.33333333333337)"></rect><rect width="33.333333333333336" height="11.736842105263158" x="250.00000000000003" y="327.4649122807018" stroke="none" fill="hsl(261, 60%, 38%)" rx="5.868421052631579" transform="rotate(45, 266.6666666666667, 333.33333333333337)"></rect><rect width="11.736842105263158" height="33.333333333333336" x="260.7982456140351" y="316.6666666666667" stroke="none" fill="hsl(261, 60%, 38%)" rx="5.868421052631579" transform="rotate(45, 266.6666666666667, 333.33333333333337)"></rect><rect width="33.333333333333336" height="11.736842105263158" x="316.6666666666667" y="327.4649122807018" stroke="none" fill="hsl(316, 73%, 52%)" rx="5.868421052631579" transform="rotate(45, 333.33333333333337, 333.33333333333337)"></rect><rect width="11.736842105263158" height="33.333333333333336" x="327.4649122807018" y="316.6666666666667" stroke="none" fill="hsl(316, 73%, 52%)" rx="5.868421052631579" transform="rotate(45, 333.33333333333337, 333.33333333333337)"></rect><rect width="33.333333333333336" height="11.736842105263158" x="383.33333333333337" y="327.4649122807018" stroke="none" fill="hsl(261, 60%, 38%)" rx="5.868421052631579" transform="rotate(45, 400.00000000000006, 333.33333333333337)"></rect><rect width="11.736842105263158" height="33.333333333333336" x="394.1315789473685" y="316.6666666666667" stroke="none" fill="hsl(261, 60%, 38%)" rx="5.868421052631579" transform="rotate(45, 400.00000000000006, 333.33333333333337)"></rect><rect width="33.333333333333336" height="11.736842105263158" x="450.00000000000006" y="327.4649122807018" stroke="none" fill="hsl(316, 73%, 52%)" rx="5.868421052631579" transform="rotate(45, 466.66666666666674, 333.33333333333337)"></rect><rect width="11.736842105263158" height="33.333333333333336" x="460.7982456140352" y="316.6666666666667" stroke="none" fill="hsl(316, 73%, 52%)" rx="5.868421052631579" transform="rotate(45, 466.66666666666674, 333.33333333333337)"></rect><rect width="33.333333333333336" height="11.736842105263158" x="516.6666666666667" y="327.4649122807018" stroke="none" fill="hsl(261, 60%, 38%)" rx="5.868421052631579" transform="rotate(45, 533.3333333333334, 333.33333333333337)"></rect><rect width="11.736842105263158" height="33.333333333333336" x="527.4649122807018" y="316.6666666666667" stroke="none" fill="hsl(261, 60%, 38%)" rx="5.868421052631579" transform="rotate(45, 533.3333333333334, 333.33333333333337)"></rect><rect width="33.333333333333336" height="11.736842105263158" x="583.3333333333334" y="327.4649122807018" stroke="none" fill="hsl(316, 73%, 52%)" rx="5.868421052631579" transform="rotate(45, 600, 333.33333333333337)"></rect><rect width="11.736842105263158" height="33.333333333333336" x="594.1315789473684" y="316.6666666666667" stroke="none" fill="hsl(316, 73%, 52%)" rx="5.868421052631579" transform="rotate(45, 600, 333.33333333333337)"></rect><rect width="33.333333333333336" height="11.736842105263158" x="650" y="327.4649122807018" stroke="none" fill="hsl(261, 60%, 38%)" rx="5.868421052631579" transform="rotate(45, 666.6666666666666, 333.33333333333337)"></rect><rect width="11.736842105263158" height="33.333333333333336" x="660.7982456140351" y="316.6666666666667" stroke="none" fill="hsl(261, 60%, 38%)" rx="5.868421052631579" transform="rotate(45, 666.6666666666666, 333.33333333333337)"></rect><rect width="33.333333333333336" height="11.736842105263158" x="716.6666666666666" y="327.4649122807018" stroke="none" fill="hsl(316, 73%, 52%)" rx="5.868421052631579" transform="rotate(45, 733.3333333333333, 333.33333333333337)"></rect><rect width="11.736842105263158" height="33.333333333333336" x="727.4649122807017" y="316.6666666666667" stroke="none" fill="hsl(316, 73%, 52%)" rx="5.868421052631579" transform="rotate(45, 733.3333333333333, 333.33333333333337)"></rect><rect width="33.333333333333336" height="11.736842105263158" x="783.3333333333333" y="327.4649122807018" stroke="none" fill="hsl(261, 60%, 38%)" rx="5.868421052631579" transform="rotate(45, 799.9999999999999, 333.33333333333337)"></rect><rect width="11.736842105263158" height="33.333333333333336" x="794.1315789473683" y="316.6666666666667" stroke="none" fill="hsl(261, 60%, 38%)" rx="5.868421052631579" transform="rotate(45, 799.9999999999999, 333.33333333333337)"></rect><rect width="33.333333333333336" height="11.736842105263158" x="-16.666666666666668" y="394.1315789473685" stroke="none" fill="hsl(316, 73%, 52%)" rx="5.868421052631579" transform="rotate(45, 0, 400.00000000000006)"></rect><rect width="11.736842105263158" height="33.333333333333336" x="-5.868421052631579" y="383.33333333333337" stroke="none" fill="hsl(316, 73%, 52%)" rx="5.868421052631579" transform="rotate(45, 0, 400.00000000000006)"></rect><rect width="33.333333333333336" height="11.736842105263158" x="50" y="394.1315789473685" stroke="none" fill="hsl(261, 60%, 38%)" rx="5.868421052631579" transform="rotate(45, 66.66666666666667, 400.00000000000006)"></rect><rect width="11.736842105263158" height="33.333333333333336" x="60.798245614035096" y="383.33333333333337" stroke="none" fill="hsl(261, 60%, 38%)" rx="5.868421052631579" transform="rotate(45, 66.66666666666667, 400.00000000000006)"></rect><rect width="33.333333333333336" height="11.736842105263158" x="116.66666666666667" y="394.1315789473685" stroke="none" fill="hsl(316, 73%, 52%)" rx="5.868421052631579" transform="rotate(45, 133.33333333333334, 400.00000000000006)"></rect><rect width="11.736842105263158" height="33.333333333333336" x="127.46491228070177" y="383.33333333333337" stroke="none" fill="hsl(316, 73%, 52%)" rx="5.868421052631579" transform="rotate(45, 133.33333333333334, 400.00000000000006)"></rect><rect width="33.333333333333336" height="11.736842105263158" x="183.33333333333334" y="394.1315789473685" stroke="none" fill="hsl(261, 60%, 38%)" rx="5.868421052631579" transform="rotate(45, 200, 400.00000000000006)"></rect><rect width="11.736842105263158" height="33.333333333333336" x="194.1315789473684" y="383.33333333333337" stroke="none" fill="hsl(261, 60%, 38%)" rx="5.868421052631579" transform="rotate(45, 200, 400.00000000000006)"></rect><rect width="33.333333333333336" height="11.736842105263158" x="250.00000000000003" y="394.1315789473685" stroke="none" fill="hsl(316, 73%, 52%)" rx="5.868421052631579" transform="rotate(45, 266.6666666666667, 400.00000000000006)"></rect><rect width="11.736842105263158" height="33.333333333333336" x="260.7982456140351" y="383.33333333333337" stroke="none" fill="hsl(316, 73%, 52%)" rx="5.868421052631579" transform="rotate(45, 266.6666666666667, 400.00000000000006)"></rect><rect width="33.333333333333336" height="11.736842105263158" x="316.6666666666667" y="394.1315789473685" stroke="none" fill="hsl(261, 60%, 38%)" rx="5.868421052631579" transform="rotate(45, 333.33333333333337, 400.00000000000006)"></rect><rect width="11.736842105263158" height="33.333333333333336" x="327.4649122807018" y="383.33333333333337" stroke="none" fill="hsl(261, 60%, 38%)" rx="5.868421052631579" transform="rotate(45, 333.33333333333337, 400.00000000000006)"></rect><rect width="33.333333333333336" height="11.736842105263158" x="383.33333333333337" y="394.1315789473685" stroke="none" fill="hsl(316, 73%, 52%)" rx="5.868421052631579" transform="rotate(45, 400.00000000000006, 400.00000000000006)"></rect><rect width="11.736842105263158" height="33.333333333333336" x="394.1315789473685" y="383.33333333333337" stroke="none" fill="hsl(316, 73%, 52%)" rx="5.868421052631579" transform="rotate(45, 400.00000000000006, 400.00000000000006)"></rect><rect width="33.333333333333336" height="11.736842105263158" x="450.00000000000006" y="394.1315789473685" stroke="none" fill="hsl(261, 60%, 38%)" rx="5.868421052631579" transform="rotate(45, 466.66666666666674, 400.00000000000006)"></rect><rect width="11.736842105263158" height="33.333333333333336" x="460.7982456140352" y="383.33333333333337" stroke="none" fill="hsl(261, 60%, 38%)" rx="5.868421052631579" transform="rotate(45, 466.66666666666674, 400.00000000000006)"></rect><rect width="33.333333333333336" height="11.736842105263158" x="516.6666666666667" y="394.1315789473685" stroke="none" fill="hsl(316, 73%, 52%)" rx="5.868421052631579" transform="rotate(45, 533.3333333333334, 400.00000000000006)"></rect><rect width="11.736842105263158" height="33.333333333333336" x="527.4649122807018" y="383.33333333333337" stroke="none" fill="hsl(316, 73%, 52%)" rx="5.868421052631579" transform="rotate(45, 533.3333333333334, 400.00000000000006)"></rect><rect width="33.333333333333336" height="11.736842105263158" x="583.3333333333334" y="394.1315789473685" stroke="none" fill="hsl(261, 60%, 38%)" rx="5.868421052631579" transform="rotate(45, 600, 400.00000000000006)"></rect><rect width="11.736842105263158" height="33.333333333333336" x="594.1315789473684" y="383.33333333333337" stroke="none" fill="hsl(261, 60%, 38%)" rx="5.868421052631579" transform="rotate(45, 600, 400.00000000000006)"></rect><rect width="33.333333333333336" height="11.736842105263158" x="650" y="394.1315789473685" stroke="none" fill="hsl(316, 73%, 52%)" rx="5.868421052631579" transform="rotate(45, 666.6666666666666, 400.00000000000006)"></rect><rect width="11.736842105263158" height="33.333333333333336" x="660.7982456140351" y="383.33333333333337" stroke="none" fill="hsl(316, 73%, 52%)" rx="5.868421052631579" transform="rotate(45, 666.6666666666666, 400.00000000000006)"></rect><rect width="33.333333333333336" height="11.736842105263158" x="716.6666666666666" y="394.1315789473685" stroke="none" fill="hsl(261, 60%, 38%)" rx="5.868421052631579" transform="rotate(45, 733.3333333333333, 400.00000000000006)"></rect><rect width="11.736842105263158" height="33.333333333333336" x="727.4649122807017" y="383.33333333333337" stroke="none" fill="hsl(261, 60%, 38%)" rx="5.868421052631579" transform="rotate(45, 733.3333333333333, 400.00000000000006)"></rect><rect width="33.333333333333336" height="11.736842105263158" x="783.3333333333333" y="394.1315789473685" stroke="none" fill="hsl(316, 73%, 52%)" rx="5.868421052631579" transform="rotate(45, 799.9999999999999, 400.00000000000006)"></rect><rect width="11.736842105263158" height="33.333333333333336" x="794.1315789473683" y="383.33333333333337" stroke="none" fill="hsl(316, 73%, 52%)" rx="5.868421052631579" transform="rotate(45, 799.9999999999999, 400.00000000000006)"></rect><rect width="33.333333333333336" height="11.736842105263158" x="-16.666666666666668" y="460.7982456140352" stroke="none" fill="hsl(261, 60%, 38%)" rx="5.868421052631579" transform="rotate(45, 0, 466.66666666666674)"></rect><rect width="11.736842105263158" height="33.333333333333336" x="-5.868421052631579" y="450.00000000000006" stroke="none" fill="hsl(261, 60%, 38%)" rx="5.868421052631579" transform="rotate(45, 0, 466.66666666666674)"></rect><rect width="33.333333333333336" height="11.736842105263158" x="50" y="460.7982456140352" stroke="none" fill="hsl(316, 73%, 52%)" rx="5.868421052631579" transform="rotate(45, 66.66666666666667, 466.66666666666674)"></rect><rect width="11.736842105263158" height="33.333333333333336" x="60.798245614035096" y="450.00000000000006" stroke="none" fill="hsl(316, 73%, 52%)" rx="5.868421052631579" transform="rotate(45, 66.66666666666667, 466.66666666666674)"></rect><rect width="33.333333333333336" height="11.736842105263158" x="116.66666666666667" y="460.7982456140352" stroke="none" fill="hsl(261, 60%, 38%)" rx="5.868421052631579" transform="rotate(45, 133.33333333333334, 466.66666666666674)"></rect><rect width="11.736842105263158" height="33.333333333333336" x="127.46491228070177" y="450.00000000000006" stroke="none" fill="hsl(261, 60%, 38%)" rx="5.868421052631579" transform="rotate(45, 133.33333333333334, 466.66666666666674)"></rect><rect width="33.333333333333336" height="11.736842105263158" x="183.33333333333334" y="460.7982456140352" stroke="none" fill="hsl(316, 73%, 52%)" rx="5.868421052631579" transform="rotate(45, 200, 466.66666666666674)"></rect><rect width="11.736842105263158" height="33.333333333333336" x="194.1315789473684" y="450.00000000000006" stroke="none" fill="hsl(316, 73%, 52%)" rx="5.868421052631579" transform="rotate(45, 200, 466.66666666666674)"></rect><rect width="33.333333333333336" height="11.736842105263158" x="250.00000000000003" y="460.7982456140352" stroke="none" fill="hsl(261, 60%, 38%)" rx="5.868421052631579" transform="rotate(45, 266.6666666666667, 466.66666666666674)"></rect><rect width="11.736842105263158" height="33.333333333333336" x="260.7982456140351" y="450.00000000000006" stroke="none" fill="hsl(261, 60%, 38%)" rx="5.868421052631579" transform="rotate(45, 266.6666666666667, 466.66666666666674)"></rect><rect width="33.333333333333336" height="11.736842105263158" x="316.6666666666667" y="460.7982456140352" stroke="none" fill="hsl(316, 73%, 52%)" rx="5.868421052631579" transform="rotate(45, 333.33333333333337, 466.66666666666674)"></rect><rect width="11.736842105263158" height="33.333333333333336" x="327.4649122807018" y="450.00000000000006" stroke="none" fill="hsl(316, 73%, 52%)" rx="5.868421052631579" transform="rotate(45, 333.33333333333337, 466.66666666666674)"></rect><rect width="33.333333333333336" height="11.736842105263158" x="383.33333333333337" y="460.7982456140352" stroke="none" fill="hsl(261, 60%, 38%)" rx="5.868421052631579" transform="rotate(45, 400.00000000000006, 466.66666666666674)"></rect><rect width="11.736842105263158" height="33.333333333333336" x="394.1315789473685" y="450.00000000000006" stroke="none" fill="hsl(261, 60%, 38%)" rx="5.868421052631579" transform="rotate(45, 400.00000000000006, 466.66666666666674)"></rect><rect width="33.333333333333336" height="11.736842105263158" x="450.00000000000006" y="460.7982456140352" stroke="none" fill="hsl(316, 73%, 52%)" rx="5.868421052631579" transform="rotate(45, 466.66666666666674, 466.66666666666674)"></rect><rect width="11.736842105263158" height="33.333333333333336" x="460.7982456140352" y="450.00000000000006" stroke="none" fill="hsl(316, 73%, 52%)" rx="5.868421052631579" transform="rotate(45, 466.66666666666674, 466.66666666666674)"></rect><rect width="33.333333333333336" height="11.736842105263158" x="516.6666666666667" y="460.7982456140352" stroke="none" fill="hsl(261, 60%, 38%)" rx="5.868421052631579" transform="rotate(45, 533.3333333333334, 466.66666666666674)"></rect><rect width="11.736842105263158" height="33.333333333333336" x="527.4649122807018" y="450.00000000000006" stroke="none" fill="hsl(261, 60%, 38%)" rx="5.868421052631579" transform="rotate(45, 533.3333333333334, 466.66666666666674)"></rect><rect width="33.333333333333336" height="11.736842105263158" x="583.3333333333334" y="460.7982456140352" stroke="none" fill="hsl(316, 73%, 52%)" rx="5.868421052631579" transform="rotate(45, 600, 466.66666666666674)"></rect><rect width="11.736842105263158" height="33.333333333333336" x="594.1315789473684" y="450.00000000000006" stroke="none" fill="hsl(316, 73%, 52%)" rx="5.868421052631579" transform="rotate(45, 600, 466.66666666666674)"></rect><rect width="33.333333333333336" height="11.736842105263158" x="650" y="460.7982456140352" stroke="none" fill="hsl(261, 60%, 38%)" rx="5.868421052631579" transform="rotate(45, 666.6666666666666, 466.66666666666674)"></rect><rect width="11.736842105263158" height="33.333333333333336" x="660.7982456140351" y="450.00000000000006" stroke="none" fill="hsl(261, 60%, 38%)" rx="5.868421052631579" transform="rotate(45, 666.6666666666666, 466.66666666666674)"></rect><rect width="33.333333333333336" height="11.736842105263158" x="716.6666666666666" y="460.7982456140352" stroke="none" fill="hsl(316, 73%, 52%)" rx="5.868421052631579" transform="rotate(45, 733.3333333333333, 466.66666666666674)"></rect><rect width="11.736842105263158" height="33.333333333333336" x="727.4649122807017" y="450.00000000000006" stroke="none" fill="hsl(316, 73%, 52%)" rx="5.868421052631579" transform="rotate(45, 733.3333333333333, 466.66666666666674)"></rect><rect width="33.333333333333336" height="11.736842105263158" x="783.3333333333333" y="460.7982456140352" stroke="none" fill="hsl(261, 60%, 38%)" rx="5.868421052631579" transform="rotate(45, 799.9999999999999, 466.66666666666674)"></rect><rect width="11.736842105263158" height="33.333333333333336" x="794.1315789473683" y="450.00000000000006" stroke="none" fill="hsl(261, 60%, 38%)" rx="5.868421052631579" transform="rotate(45, 799.9999999999999, 466.66666666666674)"></rect><rect width="33.333333333333336" height="11.736842105263158" x="-16.666666666666668" y="527.4649122807018" stroke="none" fill="hsl(316, 73%, 52%)" rx="5.868421052631579" transform="rotate(45, 0, 533.3333333333334)"></rect><rect width="11.736842105263158" height="33.333333333333336" x="-5.868421052631579" y="516.6666666666667" stroke="none" fill="hsl(316, 73%, 52%)" rx="5.868421052631579" transform="rotate(45, 0, 533.3333333333334)"></rect><rect width="33.333333333333336" height="11.736842105263158" x="50" y="527.4649122807018" stroke="none" fill="hsl(261, 60%, 38%)" rx="5.868421052631579" transform="rotate(45, 66.66666666666667, 533.3333333333334)"></rect><rect width="11.736842105263158" height="33.333333333333336" x="60.798245614035096" y="516.6666666666667" stroke="none" fill="hsl(261, 60%, 38%)" rx="5.868421052631579" transform="rotate(45, 66.66666666666667, 533.3333333333334)"></rect><rect width="33.333333333333336" height="11.736842105263158" x="116.66666666666667" y="527.4649122807018" stroke="none" fill="hsl(316, 73%, 52%)" rx="5.868421052631579" transform="rotate(45, 133.33333333333334, 533.3333333333334)"></rect><rect width="11.736842105263158" height="33.333333333333336" x="127.46491228070177" y="516.6666666666667" stroke="none" fill="hsl(316, 73%, 52%)" rx="5.868421052631579" transform="rotate(45, 133.33333333333334, 533.3333333333334)"></rect><rect width="33.333333333333336" height="11.736842105263158" x="183.33333333333334" y="527.4649122807018" stroke="none" fill="hsl(261, 60%, 38%)" rx="5.868421052631579" transform="rotate(45, 200, 533.3333333333334)"></rect><rect width="11.736842105263158" height="33.333333333333336" x="194.1315789473684" y="516.6666666666667" stroke="none" fill="hsl(261, 60%, 38%)" rx="5.868421052631579" transform="rotate(45, 200, 533.3333333333334)"></rect><rect width="33.333333333333336" height="11.736842105263158" x="250.00000000000003" y="527.4649122807018" stroke="none" fill="hsl(316, 73%, 52%)" rx="5.868421052631579" transform="rotate(45, 266.6666666666667, 533.3333333333334)"></rect><rect width="11.736842105263158" height="33.333333333333336" x="260.7982456140351" y="516.6666666666667" stroke="none" fill="hsl(316, 73%, 52%)" rx="5.868421052631579" transform="rotate(45, 266.6666666666667, 533.3333333333334)"></rect><rect width="33.333333333333336" height="11.736842105263158" x="316.6666666666667" y="527.4649122807018" stroke="none" fill="hsl(261, 60%, 38%)" rx="5.868421052631579" transform="rotate(45, 333.33333333333337, 533.3333333333334)"></rect><rect width="11.736842105263158" height="33.333333333333336" x="327.4649122807018" y="516.6666666666667" stroke="none" fill="hsl(261, 60%, 38%)" rx="5.868421052631579" transform="rotate(45, 333.33333333333337, 533.3333333333334)"></rect><rect width="33.333333333333336" height="11.736842105263158" x="383.33333333333337" y="527.4649122807018" stroke="none" fill="hsl(316, 73%, 52%)" rx="5.868421052631579" transform="rotate(45, 400.00000000000006, 533.3333333333334)"></rect><rect width="11.736842105263158" height="33.333333333333336" x="394.1315789473685" y="516.6666666666667" stroke="none" fill="hsl(316, 73%, 52%)" rx="5.868421052631579" transform="rotate(45, 400.00000000000006, 533.3333333333334)"></rect><rect width="33.333333333333336" height="11.736842105263158" x="450.00000000000006" y="527.4649122807018" stroke="none" fill="hsl(261, 60%, 38%)" rx="5.868421052631579" transform="rotate(45, 466.66666666666674, 533.3333333333334)"></rect><rect width="11.736842105263158" height="33.333333333333336" x="460.7982456140352" y="516.6666666666667" stroke="none" fill="hsl(261, 60%, 38%)" rx="5.868421052631579" transform="rotate(45, 466.66666666666674, 533.3333333333334)"></rect><rect width="33.333333333333336" height="11.736842105263158" x="516.6666666666667" y="527.4649122807018" stroke="none" fill="hsl(316, 73%, 52%)" rx="5.868421052631579" transform="rotate(45, 533.3333333333334, 533.3333333333334)"></rect><rect width="11.736842105263158" height="33.333333333333336" x="527.4649122807018" y="516.6666666666667" stroke="none" fill="hsl(316, 73%, 52%)" rx="5.868421052631579" transform="rotate(45, 533.3333333333334, 533.3333333333334)"></rect><rect width="33.333333333333336" height="11.736842105263158" x="583.3333333333334" y="527.4649122807018" stroke="none" fill="hsl(261, 60%, 38%)" rx="5.868421052631579" transform="rotate(45, 600, 533.3333333333334)"></rect><rect width="11.736842105263158" height="33.333333333333336" x="594.1315789473684" y="516.6666666666667" stroke="none" fill="hsl(261, 60%, 38%)" rx="5.868421052631579" transform="rotate(45, 600, 533.3333333333334)"></rect><rect width="33.333333333333336" height="11.736842105263158" x="650" y="527.4649122807018" stroke="none" fill="hsl(316, 73%, 52%)" rx="5.868421052631579" transform="rotate(45, 666.6666666666666, 533.3333333333334)"></rect><rect width="11.736842105263158" height="33.333333333333336" x="660.7982456140351" y="516.6666666666667" stroke="none" fill="hsl(316, 73%, 52%)" rx="5.868421052631579" transform="rotate(45, 666.6666666666666, 533.3333333333334)"></rect><rect width="33.333333333333336" height="11.736842105263158" x="716.6666666666666" y="527.4649122807018" stroke="none" fill="hsl(261, 60%, 38%)" rx="5.868421052631579" transform="rotate(45, 733.3333333333333, 533.3333333333334)"></rect><rect width="11.736842105263158" height="33.333333333333336" x="727.4649122807017" y="516.6666666666667" stroke="none" fill="hsl(261, 60%, 38%)" rx="5.868421052631579" transform="rotate(45, 733.3333333333333, 533.3333333333334)"></rect><rect width="33.333333333333336" height="11.736842105263158" x="783.3333333333333" y="527.4649122807018" stroke="none" fill="hsl(316, 73%, 52%)" rx="5.868421052631579" transform="rotate(45, 799.9999999999999, 533.3333333333334)"></rect><rect width="11.736842105263158" height="33.333333333333336" x="794.1315789473683" y="516.6666666666667" stroke="none" fill="hsl(316, 73%, 52%)" rx="5.868421052631579" transform="rotate(45, 799.9999999999999, 533.3333333333334)"></rect><rect width="33.333333333333336" height="11.736842105263158" x="-16.666666666666668" y="594.1315789473684" stroke="none" fill="hsl(261, 60%, 38%)" rx="5.868421052631579" transform="rotate(45, 0, 600)"></rect><rect width="11.736842105263158" height="33.333333333333336" x="-5.868421052631579" y="583.3333333333334" stroke="none" fill="hsl(261, 60%, 38%)" rx="5.868421052631579" transform="rotate(45, 0, 600)"></rect><rect width="33.333333333333336" height="11.736842105263158" x="50" y="594.1315789473684" stroke="none" fill="hsl(316, 73%, 52%)" rx="5.868421052631579" transform="rotate(45, 66.66666666666667, 600)"></rect><rect width="11.736842105263158" height="33.333333333333336" x="60.798245614035096" y="583.3333333333334" stroke="none" fill="hsl(316, 73%, 52%)" rx="5.868421052631579" transform="rotate(45, 66.66666666666667, 600)"></rect><rect width="33.333333333333336" height="11.736842105263158" x="116.66666666666667" y="594.1315789473684" stroke="none" fill="hsl(261, 60%, 38%)" rx="5.868421052631579" transform="rotate(45, 133.33333333333334, 600)"></rect><rect width="11.736842105263158" height="33.333333333333336" x="127.46491228070177" y="583.3333333333334" stroke="none" fill="hsl(261, 60%, 38%)" rx="5.868421052631579" transform="rotate(45, 133.33333333333334, 600)"></rect><rect width="33.333333333333336" height="11.736842105263158" x="183.33333333333334" y="594.1315789473684" stroke="none" fill="hsl(316, 73%, 52%)" rx="5.868421052631579" transform="rotate(45, 200, 600)"></rect><rect width="11.736842105263158" height="33.333333333333336" x="194.1315789473684" y="583.3333333333334" stroke="none" fill="hsl(316, 73%, 52%)" rx="5.868421052631579" transform="rotate(45, 200, 600)"></rect><rect width="33.333333333333336" height="11.736842105263158" x="250.00000000000003" y="594.1315789473684" stroke="none" fill="hsl(261, 60%, 38%)" rx="5.868421052631579" transform="rotate(45, 266.6666666666667, 600)"></rect><rect width="11.736842105263158" height="33.333333333333336" x="260.7982456140351" y="583.3333333333334" stroke="none" fill="hsl(261, 60%, 38%)" rx="5.868421052631579" transform="rotate(45, 266.6666666666667, 600)"></rect><rect width="33.333333333333336" height="11.736842105263158" x="316.6666666666667" y="594.1315789473684" stroke="none" fill="hsl(316, 73%, 52%)" rx="5.868421052631579" transform="rotate(45, 333.33333333333337, 600)"></rect><rect width="11.736842105263158" height="33.333333333333336" x="327.4649122807018" y="583.3333333333334" stroke="none" fill="hsl(316, 73%, 52%)" rx="5.868421052631579" transform="rotate(45, 333.33333333333337, 600)"></rect><rect width="33.333333333333336" height="11.736842105263158" x="383.33333333333337" y="594.1315789473684" stroke="none" fill="hsl(261, 60%, 38%)" rx="5.868421052631579" transform="rotate(45, 400.00000000000006, 600)"></rect><rect width="11.736842105263158" height="33.333333333333336" x="394.1315789473685" y="583.3333333333334" stroke="none" fill="hsl(261, 60%, 38%)" rx="5.868421052631579" transform="rotate(45, 400.00000000000006, 600)"></rect><rect width="33.333333333333336" height="11.736842105263158" x="450.00000000000006" y="594.1315789473684" stroke="none" fill="hsl(316, 73%, 52%)" rx="5.868421052631579" transform="rotate(45, 466.66666666666674, 600)"></rect><rect width="11.736842105263158" height="33.333333333333336" x="460.7982456140352" y="583.3333333333334" stroke="none" fill="hsl(316, 73%, 52%)" rx="5.868421052631579" transform="rotate(45, 466.66666666666674, 600)"></rect><rect width="33.333333333333336" height="11.736842105263158" x="516.6666666666667" y="594.1315789473684" stroke="none" fill="hsl(261, 60%, 38%)" rx="5.868421052631579" transform="rotate(45, 533.3333333333334, 600)"></rect><rect width="11.736842105263158" height="33.333333333333336" x="527.4649122807018" y="583.3333333333334" stroke="none" fill="hsl(261, 60%, 38%)" rx="5.868421052631579" transform="rotate(45, 533.3333333333334, 600)"></rect><rect width="33.333333333333336" height="11.736842105263158" x="583.3333333333334" y="594.1315789473684" stroke="none" fill="hsl(316, 73%, 52%)" rx="5.868421052631579" transform="rotate(45, 600, 600)"></rect><rect width="11.736842105263158" height="33.333333333333336" x="594.1315789473684" y="583.3333333333334" stroke="none" fill="hsl(316, 73%, 52%)" rx="5.868421052631579" transform="rotate(45, 600, 600)"></rect><rect width="33.333333333333336" height="11.736842105263158" x="650" y="594.1315789473684" stroke="none" fill="hsl(261, 60%, 38%)" rx="5.868421052631579" transform="rotate(45, 666.6666666666666, 600)"></rect><rect width="11.736842105263158" height="33.333333333333336" x="660.7982456140351" y="583.3333333333334" stroke="none" fill="hsl(261, 60%, 38%)" rx="5.868421052631579" transform="rotate(45, 666.6666666666666, 600)"></rect><rect width="33.333333333333336" height="11.736842105263158" x="716.6666666666666" y="594.1315789473684" stroke="none" fill="hsl(316, 73%, 52%)" rx="5.868421052631579" transform="rotate(45, 733.3333333333333, 600)"></rect><rect width="11.736842105263158" height="33.333333333333336" x="727.4649122807017" y="583.3333333333334" stroke="none" fill="hsl(316, 73%, 52%)" rx="5.868421052631579" transform="rotate(45, 733.3333333333333, 600)"></rect><rect width="33.333333333333336" height="11.736842105263158" x="783.3333333333333" y="594.1315789473684" stroke="none" fill="hsl(261, 60%, 38%)" rx="5.868421052631579" transform="rotate(45, 799.9999999999999, 600)"></rect><rect width="11.736842105263158" height="33.333333333333336" x="794.1315789473683" y="583.3333333333334" stroke="none" fill="hsl(261, 60%, 38%)" rx="5.868421052631579" transform="rotate(45, 799.9999999999999, 600)"></rect><rect width="33.333333333333336" height="11.736842105263158" x="-16.666666666666668" y="660.7982456140351" stroke="none" fill="hsl(316, 73%, 52%)" rx="5.868421052631579" transform="rotate(45, 0, 666.6666666666666)"></rect><rect width="11.736842105263158" height="33.333333333333336" x="-5.868421052631579" y="650" stroke="none" fill="hsl(316, 73%, 52%)" rx="5.868421052631579" transform="rotate(45, 0, 666.6666666666666)"></rect><rect width="33.333333333333336" height="11.736842105263158" x="50" y="660.7982456140351" stroke="none" fill="hsl(261, 60%, 38%)" rx="5.868421052631579" transform="rotate(45, 66.66666666666667, 666.6666666666666)"></rect><rect width="11.736842105263158" height="33.333333333333336" x="60.798245614035096" y="650" stroke="none" fill="hsl(261, 60%, 38%)" rx="5.868421052631579" transform="rotate(45, 66.66666666666667, 666.6666666666666)"></rect><rect width="33.333333333333336" height="11.736842105263158" x="116.66666666666667" y="660.7982456140351" stroke="none" fill="hsl(316, 73%, 52%)" rx="5.868421052631579" transform="rotate(45, 133.33333333333334, 666.6666666666666)"></rect><rect width="11.736842105263158" height="33.333333333333336" x="127.46491228070177" y="650" stroke="none" fill="hsl(316, 73%, 52%)" rx="5.868421052631579" transform="rotate(45, 133.33333333333334, 666.6666666666666)"></rect><rect width="33.333333333333336" height="11.736842105263158" x="183.33333333333334" y="660.7982456140351" stroke="none" fill="hsl(261, 60%, 38%)" rx="5.868421052631579" transform="rotate(45, 200, 666.6666666666666)"></rect><rect width="11.736842105263158" height="33.333333333333336" x="194.1315789473684" y="650" stroke="none" fill="hsl(261, 60%, 38%)" rx="5.868421052631579" transform="rotate(45, 200, 666.6666666666666)"></rect><rect width="33.333333333333336" height="11.736842105263158" x="250.00000000000003" y="660.7982456140351" stroke="none" fill="hsl(316, 73%, 52%)" rx="5.868421052631579" transform="rotate(45, 266.6666666666667, 666.6666666666666)"></rect><rect width="11.736842105263158" height="33.333333333333336" x="260.7982456140351" y="650" stroke="none" fill="hsl(316, 73%, 52%)" rx="5.868421052631579" transform="rotate(45, 266.6666666666667, 666.6666666666666)"></rect><rect width="33.333333333333336" height="11.736842105263158" x="316.6666666666667" y="660.7982456140351" stroke="none" fill="hsl(261, 60%, 38%)" rx="5.868421052631579" transform="rotate(45, 333.33333333333337, 666.6666666666666)"></rect><rect width="11.736842105263158" height="33.333333333333336" x="327.4649122807018" y="650" stroke="none" fill="hsl(261, 60%, 38%)" rx="5.868421052631579" transform="rotate(45, 333.33333333333337, 666.6666666666666)"></rect><rect width="33.333333333333336" height="11.736842105263158" x="383.33333333333337" y="660.7982456140351" stroke="none" fill="hsl(316, 73%, 52%)" rx="5.868421052631579" transform="rotate(45, 400.00000000000006, 666.6666666666666)"></rect><rect width="11.736842105263158" height="33.333333333333336" x="394.1315789473685" y="650" stroke="none" fill="hsl(316, 73%, 52%)" rx="5.868421052631579" transform="rotate(45, 400.00000000000006, 666.6666666666666)"></rect><rect width="33.333333333333336" height="11.736842105263158" x="450.00000000000006" y="660.7982456140351" stroke="none" fill="hsl(261, 60%, 38%)" rx="5.868421052631579" transform="rotate(45, 466.66666666666674, 666.6666666666666)"></rect><rect width="11.736842105263158" height="33.333333333333336" x="460.7982456140352" y="650" stroke="none" fill="hsl(261, 60%, 38%)" rx="5.868421052631579" transform="rotate(45, 466.66666666666674, 666.6666666666666)"></rect><rect width="33.333333333333336" height="11.736842105263158" x="516.6666666666667" y="660.7982456140351" stroke="none" fill="hsl(316, 73%, 52%)" rx="5.868421052631579" transform="rotate(45, 533.3333333333334, 666.6666666666666)"></rect><rect width="11.736842105263158" height="33.333333333333336" x="527.4649122807018" y="650" stroke="none" fill="hsl(316, 73%, 52%)" rx="5.868421052631579" transform="rotate(45, 533.3333333333334, 666.6666666666666)"></rect><rect width="33.333333333333336" height="11.736842105263158" x="583.3333333333334" y="660.7982456140351" stroke="none" fill="hsl(261, 60%, 38%)" rx="5.868421052631579" transform="rotate(45, 600, 666.6666666666666)"></rect><rect width="11.736842105263158" height="33.333333333333336" x="594.1315789473684" y="650" stroke="none" fill="hsl(261, 60%, 38%)" rx="5.868421052631579" transform="rotate(45, 600, 666.6666666666666)"></rect><rect width="33.333333333333336" height="11.736842105263158" x="650" y="660.7982456140351" stroke="none" fill="hsl(316, 73%, 52%)" rx="5.868421052631579" transform="rotate(45, 666.6666666666666, 666.6666666666666)"></rect><rect width="11.736842105263158" height="33.333333333333336" x="660.7982456140351" y="650" stroke="none" fill="hsl(316, 73%, 52%)" rx="5.868421052631579" transform="rotate(45, 666.6666666666666, 666.6666666666666)"></rect><rect width="33.333333333333336" height="11.736842105263158" x="716.6666666666666" y="660.7982456140351" stroke="none" fill="hsl(261, 60%, 38%)" rx="5.868421052631579" transform="rotate(45, 733.3333333333333, 666.6666666666666)"></rect><rect width="11.736842105263158" height="33.333333333333336" x="727.4649122807017" y="650" stroke="none" fill="hsl(261, 60%, 38%)" rx="5.868421052631579" transform="rotate(45, 733.3333333333333, 666.6666666666666)"></rect><rect width="33.333333333333336" height="11.736842105263158" x="783.3333333333333" y="660.7982456140351" stroke="none" fill="hsl(316, 73%, 52%)" rx="5.868421052631579" transform="rotate(45, 799.9999999999999, 666.6666666666666)"></rect><rect width="11.736842105263158" height="33.333333333333336" x="794.1315789473683" y="650" stroke="none" fill="hsl(316, 73%, 52%)" rx="5.868421052631579" transform="rotate(45, 799.9999999999999, 666.6666666666666)"></rect><rect width="33.333333333333336" height="11.736842105263158" x="-16.666666666666668" y="727.4649122807017" stroke="none" fill="hsl(261, 60%, 38%)" rx="5.868421052631579" transform="rotate(45, 0, 733.3333333333333)"></rect><rect width="11.736842105263158" height="33.333333333333336" x="-5.868421052631579" y="716.6666666666666" stroke="none" fill="hsl(261, 60%, 38%)" rx="5.868421052631579" transform="rotate(45, 0, 733.3333333333333)"></rect><rect width="33.333333333333336" height="11.736842105263158" x="50" y="727.4649122807017" stroke="none" fill="hsl(316, 73%, 52%)" rx="5.868421052631579" transform="rotate(45, 66.66666666666667, 733.3333333333333)"></rect><rect width="11.736842105263158" height="33.333333333333336" x="60.798245614035096" y="716.6666666666666" stroke="none" fill="hsl(316, 73%, 52%)" rx="5.868421052631579" transform="rotate(45, 66.66666666666667, 733.3333333333333)"></rect><rect width="33.333333333333336" height="11.736842105263158" x="116.66666666666667" y="727.4649122807017" stroke="none" fill="hsl(261, 60%, 38%)" rx="5.868421052631579" transform="rotate(45, 133.33333333333334, 733.3333333333333)"></rect><rect width="11.736842105263158" height="33.333333333333336" x="127.46491228070177" y="716.6666666666666" stroke="none" fill="hsl(261, 60%, 38%)" rx="5.868421052631579" transform="rotate(45, 133.33333333333334, 733.3333333333333)"></rect><rect width="33.333333333333336" height="11.736842105263158" x="183.33333333333334" y="727.4649122807017" stroke="none" fill="hsl(316, 73%, 52%)" rx="5.868421052631579" transform="rotate(45, 200, 733.3333333333333)"></rect><rect width="11.736842105263158" height="33.333333333333336" x="194.1315789473684" y="716.6666666666666" stroke="none" fill="hsl(316, 73%, 52%)" rx="5.868421052631579" transform="rotate(45, 200, 733.3333333333333)"></rect><rect width="33.333333333333336" height="11.736842105263158" x="250.00000000000003" y="727.4649122807017" stroke="none" fill="hsl(261, 60%, 38%)" rx="5.868421052631579" transform="rotate(45, 266.6666666666667, 733.3333333333333)"></rect><rect width="11.736842105263158" height="33.333333333333336" x="260.7982456140351" y="716.6666666666666" stroke="none" fill="hsl(261, 60%, 38%)" rx="5.868421052631579" transform="rotate(45, 266.6666666666667, 733.3333333333333)"></rect><rect width="33.333333333333336" height="11.736842105263158" x="316.6666666666667" y="727.4649122807017" stroke="none" fill="hsl(316, 73%, 52%)" rx="5.868421052631579" transform="rotate(45, 333.33333333333337, 733.3333333333333)"></rect><rect width="11.736842105263158" height="33.333333333333336" x="327.4649122807018" y="716.6666666666666" stroke="none" fill="hsl(316, 73%, 52%)" rx="5.868421052631579" transform="rotate(45, 333.33333333333337, 733.3333333333333)"></rect><rect width="33.333333333333336" height="11.736842105263158" x="383.33333333333337" y="727.4649122807017" stroke="none" fill="hsl(261, 60%, 38%)" rx="5.868421052631579" transform="rotate(45, 400.00000000000006, 733.3333333333333)"></rect><rect width="11.736842105263158" height="33.333333333333336" x="394.1315789473685" y="716.6666666666666" stroke="none" fill="hsl(261, 60%, 38%)" rx="5.868421052631579" transform="rotate(45, 400.00000000000006, 733.3333333333333)"></rect><rect width="33.333333333333336" height="11.736842105263158" x="450.00000000000006" y="727.4649122807017" stroke="none" fill="hsl(316, 73%, 52%)" rx="5.868421052631579" transform="rotate(45, 466.66666666666674, 733.3333333333333)"></rect><rect width="11.736842105263158" height="33.333333333333336" x="460.7982456140352" y="716.6666666666666" stroke="none" fill="hsl(316, 73%, 52%)" rx="5.868421052631579" transform="rotate(45, 466.66666666666674, 733.3333333333333)"></rect><rect width="33.333333333333336" height="11.736842105263158" x="516.6666666666667" y="727.4649122807017" stroke="none" fill="hsl(261, 60%, 38%)" rx="5.868421052631579" transform="rotate(45, 533.3333333333334, 733.3333333333333)"></rect><rect width="11.736842105263158" height="33.333333333333336" x="527.4649122807018" y="716.6666666666666" stroke="none" fill="hsl(261, 60%, 38%)" rx="5.868421052631579" transform="rotate(45, 533.3333333333334, 733.3333333333333)"></rect><rect width="33.333333333333336" height="11.736842105263158" x="583.3333333333334" y="727.4649122807017" stroke="none" fill="hsl(316, 73%, 52%)" rx="5.868421052631579" transform="rotate(45, 600, 733.3333333333333)"></rect><rect width="11.736842105263158" height="33.333333333333336" x="594.1315789473684" y="716.6666666666666" stroke="none" fill="hsl(316, 73%, 52%)" rx="5.868421052631579" transform="rotate(45, 600, 733.3333333333333)"></rect><rect width="33.333333333333336" height="11.736842105263158" x="650" y="727.4649122807017" stroke="none" fill="hsl(261, 60%, 38%)" rx="5.868421052631579" transform="rotate(45, 666.6666666666666, 733.3333333333333)"></rect><rect width="11.736842105263158" height="33.333333333333336" x="660.7982456140351" y="716.6666666666666" stroke="none" fill="hsl(261, 60%, 38%)" rx="5.868421052631579" transform="rotate(45, 666.6666666666666, 733.3333333333333)"></rect><rect width="33.333333333333336" height="11.736842105263158" x="716.6666666666666" y="727.4649122807017" stroke="none" fill="hsl(316, 73%, 52%)" rx="5.868421052631579" transform="rotate(45, 733.3333333333333, 733.3333333333333)"></rect><rect width="11.736842105263158" height="33.333333333333336" x="727.4649122807017" y="716.6666666666666" stroke="none" fill="hsl(316, 73%, 52%)" rx="5.868421052631579" transform="rotate(45, 733.3333333333333, 733.3333333333333)"></rect><rect width="33.333333333333336" height="11.736842105263158" x="783.3333333333333" y="727.4649122807017" stroke="none" fill="hsl(261, 60%, 38%)" rx="5.868421052631579" transform="rotate(45, 799.9999999999999, 733.3333333333333)"></rect><rect width="11.736842105263158" height="33.333333333333336" x="794.1315789473683" y="716.6666666666666" stroke="none" fill="hsl(261, 60%, 38%)" rx="5.868421052631579" transform="rotate(45, 799.9999999999999, 733.3333333333333)"></rect><rect width="33.333333333333336" height="11.736842105263158" x="-16.666666666666668" y="794.1315789473683" stroke="none" fill="hsl(316, 73%, 52%)" rx="5.868421052631579" transform="rotate(45, 0, 799.9999999999999)"></rect><rect width="11.736842105263158" height="33.333333333333336" x="-5.868421052631579" y="783.3333333333333" stroke="none" fill="hsl(316, 73%, 52%)" rx="5.868421052631579" transform="rotate(45, 0, 799.9999999999999)"></rect><rect width="33.333333333333336" height="11.736842105263158" x="50" y="794.1315789473683" stroke="none" fill="hsl(261, 60%, 38%)" rx="5.868421052631579" transform="rotate(45, 66.66666666666667, 799.9999999999999)"></rect><rect width="11.736842105263158" height="33.333333333333336" x="60.798245614035096" y="783.3333333333333" stroke="none" fill="hsl(261, 60%, 38%)" rx="5.868421052631579" transform="rotate(45, 66.66666666666667, 799.9999999999999)"></rect><rect width="33.333333333333336" height="11.736842105263158" x="116.66666666666667" y="794.1315789473683" stroke="none" fill="hsl(316, 73%, 52%)" rx="5.868421052631579" transform="rotate(45, 133.33333333333334, 799.9999999999999)"></rect><rect width="11.736842105263158" height="33.333333333333336" x="127.46491228070177" y="783.3333333333333" stroke="none" fill="hsl(316, 73%, 52%)" rx="5.868421052631579" transform="rotate(45, 133.33333333333334, 799.9999999999999)"></rect><rect width="33.333333333333336" height="11.736842105263158" x="183.33333333333334" y="794.1315789473683" stroke="none" fill="hsl(261, 60%, 38%)" rx="5.868421052631579" transform="rotate(45, 200, 799.9999999999999)"></rect><rect width="11.736842105263158" height="33.333333333333336" x="194.1315789473684" y="783.3333333333333" stroke="none" fill="hsl(261, 60%, 38%)" rx="5.868421052631579" transform="rotate(45, 200, 799.9999999999999)"></rect><rect width="33.333333333333336" height="11.736842105263158" x="250.00000000000003" y="794.1315789473683" stroke="none" fill="hsl(316, 73%, 52%)" rx="5.868421052631579" transform="rotate(45, 266.6666666666667, 799.9999999999999)"></rect><rect width="11.736842105263158" height="33.333333333333336" x="260.7982456140351" y="783.3333333333333" stroke="none" fill="hsl(316, 73%, 52%)" rx="5.868421052631579" transform="rotate(45, 266.6666666666667, 799.9999999999999)"></rect><rect width="33.333333333333336" height="11.736842105263158" x="316.6666666666667" y="794.1315789473683" stroke="none" fill="hsl(261, 60%, 38%)" rx="5.868421052631579" transform="rotate(45, 333.33333333333337, 799.9999999999999)"></rect><rect width="11.736842105263158" height="33.333333333333336" x="327.4649122807018" y="783.3333333333333" stroke="none" fill="hsl(261, 60%, 38%)" rx="5.868421052631579" transform="rotate(45, 333.33333333333337, 799.9999999999999)"></rect><rect width="33.333333333333336" height="11.736842105263158" x="383.33333333333337" y="794.1315789473683" stroke="none" fill="hsl(316, 73%, 52%)" rx="5.868421052631579" transform="rotate(45, 400.00000000000006, 799.9999999999999)"></rect><rect width="11.736842105263158" height="33.333333333333336" x="394.1315789473685" y="783.3333333333333" stroke="none" fill="hsl(316, 73%, 52%)" rx="5.868421052631579" transform="rotate(45, 400.00000000000006, 799.9999999999999)"></rect><rect width="33.333333333333336" height="11.736842105263158" x="450.00000000000006" y="794.1315789473683" stroke="none" fill="hsl(261, 60%, 38%)" rx="5.868421052631579" transform="rotate(45, 466.66666666666674, 799.9999999999999)"></rect><rect width="11.736842105263158" height="33.333333333333336" x="460.7982456140352" y="783.3333333333333" stroke="none" fill="hsl(261, 60%, 38%)" rx="5.868421052631579" transform="rotate(45, 466.66666666666674, 799.9999999999999)"></rect><rect width="33.333333333333336" height="11.736842105263158" x="516.6666666666667" y="794.1315789473683" stroke="none" fill="hsl(316, 73%, 52%)" rx="5.868421052631579" transform="rotate(45, 533.3333333333334, 799.9999999999999)"></rect><rect width="11.736842105263158" height="33.333333333333336" x="527.4649122807018" y="783.3333333333333" stroke="none" fill="hsl(316, 73%, 52%)" rx="5.868421052631579" transform="rotate(45, 533.3333333333334, 799.9999999999999)"></rect><rect width="33.333333333333336" height="11.736842105263158" x="583.3333333333334" y="794.1315789473683" stroke="none" fill="hsl(261, 60%, 38%)" rx="5.868421052631579" transform="rotate(45, 600, 799.9999999999999)"></rect><rect width="11.736842105263158" height="33.333333333333336" x="594.1315789473684" y="783.3333333333333" stroke="none" fill="hsl(261, 60%, 38%)" rx="5.868421052631579" transform="rotate(45, 600, 799.9999999999999)"></rect><rect width="33.333333333333336" height="11.736842105263158" x="650" y="794.1315789473683" stroke="none" fill="hsl(316, 73%, 52%)" rx="5.868421052631579" transform="rotate(45, 666.6666666666666, 799.9999999999999)"></rect><rect width="11.736842105263158" height="33.333333333333336" x="660.7982456140351" y="783.3333333333333" stroke="none" fill="hsl(316, 73%, 52%)" rx="5.868421052631579" transform="rotate(45, 666.6666666666666, 799.9999999999999)"></rect><rect width="33.333333333333336" height="11.736842105263158" x="716.6666666666666" y="794.1315789473683" stroke="none" fill="hsl(261, 60%, 38%)" rx="5.868421052631579" transform="rotate(45, 733.3333333333333, 799.9999999999999)"></rect><rect width="11.736842105263158" height="33.333333333333336" x="727.4649122807017" y="783.3333333333333" stroke="none" fill="hsl(261, 60%, 38%)" rx="5.868421052631579" transform="rotate(45, 733.3333333333333, 799.9999999999999)"></rect><rect width="33.333333333333336" height="11.736842105263158" x="783.3333333333333" y="794.1315789473683" stroke="none" fill="hsl(316, 73%, 52%)" rx="5.868421052631579" transform="rotate(45, 799.9999999999999, 799.9999999999999)"></rect><rect width="11.736842105263158" height="33.333333333333336" x="794.1315789473683" y="783.3333333333333" stroke="none" fill="hsl(316, 73%, 52%)" rx="5.868421052631579" transform="rotate(45, 799.9999999999999, 799.9999999999999)"></rect></g></svg>